<svg xmlns="http://www.w3.org/2000/svg" xmlns:xlink="http://www.w3.org/1999/xlink" xmlns:lucid="lucid" width="1920" height="580"><g transform="translate(780 -60)" lucid:page-tab-id="0_0"><path d="M-1000 0h2500v1000h-2500z" fill="#fff"/><path d="M-760 86a6 6 0 0 1 6-6h1868a6 6 0 0 1 6 6v528a6 6 0 0 1-6 6H-754a6 6 0 0 1-6-6z" stroke="#232f3e" fill="#fff" fill-opacity="0"/><path d="M-760 80h56v56h-56V80z" stroke="#fff" stroke-opacity="0" fill="#232f3e"/><path d="M-719.12 121.22h-25c-4.13.05-7.57-3.1-7.9-7.2v-.64c-.15-3.4 1.97-6.38 5.25-7.36v-.66c.12-4.22 2.44-7.75 6.24-9.57 4.13-1.86 8.73-.96 11.8 2.3 1.1 1.1 1.85 2.2 2.45 3.6 1.2-1 2.72-1.32 4.24-.9 2.24.8 3.68 2.74 3.76 5.1 3.68.65 6.32 3.8 6.28 7.56 0 7.07-7.04 7.73-7.12 7.76zm-26.7-13.88c-2.83.6-4.75 3.14-4.6 6.04v.53c.3 3.33 3.1 5.84 6.4 5.76h24.98c3.04-.3 5.4-2.64 5.68-5.7.28-3.43-2.24-6.5-5.68-6.78-.44-.05-.72-.45-.64-.87.08-1.83-1-3.44-2.72-4.13-1.32-.37-2.64.13-3.44 1.24-.2.25-.44.38-.76.33-.28-.05-.48-.24-.6-.5-.6-1.6-1.4-2.85-2.6-4.04-2.7-2.8-6.6-3.6-10.13-2-3.24 1.6-5.2 4.63-5.32 8.24-.04.4-.04.74 0 1.14.04.4-.2.76-.6.84z" stroke="#fff" stroke-opacity="0" fill="#fff"/><use xlink:href="#a" transform="matrix(1,0,0,1,-689,100) translate(0 23.11111111111111)"/><use xlink:href="#b" transform="matrix(1,0,0,1,-689,100) translate(104.72222222222223 23.11111111111111)"/><use xlink:href="#c" transform="matrix(1,0,0,1,-689,100) translate(237.4506172839506 23.11111111111111)"/><path d="M180 321.14c22.08 0 40 17.92 40 40s-17.92 40-40 40-40-17.92-40-40 17.92-40 40-40zm0 76.4c20.08 0 36.4-16.32 36.4-36.4s-16.32-36.4-36.4-36.4-36.4 16.32-36.4 36.4 16.32 36.4 36.4 36.4zm1.84-15.84l2 2-2.56 2.56c-.32.4-.8.56-1.28.56s-.96-.16-1.28-.56l-2.56-2.56 2-2v-1.92h3.68zm-11.2-8.64l5.36 5.36-2.56 2.64-5.36-5.44zm18.72 0l2.56 2.56-5.36 5.44-2.56-2.64zm-11.2-25.6v-6.48h3.68v6.48zm0 9.68v-6.48h3.68v6.48zm0 9.68v-6.48h3.68v6.48zm0 9.76v-6.48h3.68v6.48zm0-38.88v-3.6h3.68v3.6zm-12.8 30.08l2.56 2.56-2.56 2.64-2.56-2.64zm29.28 0l2.56 2.56-2.56 2.64-2.56-2.64z" stroke="#000" stroke-opacity="0" fill="#4d27aa"/><path d="M120 489.82a6 6 0 0 1 6-6h222.93a6 6 0 0 1 6 6v62a6 6 0 0 1-6 6H126a6 6 0 0 1-6-6z" stroke="#000" stroke-opacity="0" fill="#fff" fill-opacity="0"/><use xlink:href="#d" transform="matrix(1,0,0,1,125,488.8166601845778) translate(0 14.222222222222221)"/><use xlink:href="#e" transform="matrix(1,0,0,1,125,488.8166601845778) translate(0 35.55555555555556)"/><use xlink:href="#f" transform="matrix(1,0,0,1,125,488.8166601845778) translate(0 56.888888888888886)"/><g transform="matrix(1,0,0,1,125,488.8166601845778)"><a xlink:href="http://www.cruddur.com" target="_blank"><path class="lucid-link lucid-hotspot lucid-overlay-hotspot" fill-opacity="0" d="M0 21.33h42.32v21.33H0z"/></a><a xlink:href="http://www.cruddur.com" target="_blank"><path class="lucid-link lucid-hotspot lucid-overlay-hotspot" fill-opacity="0" d="M42.32 21.33h8.9v21.33h-8.9z"/></a><a xlink:href="http://www.cruddur.com" target="_blank"><path class="lucid-link lucid-hotspot lucid-overlay-hotspot" fill-opacity="0" d="M100.54 21.33h14.77v21.33h-14.76z"/></a></g><path d="M122.93 446a6 6 0 0 1 6-6h228a6 6 0 0 1 6 6v51.33a6 6 0 0 1-6 6h-228a6 6 0 0 1-6-6z" stroke="#000" stroke-opacity="0" fill="#fff" fill-opacity="0"/><use xlink:href="#g" transform="matrix(1,0,0,1,127.93333333333305,444.99999999999994) translate(0 14.4)"/><use xlink:href="#h" transform="matrix(1,0,0,1,127.93333333333305,444.99999999999994) translate(76.9 14.4)"/><use xlink:href="#i" transform="matrix(1,0,0,1,127.93333333333305,444.99999999999994) translate(0 36)"/><path d="M-600 222a6 6 0 0 1 6-6h228a6 6 0 0 1 6 6v42.67a6 6 0 0 1-6 6h-228a6 6 0 0 1-6-6z" stroke="#000" stroke-opacity="0" fill="#fff" fill-opacity="0"/><use xlink:href="#j" transform="matrix(1,0,0,1,-595,220.99999999999997) translate(135.1 14.4)"/><use xlink:href="#k" transform="matrix(1,0,0,1,-595,220.99999999999997) translate(151.1 36)"/><use xlink:href="#l" transform="matrix(1,0,0,1,-595,220.99999999999997) translate(210 36)"/><use xlink:href="#m" transform="matrix(1,0,0,1,-595,220.99999999999997) translate(121.14999999999999 57.6)"/><use xlink:href="#n" transform="matrix(1,0,0,1,-595,220.99999999999997) translate(183.1 57.6)"/><use xlink:href="#o" transform="matrix(1,0,0,1,-595,220.99999999999997) translate(230 79.20000000000002)"/><path d="M-487.85 222.57c1.38 2.36 2.92 5 2.92 8.96 0 6.67-5.4 11.6-14.5 13.22-6.65 1.23-12.2 5.43-12.27 5.43l-.77.62-.77-.62c-.05 0-5.6-4.2-12.28-5.43-9.08-1.63-14.48-6.55-14.48-13.22 0-3.97 1.54-6.6 2.92-8.96 1.2-2.07 2.2-3.8 2.2-6.16 0-4.97-3.9-8.16-3.9-8.22l-1.06-.78.83-1c.1-.07 6.43-7.8 7.92-9.75l.88-1.24 1.05 1.13c2.42 2.52 5.23 3.92 7.98 3.92 2.98 0 5.34-1.34 7.7-4.3l1-1.35 1 1.34c2.36 2.97 4.73 4.3 7.7 4.3 2.76 0 5.57-1.4 8-3.9l1.03-1.13.9 1.25c1.47 1.95 7.8 9.68 7.9 9.74l.84 1-1.04.78c0 .06-3.92 3.25-3.92 8.23 0 2.36 1 4.1 2.2 6.17zm-12 19.72c2.86-.52 12.38-2.87 12.38-10.77 0-3.3-1.26-5.43-2.58-7.72-1.27-2.12-2.54-4.36-2.54-7.4 0-4.52 2.5-7.83 3.92-9.28-1.43-1.8-4.57-5.6-6.33-7.8-2.65 2.37-5.74 3.7-8.77 3.7-3.36 0-6.16-1.34-8.7-4.14-2.53 2.8-5.34 4.15-8.7 4.15-3.03 0-6.1-1.34-8.75-3.7-1.76 2.2-4.9 6-6.34 7.8 1.44 1.44 3.9 4.75 3.9 9.28 0 3.04-1.25 5.28-2.52 7.4-1.32 2.3-2.6 4.43-2.6 7.73 0 7.9 9.54 10.25 12.4 10.75 5.84 1 10.74 4.1 12.6 5.38 1.9-1.3 6.8-4.37 12.62-5.38z" stroke="#000" stroke-opacity="0" fill="#4d27aa"/><path d="M-340.9 310.82a6 6 0 0 1 6-6h217a6 6 0 0 1 6 6v27.63a6 6 0 0 1-6 6h-217a6 6 0 0 1-6-6z" stroke="#3a414a" fill="#fff"/><use xlink:href="#p" transform="matrix(1,0,0,1,-339.8931065753993,305.82291666663764) translate(42.48765432098767 23.722222222222218)"/><use xlink:href="#q" transform="matrix(1,0,0,1,-339.8931065753993,305.82291666663764) translate(58.29012345679014 23.722222222222218)"/><use xlink:href="#r" transform="matrix(1,0,0,1,-339.8931065753993,305.82291666663764) translate(101.64814814814815 23.722222222222218)"/><path d="M-340.9 371.17a6 6 0 0 1 6-6h217a6 6 0 0 1 6 6v30.64a6 6 0 0 1-6 6h-217a6 6 0 0 1-6-6z" stroke="#3a414a" fill="#fff"/><use xlink:href="#p" transform="matrix(1,0,0,1,-339.8931065753993,366.16666666662786) translate(21.32716049382718 24.472222222222218)"/><use xlink:href="#q" transform="matrix(1,0,0,1,-339.8931065753993,366.16666666662786) translate(37.12962962962965 24.472222222222218)"/><use xlink:href="#s" transform="matrix(1,0,0,1,-339.8931065753993,366.16666666662786) translate(80.48765432098766 24.472222222222218)"/><path d="M-512.47 251.3v67.33a6 6 0 0 0 6 6h148.7" stroke="#3a414a" fill="none"/><path d="M-512.47 250.8l.5-.4v.9h-1v-.9z" stroke="#3a414a" stroke-width=".05" fill="#3a414a"/><path d="M-343 324.63l-14.28 4.64V320z" stroke="#3a414a" fill="#3a414a"/><path d="M-512.47 251.3v129.2a6 6 0 0 0 6 6h148.7" stroke="#3a414a" fill="none"/><path d="M-512.47 250.8l.5-.4v.9h-1v-.9z" stroke="#3a414a" stroke-width=".05" fill="#3a414a"/><path d="M-343 386.5l-14.28 4.63v-9.28z" stroke="#3a414a" fill="#3a414a"/><path d="M-110.9 324.63H8.3a6 6 0 0 1 6 6v24.5a6 6 0 0 0 6 6h103.32" stroke="#3a414a" fill="none"/><path d="M-110.9 325.13h-.5v-1h.5z" stroke="#3a414a" stroke-width=".05" fill="#3a414a"/><path d="M138.38 361.14l-14.26 4.64v-9.27z" stroke="#3a414a" fill="#3a414a"/><path d="M-110.9 386.5H8.3a6 6 0 0 0 6-6v-13.36a6 6 0 0 1 6-6h103.32" stroke="#3a414a" fill="none"/><path d="M-110.9 387h-.5v-1h.5z" stroke="#3a414a" stroke-width=".05" fill="#3a414a"/><path d="M138.38 361.14l-14.26 4.64v-9.27z" stroke="#3a414a" fill="#3a414a"/><path d="M148 199.8h60v60h-60v-60z" stroke="#fff" stroke-opacity="0" fill="#d6242d"/><path d="M174 238.6h15.2v1.6H174v-1.6zM166.8 238.6h4v1.6h-4v-1.6zM174 241.8h9.6v1.6H174v-1.6zM166.8 241.8h4v1.6h-4v-1.6zM158.8 216.2h38.4v1.6h-38.4v-1.6z" stroke="#fff" stroke-opacity="0" fill="#fff"/><path d="M197.2 248.2h-4v-1.58h3.36v-33.6H159.6v33.6h25.6v1.58h-26.4c-.44 0-.8-.37-.8-.8v-35.2c0-.44.36-.8.8-.8h38.36c.44-.04.8.3.84.73v35.28c0 .2-.08.4-.24.58-.16.14-.32.22-.56.22z" stroke="#fff" stroke-opacity="0" fill="#fff"/><path d="M173.38 235.46c-.2 0-.32-.05-.47-.14-.25-.2-.37-.5-.3-.8l.8-4.74-3.46-3.36c-.3-.3-.28-.82.03-1.12.12-.13.27-.2.43-.22l4.75-.7 2.13-4.3v-.02c.13-.26.4-.44.7-.44.33 0 .6.16.73.44l2.13 4.32 4.8.68c.45.06.75.46.7.9-.03.2-.1.34-.25.46l-3.44 3.37.8 4.73c.07.3-.05.62-.3.8-.26.18-.58.2-.84.05l-4.27-2.23-4.25 2.23c-.14.07-.25.1-.4.08zm-1.15-9.04l2.6 2.53c.17.2.26.42.22.7l-.6 3.56 3.2-1.67c.23-.13.5-.13.73 0l3.2 1.66-.6-3.56c-.05-.27.02-.52.22-.7l2.6-2.53-3.58-.5c-.28-.03-.5-.2-.62-.44l-1.6-3.2-1.58 3.24c-.14.24-.34.4-.62.43z" stroke="#fff" stroke-opacity="0" fill="#fff"/><path d="M218.05 200.8a6 6 0 0 1 6-6h138a6 6 0 0 1 6 6v58a6 6 0 0 1-6 6h-138a6 6 0 0 1-6-6z" stroke="#000" stroke-opacity="0" fill="#fff" fill-opacity="0"/><use xlink:href="#t" transform="matrix(1,0,0,1,223.049949666688,199.7971256936005) translate(0 14.222222222222221)"/><use xlink:href="#u" transform="matrix(1,0,0,1,223.049949666688,199.7971256936005) translate(45.28395061728394 14.222222222222221)"/><use xlink:href="#v" transform="matrix(1,0,0,1,223.049949666688,199.7971256936005) translate(0 35.55555555555556)"/><use xlink:href="#w" transform="matrix(1,0,0,1,223.049949666688,199.7971256936005) translate(0 56.888888888888886)"/><use xlink:href="#x" transform="matrix(1,0,0,1,223.049949666688,199.7971256936005) translate(0 78.22222222222223)"/><path d="M178 276.18v44.53" stroke="#3a414a" fill="none"/><path d="M178 261.42l4.63 14.26h-9.26z" stroke="#3a414a" fill="#3a414a"/><path d="M178.5 321.2l-1 .03v-.53h1z" stroke="#3a414a" stroke-width=".05" fill="#3a414a"/><path d="M-335.9 434.53a6 6 0 0 1 6-6h217a6 6 0 0 1 6 6v30.65a6 6 0 0 1-6 6h-217a6 6 0 0 1-6-6z" stroke="#3a414a" fill="#fff"/><use xlink:href="#p" transform="matrix(1,0,0,1,-334.89310657539943,429.5312499999902) translate(28.191358024691382 24.472222222222218)"/><use xlink:href="#q" transform="matrix(1,0,0,1,-334.89310657539943,429.5312499999902) translate(43.99382716049385 24.472222222222218)"/><use xlink:href="#y" transform="matrix(1,0,0,1,-334.89310657539943,429.5312499999902) translate(87.35185185185186 24.472222222222218)"/><g transform="matrix(1,0,0,1,-334.89310657539943,429.5312499999902)"><a xlink:href="http://yacrud.me" target="_blank"><path class="lucid-link lucid-hotspot lucid-overlay-hotspot" fill-opacity="0" d="M115.94 10.25h8.9v21.33h-8.9z"/></a><a xlink:href="http://yacrud.me" target="_blank"><path class="lucid-link lucid-hotspot lucid-overlay-hotspot" fill-opacity="0" d="M169.23 10.25h4.94v21.33h-4.94z"/></a><a xlink:href="http://yacrud.me" target="_blank"><path class="lucid-link lucid-hotspot lucid-overlay-hotspot" fill-opacity="0" d="M174.17 10.25h14.77v21.33h-14.77z"/></a></g><path d="M-512.47 267.18v176.67a6 6 0 0 0 6 6h153.7" stroke="#3a414a" fill="none"/><path d="M-512.47 252.4l4.64 14.28h-9.27zM-338 449.85l-14.28 4.64v-9.28z" stroke="#3a414a" fill="#3a414a"/><path d="M-105.9 449.85h14.5a6 6 0 0 1 6 6V504a6 6 0 0 1-6 6h-478.25a.35.35 0 0 0-.35.35.35.35 0 0 1-.35.34h-33.27" stroke="#3a414a" fill="none"/><path d="M-105.9 450.35h-.5v-1h.5z" stroke="#3a414a" stroke-width=".05" fill="#3a414a"/><path d="M-618.38 510.7l14.26-4.64v9.27z" stroke="#3a414a" fill="#3a414a"/><path d="M805.54 342.22c.2.83-.07 1.67-.6 2.3-.6.76-1.76 1.04-3.3 1.04-1.14 0-2.55-.14-4.03-.5l-2.75 20.38c-.07 2-1.88 3.68-5.3 5.07-1.35.5-2.9 1-4.64 1.4-4.36.98-9.6 1.53-14.85 1.53-9.54 0-24.6-2.15-24.86-8l-6.73-49.56-.07-.56v-.2c0-6.6 16.67-11.2 31.65-11.2 14.92 0 31.6 4.6 31.6 11.2v.2l-.08.57-2.75 20.16c4.3 2.43 6.38 4.3 6.72 6.2zm-13.9 22.94l2.8-20.86c-6.85-1.94-15.58-5.84-22.5-9.1-.54.34-1.22.62-1.9.62-1.87 0-3.35-1.53-3.35-3.33 0-1.82 1.47-3.35 3.35-3.35 1.75 0 3.23 1.46 3.3 3.2 7.66 3.6 15.8 6.95 21.57 8.76l2.82-20.92c-.4.2-.8.42-1.28.63-.06.08-.2.14-.33.14-.34.2-.8.35-1.2.56-.2.07-.35.14-.55.2-.4.15-.87.36-1.4.5-.14 0-.2.07-.35.14-.6.14-1.27.34-1.88.48-.2.07-.34.14-.54.14-.46.14-1 .28-1.53.42-.2 0-.4.07-.67.07l-1.82.42c-.13 0-.2 0-.33.06-.74.07-1.48.2-2.22.35-.2 0-.4 0-.6.07l-1.82.2c-.2 0-.46.08-.66.08l-2.15.2h-.28l-2.42.22h-.67c-.6.07-1.2.07-1.9.07-.2 0-.46.07-.66.07h-4.9c-.2 0-.47-.08-.68-.08-.68 0-1.28 0-1.9-.07h-.66l-2.42-.2h-.27c-.67-.08-1.4-.15-2.15-.22-.2 0-.47-.07-.67-.07l-1.75-.2c-.2-.08-.47-.08-.67-.08-.73-.14-1.47-.28-2.2-.35-.14-.06-.2-.06-.34-.06-.6-.14-1.2-.28-1.82-.35-.2-.07-.47-.14-.67-.14l-1.54-.42c-.2 0-.34-.07-.54-.14-.62-.14-1.3-.34-1.9-.48-.13-.07-.26-.14-.33-.14-.54-.14-.94-.35-1.4-.5-.2-.06-.35-.13-.55-.2-.4-.2-.8-.35-1.2-.56-.14 0-.28-.06-.34-.13-.48-.2-.88-.4-1.28-.62l6.1 44.98v.2c0 1.47 8.14 4.88 21.65 4.88 4.98 0 10.02-.5 14.12-1.47 1.6-.34 3.02-.76 4.16-1.25 2.7-1.04 3.3-1.94 3.3-2.15v-.2zm-21.6-58.05c-16.6 0-28.2 5.08-28.4 7.87v.34c.05.15.12.22.12.3.07.13.07.2.13.27s.2.2.26.28c.07.07.14.2.27.28.14.07.27.2.4.27.07.14.2.2.34.28.14.14.34.2.47.35.2.07.34.14.47.2.2.15.42.22.62.36.2.06.33.13.53.2.27.13.54.2.74.34.2.07.4.14.67.2.26.15.53.22.8.36.27.07.47.14.74.2.35.15.62.22.95.3.27.06.54.12.8.26l1.08.2c.27.08.6.15.88.22.4.14.75.2 1.15.28l1 .2c.4.08.82.15 1.3.22.32.06.6.13 1 .13.4.08.87.15 1.34.22.4.07.73.14 1.06.14.47.07 1 .14 1.48.14.4.07.74.14 1.14.14.54.07 1.08.07 1.62.14.4 0 .74.07 1.14.07.6.07 1.2.07 1.88.07.34 0 .67.07 1 .07.95 0 1.96.06 3.03.06 1 0 2.02-.07 2.96-.07.4 0 .68-.08 1.1-.08.6 0 1.2 0 1.8-.07.4 0 .8-.07 1.14-.07.54-.07 1.08-.07 1.62-.14.4 0 .8-.07 1.2-.14.48 0 .94-.07 1.42-.14.4 0 .74-.07 1.14-.14l1.28-.2c.4 0 .73-.07 1.07-.14l1.2-.2 1.08-.22c.34-.07.75-.14 1.08-.28.34-.07.6-.14.94-.2l1-.22c.28-.14.55-.2.82-.27.32-.08.66-.22.93-.3.27-.06.47-.13.74-.27.26-.07.53-.14.8-.28.27-.07.47-.14.67-.2.27-.15.48-.22.74-.35.2-.08.34-.14.54-.2.2-.15.4-.22.6-.36.2-.07.34-.14.48-.2.13-.15.33-.22.47-.36.13-.07.27-.14.33-.28.14-.06.34-.2.4-.27.14-.07.2-.2.27-.28l.27-.28c.07-.07.07-.14.14-.28.07-.08.07-.15.13-.3l.08-.33c-.27-2.8-11.9-7.86-28.43-7.86zm-3.75 43.8c.93 0 1.6.7 1.6 1.6v11.06c0 .9-.67 1.6-1.6 1.6h-10.96c-.88 0-1.62-.7-1.62-1.6V352.5c0-.9.74-1.6 1.62-1.6zm14.64 8.77c-4.37 0-7.86-3.48-7.86-7.86 0-4.3 3.5-7.77 7.86-7.77 4.3 0 7.86 3.47 7.86 7.78 0 4.4-3.56 7.87-7.86 7.87zM766.3 345c-.28.5-.82.76-1.42.76h-13.9c-.55 0-1.1-.27-1.36-.76-.33-.5-.27-1.1 0-1.6l6.92-11.54c.6-.97 2.22-.97 2.76 0l7 11.54c.26.5.26 1.1 0 1.6zm14.64 2.15c-2.62 0-4.7 2.1-4.7 4.66 0 2.58 2.08 4.74 4.7 4.74 2.55 0 4.64-2.16 4.64-4.73 0-2.56-2.1-4.65-4.64-4.65zm-24.06 14.8h7.86v-7.84h-7.86zm-3.1-19.3h8.34l-4.16-6.9zm44.23-.64c2.03.57 3.57.77 4.3.5-.26-.42-1.13-1.4-3.95-3.06zm-28.15-9.5c0 .06.07.06.14.13l.05-.28c-.13 0-.2.07-.2.14zM805.54 446.22c.2.83-.07 1.67-.6 2.3-.6.76-1.76 1.04-3.3 1.04-1.14 0-2.55-.14-4.03-.5l-2.75 20.38c-.07 2-1.88 3.68-5.3 5.07-1.35.5-2.9 1-4.64 1.4-4.36.98-9.6 1.53-14.85 1.53-9.54 0-24.6-2.15-24.86-8l-6.73-49.56-.07-.63v-.2c0-6.54 16.67-11.13 31.65-11.13 14.92 0 31.6 4.6 31.6 11.14v.2l-.08.63-2.75 20.16c4.3 2.43 6.38 4.3 6.72 6.2zm-13.85 22.94l2.8-20.86c-6.84-1.94-15.64-5.84-22.57-9.1-.53.34-1.2.62-1.88.62-1.88 0-3.36-1.53-3.36-3.33 0-1.82 1.47-3.28 3.35-3.28 1.75 0 3.23 1.4 3.3 3.13 7.66 3.6 15.8 6.95 21.57 8.76l2.82-21c-.34.3-.8.5-1.2.7-.14.08-.28.14-.4.14-.4.2-.82.35-1.22.56-.2.07-.34.14-.54.2-.4.15-.87.3-1.34.5-.14 0-.27.07-.4.07-.6.2-1.28.4-1.9.55-.2.07-.4.07-.53.14-.52.14-1 .28-1.53.35-.2.08-.4.15-.67.15-.6.14-1.15.28-1.75.35-.14.06-.27.06-.4.06l-2.22.42c-.2 0-.47 0-.67.07l-1.75.2c-.2 0-.46.08-.66.08l-2.15.2h-.28l-2.42.22h-.67c-.6.07-1.2.07-1.9.07-.2 0-.46 0-.66.07h-4.9c-.2-.08-.47-.08-.68-.08-.68 0-1.28 0-1.9-.07h-.66l-2.42-.2h-.27c-.67-.08-1.4-.15-2.15-.22-.2 0-.47-.07-.67-.07l-1.75-.2c-.2-.08-.47-.08-.67-.08-.73-.14-1.47-.28-2.2-.4-.14 0-.28 0-.4-.08-.62-.07-1.15-.2-1.76-.35-.2 0-.47-.07-.67-.14-.54-.06-1-.2-1.54-.34-.14 0-.34-.07-.54-.14-.62-.14-1.3-.34-1.9-.55-.13 0-.26-.07-.4-.07-.47-.2-.87-.35-1.34-.5-.2-.06-.34-.13-.54-.2-.4-.2-.8-.35-1.2-.56-.14 0-.28-.06-.4-.13-.42-.2-.82-.4-1.22-.7l6.1 45.06v.2c0 1.47 8.14 4.94 21.65 4.94 4.98 0 10.02-.55 14.12-1.45 1.6-.42 3.02-.84 4.23-1.26 2.62-1.05 3.23-2.02 3.23-2.23 0-.07 0-.14.06-.2zm-21.65-58.12c-16.6 0-28.22 5.14-28.5 7.93l.08.34c0 .08.06.22.13.3.07.06.07.2.13.27s.2.2.26.28c.07.07.14.2.27.28.07.07.2.2.34.27.13.07.27.2.4.28.14.07.27.2.47.28.14.14.27.2.47.28.15.14.42.2.55.28.2.14.4.2.6.28.2.13.48.2.68.27.27.14.47.2.74.28.2.14.47.2.74.28.27.14.54.2.8.28.28.08.55.22.88.3.27.06.54.12.88.26l.94.2 1 .22c.34.14.75.2 1.08.28.34.07.67.14 1.08.2.33.08.74.15 1.14.22.34.06.74.13 1.14.13.4.08.8.15 1.28.22.4.07.74.14 1.14.14.47.07.94.14 1.4.14.42.07.82.14 1.22.14.47.07 1 .07 1.55.14.4 0 .8.07 1.2.07.6.07 1.22.07 1.82.07.34.07.67.07 1.08.07.94 0 1.95.06 3.02.06 1 0 2.02-.07 2.96-.07.4 0 .75 0 1.1-.08.6 0 1.2 0 1.8-.07.4 0 .74-.07 1.14-.07.54-.07 1.08-.07 1.62-.14.4 0 .8-.07 1.2-.14.48 0 .94-.07 1.42-.14.4 0 .74-.07 1.14-.14l1.28-.2c.4 0 .73-.07 1.14-.14l1.14-.2 1.07-.22c.34-.07.75-.14 1.08-.28l1-.2c.28-.08.6-.15.95-.22.33-.14.6-.2.87-.27.34-.08.6-.22.88-.3.27-.06.53-.13.8-.27.27-.07.54-.14.74-.28.27-.07.47-.14.74-.28.2-.07.48-.14.68-.27.2-.08.4-.14.6-.28.2-.07.4-.14.55-.28.2-.07.33-.14.47-.28.2-.07.33-.2.47-.28.13-.07.27-.2.4-.28.13-.06.27-.2.34-.27.14-.07.2-.2.27-.28l.27-.28c.07-.07.07-.14.14-.28.07-.08.13-.22.13-.3l.08-.33c-.27-2.8-11.9-7.93-28.43-7.93zM798 446c2.03.57 3.57.77 4.3.57-.26-.5-1.13-1.46-3.95-3.13zm-28.15-9.5c0 .06.07.06.14.13l.05-.28c-.13 0-.2.07-.2.14z" stroke="#000" stroke-opacity="0" fill="#3f8624"/><path d="M861.84 309.1a6 6 0 0 1 6-6h152.96a6 6 0 0 1 6 6v92.8a6 6 0 0 1-6 6H867.84a6 6 0 0 1-6-6z" stroke="#000" stroke-opacity="0" fill="#fff" fill-opacity="0"/><use xlink:href="#z" transform="matrix(1,0,0,1,866.8350757104364,308.1124870359099) translate(0 14.222222222222218)"/><use xlink:href="#A" transform="matrix(1,0,0,1,866.8350757104364,308.1124870359099) translate(0 35.55555555555554)"/><use xlink:href="#B" transform="matrix(1,0,0,1,866.8350757104364,308.1124870359099) translate(0 56.88888888888887)"/><use xlink:href="#C" transform="matrix(1,0,0,1,866.8350757104364,308.1124870359099) translate(47.259259259259245 56.88888888888887)"/><path d="M862.47 428.9a6 6 0 0 1 6-6h152.33a6 6 0 0 1 6 6v27.56a6 6 0 0 1-6 6H868.47a6 6 0 0 1-6-6z" stroke="#000" stroke-opacity="0" fill="#fff" fill-opacity="0"/><use xlink:href="#D" transform="matrix(1,0,0,1,867.4684090437695,427.89061851795475) translate(0 14.222222222222218)"/><use xlink:href="#E" transform="matrix(1,0,0,1,867.4684090437695,427.89061851795475) translate(0 35.55555555555554)"/><path d="M803.3 442.67h36.3a6 6 0 0 0 6-6v-166.6a6 6 0 0 0-6-6H778a6 6 0 0 0-6 6v17.6" stroke="#3a414a" fill="none"/><path d="M803.3 443.1l-1.1-.93h1.1z" stroke="#3a414a" stroke-width=".05" fill="#3a414a"/><path d="M772 302.45l-4.63-14.27h9.27z" stroke="#3a414a" fill="#3a414a"/><path d="M342.17 329.82a6 6 0 0 1 6-6h272a6 6 0 0 1 6 6v62.65a6 6 0 0 1-6 6h-272a6 6 0 0 1-6-6z" stroke="#3a414a" fill="#fff"/><use xlink:href="#F" transform="matrix(1,0,0,1,354.17077045239625,335.82083333326545) translate(100.96296296296296 17.77777777777778)"/><use xlink:href="#G" transform="matrix(1,0,0,1,354.17077045239625,335.82083333326545) translate(-7.877604166666657 43.984375)"/><use xlink:href="#H" transform="matrix(1,0,0,1,354.17077045239625,335.82083333326545) translate(130.5 65.60833333333335)"/><path d="M236.38 361.14h88.91" stroke="#3a414a" fill="none"/><path d="M221.62 361.14l14.26-4.63v9.28zM340.05 361.14l-14.26 4.64v-9.27z" stroke="#3a414a" fill="#3a414a"/><path d="M627.17 361.14h50.95a6 6 0 0 0 6-6v-10.47a6 6 0 0 1 6-6h35.05" stroke="#3a414a" fill="none"/><path d="M627.18 361.64h-.5v-1h.5z" stroke="#3a414a" stroke-width=".05" fill="#3a414a"/><path d="M739.94 338.67l-14.27 4.64v-9.26z" stroke="#3a414a" fill="#3a414a"/><path d="M627.17 361.14h50.95a6 6 0 0 1 6 6v69.53a6 6 0 0 0 6 6h35.05" stroke="#3a414a" fill="none"/><path d="M627.18 361.64h-.5v-1h.5z" stroke="#3a414a" stroke-width=".05" fill="#3a414a"/><path d="M739.94 442.67l-14.27 4.64v-9.26z" stroke="#3a414a" fill="#3a414a"/><path d="M432.8 439.3a6 6 0 0 1 6-6h116a6 6 0 0 1 6 6v25.4a6 6 0 0 1-6 6h-116a6 6 0 0 1-6-6z" stroke="#3a414a" fill="#fff"/><use xlink:href="#I" transform="matrix(1,0,0,1,444.8000000000011,445.3072787025814) translate(36.69135802469136 14.222222222222221)"/><path d="M496.8 432.3v-16.95" stroke="#3a414a" fill="none"/><path d="M497.3 432.8h-1v-.5h1z" stroke="#3a414a" stroke-width=".05" fill="#3a414a"/><path d="M496.8 400.6l4.63 14.25h-9.26z" stroke="#3a414a" fill="#3a414a"/><path d="M936.42 216h-38.17c-1.84 0-3.32-1.5-3.32-3.36v-49.28c0-1.85 1.48-3.36 3.32-3.36h38.17c1.84 0 3.3 1.5 3.3 3.36v49.28c0 1.85-1.47 3.36-3.3 3.36zm-38.17-53.6c-.54 0-.94.4-.94.96v49.28c0 .56.46.95.95.95h38.17c.54 0 .94-.4.94-.96v-49.28c0-.56-.45-.95-.94-.95z" stroke="#fff" stroke-opacity="0" fill="#d6242d"/><path d="M900.85 198.9l1.7-1.7v.02l10.04 10.04-1.7 1.7-10.05-10.06z" stroke="#fff" stroke-opacity="0" stroke-width=".71" fill="#d6242d"/><path d="M900.86 207.26l10.05-10.04 1.7 1.7-10.05 10.03-1.7-1.7z" stroke="#fff" stroke-opacity="0" stroke-width=".71" fill="#d6242d"/><path d="M905.05 176.9c-.33 0-.6-.1-.85-.34l-4.47-4.48 1.7-1.68 3.56 3.58 8.08-8.1 1.68 1.68-8.94 8.94c-.2.24-.45.37-.77.4zM905.05 191.43c-.33 0-.6-.12-.85-.35l-4.47-4.48 1.7-1.67 3.56 3.57 8.08-8.1 1.68 1.7-8.94 8.92c-.2.25-.45.38-.77.4z" stroke="#fff" stroke-opacity="0" fill="#d6242d"/><g><use xlink:href="#J" transform="matrix(1,0,0,1,864.9333333333349,224.99999999999997) translate(-11.018518518518526 17.77777777777778)"/></g><path d="M878.55 188h-116a6 6 0 0 0-6 6v94.82" stroke="#3a414a" fill="none"/><path d="M893.32 188l-14.27 4.63v-9.26zM756.56 303.6l-4.64-14.28h9.27z" stroke="#3a414a" fill="#3a414a"/><path d="M-660 550.7c-22.08 0-40-17.93-40-40 0-22.08 17.92-40 40-40s40 17.92 40 40c0 22.07-17.92 40-40 40zm0-76.8c-20.32 0-36.8 16.48-36.8 36.8 0 20.3 16.48 36.8 36.8 36.8 20.32 0 36.8-16.5 36.8-36.8 0-20.32-16.48-36.8-36.8-36.8z" stroke="#fff" stroke-opacity="0" stroke-width="3" fill="#693cc5"/><path d="M-636.14 521.9h-3.06v-6.4c0-.9-.7-1.6-1.58-1.6h-4.83v-6.4c0-.9-.73-1.6-1.6-1.6h-11.2v-4.8h11.2c.87 0 1.6-.74 1.6-1.58v-14.44c0-.9-.73-1.58-1.6-1.58h-25.6c-.88 0-1.6.7-1.6 1.58v14.44c0 .84.72 1.58 1.6 1.58h11.2v4.8h-11.2c-.88 0-1.6.7-1.6 1.6v6.4h-4.78c-.9 0-1.63.7-1.63 1.6v6.38h-3.06c-.87 0-1.58.75-1.58 1.6v8.03c0 .9.7 1.6 1.58 1.6h7.84c.92 0 1.63-.7 1.63-1.6v-8.03c0-.84-.7-1.6-1.62-1.6h-1.58v-4.8h8v4.8h-1.58c-.92 0-1.63.76-1.63 1.6v8.04c0 .9.7 1.6 1.62 1.6h8c.86 0 1.57-.7 1.57-1.6v-8.03c0-.84-.72-1.6-1.58-1.6h-3.2v-6.38c0-.9-.73-1.6-1.64-1.6h-3.16v-4.8h22.36v4.8h-3.16c-.92 0-1.63.7-1.63 1.6v6.38h-3.22c-.86 0-1.58.75-1.58 1.6v8.03c0 .9.72 1.6 1.58 1.6h8c.9 0 1.63-.7 1.63-1.6v-8.03c0-.84-.7-1.6-1.62-1.6h-1.58v-4.8h8v4.8h-1.74c-.86 0-1.58.76-1.58 1.6v8.04c0 .9.72 1.6 1.58 1.6h8.05c.88 0 1.6-.7 1.6-1.6v-8.03-.05c-.06-.84-.78-1.53-1.64-1.53zm-41.46 7.97h-4.63v-4.76h4.63zm12.8-4.76v4.77h-4.8v-4.76zm-6.38-27.22v-11.16h22.36v11.16zm20.78 32h-4.8v-4.77h4.8zm12.63 0h-4.8v-4.77h4.8z" stroke="#fff" stroke-opacity="0" stroke-width="3" fill="#693cc5"/><g><use xlink:href="#K" transform="matrix(1,0,0,1,-730,559.6947916666811) translate(49.01234567901235 17.77777777777778)"/></g><path d="M0 434.67h74v74H0v-74z" stroke="#fff" stroke-opacity="0" fill="#693cc5"/><path d="M45.52 494.53l-1.76-.93c1-1.86 1.66-3.53 2.25-5.57l1.9.55c-.62 2.2-1.32 3.95-2.38 5.95zm1.84-18.06c-.35-5.8-2-10.64-5.2-15.47l1.64-1.06c3.42 5.1 5.16 10.26 5.53 16.4zm-13.02-23.82c-1.5-1.12-2.87-1.95-4.55-2.8l.9-1.75c1.8.88 3.23 1.76 4.83 2.97zM42.42 478.97c-3.27-3.25-6.67-5.4-11-6.9l.6-1.88c4.64 1.6 8.25 3.88 11.74 7.34zM50.56 490.75c-.37-1-.78-1.9-1.24-2.8l1.77-.9c.5 1.03.9 1.9 1.3 2.97z" stroke="#fff" stroke-opacity="0" fill="#fff"/><path d="M44.96 495l-.63-1.86c2.5-.84 4.48-1.9 6.55-3.53l1.2 1.57c-2.25 1.76-4.4 2.92-7.12 3.83zM13.6 471.17l-.46-1.9c2.3-.58 4.3-.84 6.68-.9l.05 2c-2.23.03-4.1.28-6.28.8zM29.78 464.9l-1.66-1.08c1.52-2.48 3.12-4.38 5.3-6.3l1.3 1.48c-2.03 1.8-3.52 3.58-4.94 5.9zM44.45 453.2l-.67-1.86c1.56-.58 2.93-.97 4.57-1.3l.36 1.97c-1.52.3-2.8.66-4.25 1.2zM24.9 492.88c-1.68-3.93-2.46-7.55-2.52-11.84.03-1.65.22-3.05.6-4.65.08-.36.16-.7.23-1.08l1.98.38-.22 1.1c-.36 1.45-.53 2.73-.57 4.24.04 4.02.76 7.43 2.34 11.14z" stroke="#fff" stroke-opacity="0" fill="#fff"/><path d="M37 496.33c-13.62 0-24.67-11.06-24.67-24.65 0-.54 0-1 .05-1.53.64-10.52 7.45-19.1 17.56-22.13 6.66-1.97 13.08-1.28 19.1 2.13 11.88 6.66 16.13 21.68 9.47 33.6-1.67 3-3.64 5.32-6.4 7.45-4.54 3.45-9.38 5.13-15.1 5.13zm0-47.37c-2.32 0-4.3.3-6.46 1-9.33 2.8-15.6 10.66-16.18 20.34 0 .5-.05.94-.05 1.38 0 12.5 10.17 22.68 22.7 22.68 2.6 0 4.83-.35 7.3-1.24 2.52-.84 4.5-1.88 6.56-3.5 5.77-4.45 8.83-10.68 8.83-17.94 0-12.54-10.17-22.72-22.7-22.72z" stroke="#fff" stroke-opacity="0" fill="#fff"/><path d="M39.4 460.25c-2.4 0-4.37-1.96-4.37-4.37 0-2.4 1.95-4.37 4.37-4.37 2.4 0 4.37 1.97 4.37 4.38 0 2.42-1.95 4.37-4.36 4.37zm0-6.76c-1.32 0-2.4 1.07-2.4 2.4 0 1.32 1.08 2.38 2.4 2.38 1.32 0 2.4-1.06 2.4-2.4 0-1.3-1.08-2.4-2.4-2.4zM25.94 474c-2.4 0-4.37-1.94-4.37-4.36 0-2.4 1.96-4.37 4.37-4.37 2.4 0 4.37 1.96 4.37 4.37 0 2.42-1.95 4.37-4.36 4.38zm0-6.75c-1.32 0-2.4 1.07-2.4 2.4 0 1.3 1.08 2.4 2.4 2.4 1.32 0 2.4-1.1 2.4-2.4v-.02c0-1.33-1.08-2.4-2.4-2.4zM47.63 486.66c-2.4 0-4.37-1.95-4.38-4.36 0-2.4 1.95-4.37 4.37-4.38 2.4 0 4.37 1.95 4.38 4.36v.02c0 2.4-1.95 4.36-4.37 4.36zm0-6.75c-1.32 0-2.4 1.08-2.4 2.4 0 1.33 1.08 2.4 2.4 2.4 1.32 0 2.4-1.07 2.4-2.4 0-1.32-1.08-2.4-2.4-2.4z" stroke="#fff" stroke-opacity="0" fill="#fff"/><g><use xlink:href="#L" transform="matrix(1,0,0,1,-30,517.6666666666666) translate(26.29012345679012 17.77777777777778)"/><use xlink:href="#M" transform="matrix(1,0,0,1,-30,517.6666666666666) translate(12.185185185185183 44.44444444444444)"/></g><path d="M180 401.64v10.26a6 6 0 0 1-6 6H43.7a6 6 0 0 0-6 6v10.27" stroke="#3a414a" fill="none"/><path d="M180 401.14h.5v.52h-1v-.55zM38.2 434.67h-1v-.52h1z" stroke="#3a414a" stroke-width=".05" fill="#3a414a"/><defs><path fill="#3a414a" d="M147-102L127 0H76l19-102-65-146h52l45 107 83-107h57" id="N"/><path fill="#3a414a" d="M166-52c-4 17 5 29 24 23l-3 27c-30 11-74 1-67-34C105-15 91 4 56 4 23 4 3-15 2-49c0-64 63-67 128-67 10-22 3-53-29-45-13 3-22 10-25 24l-46-5c5-64 156-77 153 0-1 33-11 60-17 90zM97-88c-44-9-64 57-19 57 31 0 42-28 47-57H97" id="O"/><path fill="#3a414a" d="M67-101c-8 29-7 73 27 71 23-2 32-16 39-37l48 9C170-19 141 4 91 4 36 4 7-28 12-86c6-75 61-124 140-103 26 7 40 29 43 59l-50 4c-1-20-9-34-29-34-35 0-41 29-49 59" id="P"/><path fill="#3a414a" d="M84-151c13-25 34-51 72-40l-8 41C67-170 71-64 56 0H6l36-190h47" id="Q"/><path fill="#3a414a" d="M69 3c-96 0-34-126-28-193h49L65-57c6 42 62 18 71-6 14-38 17-86 28-127h50L178 0h-47c0-11 4-26 3-33-14 20-30 37-65 36" id="R"/><path fill="#3a414a" d="M132-28C118-9 101 4 69 4 30 4 10-23 10-62c0-70 24-129 92-132 31-1 47 14 56 35l19-102h49L179 0h-49zM62-69c0 22 7 39 29 39 45-2 54-45 57-90 2-27-10-40-33-40-44 0-53 48-53 91" id="S"/><g id="a"><use transform="matrix(0.08024691358024691,0,0,0.08024691358024691,0,0)" xlink:href="#N"/><use transform="matrix(0.08024691358024691,0,0,0.08024691358024691,18.21604938271605,0)" xlink:href="#O"/><use transform="matrix(0.08024691358024691,0,0,0.08024691358024691,34.26543209876543,0)" xlink:href="#P"/><use transform="matrix(0.08024691358024691,0,0,0.08024691358024691,50.31481481481481,0)" xlink:href="#Q"/><use transform="matrix(0.08024691358024691,0,0,0.08024691358024691,61.54938271604938,0)" xlink:href="#R"/><use transform="matrix(0.08024691358024691,0,0,0.08024691358024691,79.12345679012346,0)" xlink:href="#S"/></g><path fill="#3a414a" d="M76-208v77h127v40H76V0H24v-248h183v40H76" id="T"/><path fill="#3a414a" d="M135-150c-39-12-60 13-60 57V0H25l-1-190h47c2 13-1 29 3 40 6-28 27-53 61-41v41" id="U"/><path fill="#3a414a" d="M110-194c64 0 96 36 96 99 0 64-35 99-97 99-61 0-95-36-95-99 0-62 34-99 96-99zm-1 164c35 0 45-28 45-65 0-40-10-65-43-65-34 0-45 26-45 65 0 36 10 65 43 65" id="V"/><path fill="#3a414a" d="M135-194c87-1 58 113 63 194h-50c-7-57 23-157-34-157-59 0-34 97-39 157H25l-1-190h47c2 12-1 28 3 38 12-26 28-41 61-42" id="W"/><path fill="#3a414a" d="M115-3C79 11 28 4 28-45v-112H4v-33h27l15-45h31v45h36v33H77v99c-1 23 16 31 38 25v30" id="X"/><path fill="#3a414a" d="M185-48c-13 30-37 53-82 52C43 2 14-33 14-96s30-98 90-98c62 0 83 45 84 108H66c0 31 8 55 39 56 18 0 30-7 34-22zm-45-69c5-46-57-63-70-21-2 6-4 13-4 21h74" id="Y"/><path fill="#3a414a" d="M88-194c31-1 46 15 58 34l-1-101h50l1 261h-48c-2-10 0-23-3-31C134-8 116 4 84 4 32 4 16-41 15-95c0-56 19-97 73-99zm17 164c33 0 40-30 41-66 1-37-9-64-41-64s-38 30-39 65c0 43 13 65 39 65" id="Z"/><g id="b"><use transform="matrix(0.08024691358024691,0,0,0.08024691358024691,0,0)" xlink:href="#T"/><use transform="matrix(0.08024691358024691,0,0,0.08024691358024691,17.574074074074073,0)" xlink:href="#U"/><use transform="matrix(0.08024691358024691,0,0,0.08024691358024691,28.80864197530864,0)" xlink:href="#V"/><use transform="matrix(0.08024691358024691,0,0,0.08024691358024691,46.3827160493827,0)" xlink:href="#W"/><use transform="matrix(0.08024691358024691,0,0,0.08024691358024691,63.956790123456784,0)" xlink:href="#X"/><use transform="matrix(0.08024691358024691,0,0,0.08024691358024691,73.50617283950616,0)" xlink:href="#Y"/><use transform="matrix(0.08024691358024691,0,0,0.08024691358024691,89.55555555555556,0)" xlink:href="#W"/><use transform="matrix(0.08024691358024691,0,0,0.08024691358024691,107.12962962962962,0)" xlink:href="#Z"/></g><path fill="#3a414a" d="M182-130c37 4 62 22 62 59C244 23 116-4 24 0v-248c84 5 203-23 205 63 0 31-19 50-47 55zM76-148c40-3 101 13 101-30 0-44-60-28-101-31v61zm0 110c48-3 116 14 116-37 0-48-69-32-116-35v72" id="aa"/><path fill="#3a414a" d="M25 0v-261h50V0H25" id="ab"/><path fill="#3a414a" d="M85 4C-2 5 27-109 22-190h50c7 57-23 150 33 157 60-5 35-97 40-157h50l1 190h-47c-2-12 1-28-3-38-12 25-28 42-61 42" id="ac"/><path fill="#3a414a" d="M135-194c53 0 70 44 70 98 0 56-19 98-73 100-31 1-45-17-59-34 3 33 2 69 2 105H25l-1-265h48c2 10 0 23 3 31 11-24 29-35 60-35zM114-30c33 0 39-31 40-66 0-38-9-64-40-64-56 0-55 130 0 130" id="ad"/><path fill="#3a414a" d="M25-224v-37h50v37H25zM25 0v-190h50V0H25" id="ae"/><g id="c"><use transform="matrix(0.08024691358024691,0,0,0.08024691358024691,0,0)" xlink:href="#aa"/><use transform="matrix(0.08024691358024691,0,0,0.08024691358024691,20.78395061728395,0)" xlink:href="#ab"/><use transform="matrix(0.08024691358024691,0,0,0.08024691358024691,28.80864197530864,0)" xlink:href="#ac"/><use transform="matrix(0.08024691358024691,0,0,0.08024691358024691,46.3827160493827,0)" xlink:href="#Y"/><use transform="matrix(0.08024691358024691,0,0,0.08024691358024691,62.43209876543209,0)" xlink:href="#ad"/><use transform="matrix(0.08024691358024691,0,0,0.08024691358024691,80.00617283950616,0)" xlink:href="#U"/><use transform="matrix(0.08024691358024691,0,0,0.08024691358024691,91.24074074074073,0)" xlink:href="#ae"/><use transform="matrix(0.08024691358024691,0,0,0.08024691358024691,99.26543209876543,0)" xlink:href="#W"/><use transform="matrix(0.08024691358024691,0,0,0.08024691358024691,116.8395061728395,0)" xlink:href="#X"/></g><path fill="#3a414a" d="M205 0l-28-72H64L36 0H1l101-248h38L239 0h-34zm-38-99l-47-123c-12 45-31 82-46 123h93" id="af"/><path fill="#3a414a" d="M24 0v-261h32V0H24" id="ag"/><path fill="#3a414a" d="M24-231v-30h32v30H24zM24 0v-190h32V0H24" id="ah"/><path fill="#3a414a" d="M141-36C126-15 110 5 73 4 37 3 15-17 15-53c-1-64 63-63 125-63 3-35-9-54-41-54-24 1-41 7-42 31l-33-3c5-37 33-52 76-52 45 0 72 20 72 64v82c-1 20 7 32 28 27v20c-31 9-61-2-59-35zM48-53c0 20 12 33 32 33 41-3 63-29 60-74-43 2-92-5-92 41" id="ai"/><path fill="#3a414a" d="M135-143c-3-34-86-38-87 0 15 53 115 12 119 90S17 21 10-45l28-5c4 36 97 45 98 0-10-56-113-15-118-90-4-57 82-63 122-42 12 7 21 19 24 35" id="aj"/><path fill="#3a414a" d="M100-194c63 0 86 42 84 106H49c0 40 14 67 53 68 26 1 43-12 49-29l28 8c-11 28-37 45-77 45C44 4 14-33 15-96c1-61 26-98 85-98zm52 81c6-60-76-77-97-28-3 7-6 17-6 28h103" id="ak"/><path fill="#3a414a" d="M33-154v-36h34v36H33zM33 0v-36h34V0H33" id="al"/><g id="d"><use transform="matrix(0.049382716049382706,0,0,0.049382716049382706,0,0)" xlink:href="#af"/><use transform="matrix(0.049382716049382706,0,0,0.049382716049382706,11.85185185185185,0)" xlink:href="#ag"/><use transform="matrix(0.049382716049382706,0,0,0.049382716049382706,15.753086419753084,0)" xlink:href="#ah"/><use transform="matrix(0.049382716049382706,0,0,0.049382716049382706,19.654320987654316,0)" xlink:href="#ai"/><use transform="matrix(0.049382716049382706,0,0,0.049382716049382706,29.530864197530857,0)" xlink:href="#aj"/><use transform="matrix(0.049382716049382706,0,0,0.049382716049382706,38.419753086419746,0)" xlink:href="#ak"/><use transform="matrix(0.049382716049382706,0,0,0.049382716049382706,48.29629629629629,0)" xlink:href="#aj"/><use transform="matrix(0.049382716049382706,0,0,0.049382716049382706,57.185185185185176,0)" xlink:href="#al"/></g><path fill="#3a414a" d="M206 0h-36l-40-164L89 0H53L-1-190h32L70-26l43-164h34l41 164 42-164h31" id="am"/><path fill="#3a414a" d="M33 0v-38h34V0H33" id="an"/><path fill="#3a414a" d="M179-190L93 31C79 59 56 82 12 73V49c39 6 53-20 64-50L1-190h34L92-34l54-156h33" id="ao"/><path fill="#3a414a" d="M96-169c-40 0-48 33-48 73s9 75 48 75c24 0 41-14 43-38l32 2c-6 37-31 61-74 61-59 0-76-41-82-99-10-93 101-131 147-64 4 7 5 14 7 22l-32 3c-4-21-16-35-41-35" id="ap"/><path fill="#3a414a" d="M114-163C36-179 61-72 57 0H25l-1-190h30c1 12-1 29 2 39 6-27 23-49 58-41v29" id="aq"/><path fill="#3a414a" d="M84 4C-5 8 30-112 23-190h32v120c0 31 7 50 39 49 72-2 45-101 50-169h31l1 190h-30c-1-10 1-25-2-33-11 22-28 36-60 37" id="ar"/><path fill="#3a414a" d="M85-194c31 0 48 13 60 33l-1-100h32l1 261h-30c-2-10 0-23-3-31C134-8 116 4 85 4 32 4 16-35 15-94c0-66 23-100 70-100zm9 24c-40 0-46 34-46 75 0 40 6 74 45 74 42 0 51-32 51-76 0-42-9-74-50-73" id="as"/><path fill="#3a414a" d="M210-169c-67 3-38 105-44 169h-31v-121c0-29-5-50-35-48C34-165 62-65 56 0H25l-1-190h30c1 10-1 24 2 32 10-44 99-50 107 0 11-21 27-35 58-36 85-2 47 119 55 194h-31v-121c0-29-5-49-35-48" id="at"/><g id="e"><use transform="matrix(0.049382716049382706,0,0,0.049382716049382706,0,0)" xlink:href="#am"/><use transform="matrix(0.049382716049382706,0,0,0.049382716049382706,12.790123456790122,0)" xlink:href="#am"/><use transform="matrix(0.049382716049382706,0,0,0.049382716049382706,25.580246913580243,0)" xlink:href="#am"/><use transform="matrix(0.049382716049382706,0,0,0.049382716049382706,37.38271604938271,0)" xlink:href="#an"/><path fill="#8080ff" d="M-.9 1.23h44.1v1.3H-.9z"/><use transform="matrix(0.049382716049382706,0,0,0.049382716049382706,42.32098765432098,0)" xlink:href="#ao"/><path fill="#8080ff" d="M41.43 1.23H52.1v1.3H41.43z"/><use transform="matrix(0.049382716049382706,0,0,0.049382716049382706,51.209876543209866,0)" xlink:href="#ai"/><use transform="matrix(0.049382716049382706,0,0,0.049382716049382706,61.08641975308641,0)" xlink:href="#ap"/><use transform="matrix(0.049382716049382706,0,0,0.049382716049382706,69.97530864197529,0)" xlink:href="#aq"/><use transform="matrix(0.049382716049382706,0,0,0.049382716049382706,75.85185185185183,0)" xlink:href="#ar"/><use transform="matrix(0.049382716049382706,0,0,0.049382716049382706,85.72839506172838,0)" xlink:href="#as"/><use transform="matrix(0.049382716049382706,0,0,0.049382716049382706,95.60493827160492,0)" xlink:href="#an"/><use transform="matrix(0.049382716049382706,0,0,0.049382716049382706,100.54320987654319,0)" xlink:href="#at"/><path fill="#8080ff" d="M99.65 1.23h16.54v1.3H99.64z"/><use transform="matrix(0.049382716049382706,0,0,0.049382716049382706,115.30864197530862,0)" xlink:href="#ak"/></g><g id="f"><use transform="matrix(0.049382716049382706,0,0,0.049382716049382706,0,0)" xlink:href="#ao"/><use transform="matrix(0.049382716049382706,0,0,0.049382716049382706,8.888888888888888,0)" xlink:href="#ai"/><use transform="matrix(0.049382716049382706,0,0,0.049382716049382706,18.76543209876543,0)" xlink:href="#ap"/><use transform="matrix(0.049382716049382706,0,0,0.049382716049382706,27.654320987654316,0)" xlink:href="#aq"/><use transform="matrix(0.049382716049382706,0,0,0.049382716049382706,33.53086419753086,0)" xlink:href="#ar"/><use transform="matrix(0.049382716049382706,0,0,0.049382716049382706,43.407407407407405,0)" xlink:href="#as"/><use transform="matrix(0.049382716049382706,0,0,0.049382716049382706,53.28395061728395,0)" xlink:href="#an"/><use transform="matrix(0.049382716049382706,0,0,0.049382716049382706,58.22222222222222,0)" xlink:href="#at"/><use transform="matrix(0.049382716049382706,0,0,0.049382716049382706,72.98765432098764,0)" xlink:href="#as"/></g><path d="M63-220v92h138v28H63V0H30v-248h175v28H63" id="au"/><path d="M114-163C36-179 61-72 57 0H25l-1-190h30c1 12-1 29 2 39 6-27 23-49 58-41v29" id="av"/><path d="M100-194c62-1 85 37 85 99 1 63-27 99-86 99S16-35 15-95c0-66 28-99 85-99zM99-20c44 1 53-31 53-75 0-43-8-75-51-75s-53 32-53 75 10 74 51 75" id="aw"/><path d="M117-194c89-4 53 116 60 194h-32v-121c0-31-8-49-39-48C34-167 62-67 57 0H25l-1-190h30c1 10-1 24 2 32 11-22 29-35 61-36" id="ax"/><path d="M59-47c-2 24 18 29 38 22v24C64 9 27 4 27-40v-127H5v-23h24l9-43h21v43h35v23H59v120" id="ay"/><path d="M100-194c63 0 86 42 84 106H49c0 40 14 67 53 68 26 1 43-12 49-29l28 8c-11 28-37 45-77 45C44 4 14-33 15-96c1-61 26-98 85-98zm52 81c6-60-76-77-97-28-3 7-6 17-6 28h103" id="az"/><path d="M85-194c31 0 48 13 60 33l-1-100h32l1 261h-30c-2-10 0-23-3-31C134-8 116 4 85 4 32 4 16-35 15-94c0-66 23-100 70-100zm9 24c-40 0-46 34-46 75 0 40 6 74 45 74 42 0 51-32 51-76 0-42-9-74-50-73" id="aA"/><g id="g"><use transform="matrix(0.05,0,0,0.05,0,0)" xlink:href="#au"/><use transform="matrix(0.05,0,0,0.05,10.950000000000001,0)" xlink:href="#av"/><use transform="matrix(0.05,0,0,0.05,16.900000000000002,0)" xlink:href="#aw"/><use transform="matrix(0.05,0,0,0.05,26.900000000000002,0)" xlink:href="#ax"/><use transform="matrix(0.05,0,0,0.05,36.900000000000006,0)" xlink:href="#ay"/><use transform="matrix(0.05,0,0,0.05,41.900000000000006,0)" xlink:href="#az"/><use transform="matrix(0.05,0,0,0.05,51.900000000000006,0)" xlink:href="#ax"/><use transform="matrix(0.05,0,0,0.05,61.900000000000006,0)" xlink:href="#aA"/></g><path d="M212-179c-10-28-35-45-73-45-59 0-87 40-87 99 0 60 29 101 89 101 43 0 62-24 78-52l27 14C228-24 195 4 139 4 59 4 22-46 18-125c-6-104 99-153 187-111 19 9 31 26 39 46" id="aB"/><path d="M84 4C-5 8 30-112 23-190h32v120c0 31 7 50 39 49 72-2 45-101 50-169h31l1 190h-30c-1-10 1-25-2-33-11 22-28 36-60 37" id="aC"/><g id="h"><use transform="matrix(0.05,0,0,0.05,0,0)" xlink:href="#aB"/><use transform="matrix(0.05,0,0,0.05,12.950000000000001,0)" xlink:href="#av"/><use transform="matrix(0.05,0,0,0.05,18.900000000000002,0)" xlink:href="#aC"/><use transform="matrix(0.05,0,0,0.05,28.900000000000002,0)" xlink:href="#aA"/><use transform="matrix(0.05,0,0,0.05,38.900000000000006,0)" xlink:href="#aA"/><use transform="matrix(0.05,0,0,0.05,48.900000000000006,0)" xlink:href="#aC"/><use transform="matrix(0.05,0,0,0.05,58.900000000000006,0)" xlink:href="#av"/></g><path d="M87 75C49 33 22-17 22-94c0-76 28-126 65-167h31c-38 41-64 92-64 168S80 34 118 75H87" id="aD"/><path d="M30-248c118-7 216 8 213 122C240-48 200 0 122 0H30v-248zM63-27c89 8 146-16 146-99s-60-101-146-95v194" id="aE"/><path d="M24-231v-30h32v30H24zM24 0v-190h32V0H24" id="aF"/><path d="M135-143c-3-34-86-38-87 0 15 53 115 12 119 90S17 21 10-45l28-5c4 36 97 45 98 0-10-56-113-15-118-90-4-57 82-63 122-42 12 7 21 19 24 35" id="aG"/><path d="M115-194c53 0 69 39 70 98 0 66-23 100-70 100C84 3 66-7 56-30L54 0H23l1-261h32v101c10-23 28-34 59-34zm-8 174c40 0 45-34 45-75 0-40-5-75-45-74-42 0-51 32-51 76 0 43 10 73 51 73" id="aH"/><path d="M33-261c38 41 65 92 65 168S71 34 33 75H2C39 34 66-17 66-93S39-220 2-261h31" id="aI"/><g id="i"><use transform="matrix(0.05,0,0,0.05,0,0)" xlink:href="#aD"/><use transform="matrix(0.05,0,0,0.05,5.95,0)" xlink:href="#aE"/><use transform="matrix(0.05,0,0,0.05,18.900000000000002,0)" xlink:href="#aF"/><use transform="matrix(0.05,0,0,0.05,22.85,0)" xlink:href="#aG"/><use transform="matrix(0.05,0,0,0.05,31.85,0)" xlink:href="#ay"/><use transform="matrix(0.05,0,0,0.05,36.85,0)" xlink:href="#av"/><use transform="matrix(0.05,0,0,0.05,42.800000000000004,0)" xlink:href="#aC"/><use transform="matrix(0.05,0,0,0.05,52.800000000000004,0)" xlink:href="#aH"/><use transform="matrix(0.05,0,0,0.05,62.800000000000004,0)" xlink:href="#aF"/><use transform="matrix(0.05,0,0,0.05,66.75,0)" xlink:href="#ay"/><use transform="matrix(0.05,0,0,0.05,71.75,0)" xlink:href="#aF"/><use transform="matrix(0.05,0,0,0.05,75.7,0)" xlink:href="#aw"/><use transform="matrix(0.05,0,0,0.05,85.7,0)" xlink:href="#ax"/><use transform="matrix(0.05,0,0,0.05,95.7,0)" xlink:href="#aI"/></g><path d="M100 10C77 47 50 87-15 72l7-35c37 9 51-18 65-41L20-190h51L89-44l73-146h53" id="aJ"/><path d="M166-52c-4 17 5 29 24 23l-3 27c-30 11-74 1-67-34C105-15 91 4 56 4 23 4 3-15 2-49c0-64 63-67 128-67 10-22 3-53-29-45-13 3-22 10-25 24l-46-5c5-64 156-77 153 0-1 33-11 60-17 90zM97-88c-44-9-64 57-19 57 31 0 42-28 47-57H97" id="aK"/><path d="M67-101c-8 29-7 73 27 71 23-2 32-16 39-37l48 9C170-19 141 4 91 4 36 4 7-28 12-86c6-75 61-124 140-103 26 7 40 29 43 59l-50 4c-1-20-9-34-29-34-35 0-41 29-49 59" id="aL"/><path d="M84-151c13-25 34-51 72-40l-8 41C67-170 71-64 56 0H6l36-190h47" id="aM"/><path d="M69 3c-96 0-34-126-28-193h49L65-57c6 42 62 18 71-6 14-38 17-86 28-127h50L178 0h-47c0-11 4-26 3-33-14 20-30 37-65 36" id="aN"/><path d="M132-28C118-9 101 4 69 4 30 4 10-23 10-62c0-70 24-129 92-132 31-1 47 14 56 35l19-102h49L179 0h-49zM62-69c0 22 7 39 29 39 45-2 54-45 57-90 2-27-10-40-33-40-44 0-53 48-53 91" id="aO"/><path d="M8 0l10-54h51L59 0H8" id="aP"/><path d="M255-194c90 0 29 129 24 194h-49l25-136c-7-39-53-14-60 9-12 38-18 85-28 127h-49l25-136c2-29-39-23-50-7C69-108 68-47 56 0H6l36-190h48c-1 10-6 24-4 32 12-20 27-36 57-36s46 15 50 41c14-21 29-41 62-41" id="aQ"/><path d="M114-194c63-2 87 48 72 110H63c-3 28 1 55 31 54 21-1 32-13 37-29l44 13C160-14 137 4 91 4 41 4 11-22 11-73c0-71 33-119 103-121zm30 77c14-47-50-61-67-22-3 6-6 13-8 22h75" id="aR"/><path d="M33 0v-38h34V0H33" id="aS"/><g id="j"><use transform="matrix(0.05,0,0,0.05,0,0)" xlink:href="#aJ"/><use transform="matrix(0.05,0,0,0.05,10,0)" xlink:href="#aK"/><use transform="matrix(0.05,0,0,0.05,20,0)" xlink:href="#aL"/><use transform="matrix(0.05,0,0,0.05,30,0)" xlink:href="#aM"/><use transform="matrix(0.05,0,0,0.05,37,0)" xlink:href="#aN"/><use transform="matrix(0.05,0,0,0.05,47.95,0)" xlink:href="#aO"/><use transform="matrix(0.05,0,0,0.05,58.900000000000006,0)" xlink:href="#aP"/><use transform="matrix(0.05,0,0,0.05,63.900000000000006,0)" xlink:href="#aQ"/><use transform="matrix(0.05,0,0,0.05,79.9,0)" xlink:href="#aR"/><use transform="matrix(0.05,0,0,0.05,89.9,0)" xlink:href="#aS"/></g><path d="M233-177c-1 41-23 64-60 70L243 0h-38l-65-103H63V0H30v-248c88 3 205-21 203 71zM63-129c60-2 137 13 137-47 0-61-80-42-137-45v92" id="aT"/><g id="k"><use transform="matrix(0.05,0,0,0.05,0,0)" xlink:href="#aD"/><use transform="matrix(0.05,0,0,0.05,5.95,0)" xlink:href="#aT"/><use transform="matrix(0.05,0,0,0.05,18.900000000000002,0)" xlink:href="#aw"/><use transform="matrix(0.05,0,0,0.05,28.900000000000002,0)" xlink:href="#aC"/><use transform="matrix(0.05,0,0,0.05,38.900000000000006,0)" xlink:href="#ay"/><use transform="matrix(0.05,0,0,0.05,43.900000000000006,0)" xlink:href="#az"/></g><path d="M54-142c48-35 137-8 131 61C196 18 31 33 14-55l32-4c7 23 22 37 52 37 35-1 51-22 54-58 4-55-73-65-99-34H22l8-134h141v27H59" id="aU"/><path d="M126-127c33 6 58 20 58 59 0 88-139 92-164 29-3-8-5-16-6-25l32-3c6 27 21 44 54 44 32 0 52-15 52-46 0-38-36-46-79-43v-28c39 1 72-4 72-42 0-27-17-43-46-43-28 0-47 15-49 41l-32-3c6-42 35-63 81-64 48-1 79 21 79 65 0 36-21 52-52 59" id="aV"/><g id="l"><use transform="matrix(0.05,0,0,0.05,0,0)" xlink:href="#aU"/><use transform="matrix(0.05,0,0,0.05,10,0)" xlink:href="#aV"/></g><path d="M197 0v-115H63V0H30v-248h33v105h134v-105h34V0h-34" id="aW"/><g id="m"><use transform="matrix(0.05,0,0,0.05,0,0)" xlink:href="#aW"/><use transform="matrix(0.05,0,0,0.05,12.950000000000001,0)" xlink:href="#aw"/><use transform="matrix(0.05,0,0,0.05,22.950000000000003,0)" xlink:href="#aG"/><use transform="matrix(0.05,0,0,0.05,31.950000000000003,0)" xlink:href="#ay"/><use transform="matrix(0.05,0,0,0.05,36.95,0)" xlink:href="#az"/><use transform="matrix(0.05,0,0,0.05,46.95,0)" xlink:href="#aA"/></g><path d="M209 0H11v-25l151-195H24v-28h176v25L50-27h159V0" id="aX"/><g id="n"><use transform="matrix(0.05,0,0,0.05,0,0)" xlink:href="#aX"/><use transform="matrix(0.05,0,0,0.05,10.950000000000001,0)" xlink:href="#aw"/><use transform="matrix(0.05,0,0,0.05,20.950000000000003,0)" xlink:href="#ax"/><use transform="matrix(0.05,0,0,0.05,30.950000000000003,0)" xlink:href="#az"/><use transform="matrix(0.05,0,0,0.05,40.95,0)" xlink:href="#aI"/></g><use transform="matrix(0.0493827160493827,0,0,0.0493827160493827,0,0)" xlink:href="#af" id="p"/><g id="q"><use transform="matrix(0.0493827160493827,0,0,0.0493827160493827,0,0)" xlink:href="#af"/><use transform="matrix(0.0493827160493827,0,0,0.0493827160493827,11.851851851851848,0)" xlink:href="#ag"/><use transform="matrix(0.0493827160493827,0,0,0.0493827160493827,15.753086419753082,0)" xlink:href="#ah"/><use transform="matrix(0.0493827160493827,0,0,0.0493827160493827,19.654320987654316,0)" xlink:href="#ai"/><use transform="matrix(0.0493827160493827,0,0,0.0493827160493827,29.530864197530853,0)" xlink:href="#aj"/></g><g id="r"><use transform="matrix(0.0493827160493827,0,0,0.0493827160493827,0,0)" xlink:href="#ao"/><use transform="matrix(0.0493827160493827,0,0,0.0493827160493827,8.888888888888886,0)" xlink:href="#ai"/><use transform="matrix(0.0493827160493827,0,0,0.0493827160493827,18.765432098765423,0)" xlink:href="#ap"/><use transform="matrix(0.0493827160493827,0,0,0.0493827160493827,27.654320987654305,0)" xlink:href="#aq"/><use transform="matrix(0.0493827160493827,0,0,0.0493827160493827,33.530864197530846,0)" xlink:href="#ar"/><use transform="matrix(0.0493827160493827,0,0,0.0493827160493827,43.40740740740738,0)" xlink:href="#as"/><use transform="matrix(0.0493827160493827,0,0,0.0493827160493827,53.28395061728392,0)" xlink:href="#an"/><use transform="matrix(0.0493827160493827,0,0,0.0493827160493827,58.22222222222219,0)" xlink:href="#at"/><use transform="matrix(0.0493827160493827,0,0,0.0493827160493827,72.98765432098762,0)" xlink:href="#ak"/></g><g id="s"><use transform="matrix(0.0493827160493827,0,0,0.0493827160493827,0,0)" xlink:href="#am"/><use transform="matrix(0.0493827160493827,0,0,0.0493827160493827,12.79012345679012,0)" xlink:href="#am"/><use transform="matrix(0.0493827160493827,0,0,0.0493827160493827,25.58024691358024,0)" xlink:href="#am"/><use transform="matrix(0.0493827160493827,0,0,0.0493827160493827,37.38271604938271,0)" xlink:href="#an"/><use transform="matrix(0.0493827160493827,0,0,0.0493827160493827,42.32098765432098,0)" xlink:href="#ao"/><use transform="matrix(0.0493827160493827,0,0,0.0493827160493827,51.20987654320987,0)" xlink:href="#ai"/><use transform="matrix(0.0493827160493827,0,0,0.0493827160493827,61.086419753086396,0)" xlink:href="#ap"/><use transform="matrix(0.0493827160493827,0,0,0.0493827160493827,69.97530864197529,0)" xlink:href="#aq"/><use transform="matrix(0.0493827160493827,0,0,0.0493827160493827,75.85185185185183,0)" xlink:href="#ar"/><use transform="matrix(0.0493827160493827,0,0,0.0493827160493827,85.72839506172838,0)" xlink:href="#as"/><use transform="matrix(0.0493827160493827,0,0,0.0493827160493827,95.60493827160492,0)" xlink:href="#an"/><use transform="matrix(0.0493827160493827,0,0,0.0493827160493827,100.54320987654319,0)" xlink:href="#at"/><use transform="matrix(0.0493827160493827,0,0,0.0493827160493827,115.30864197530863,0)" xlink:href="#ak"/></g><path fill="#3a414a" d="M199 0l-22-63H83L61 0H9l90-248h61L250 0h-51zm-33-102l-36-108c-10 38-24 72-36 108h72" id="aY"/><path fill="#3a414a" d="M67-125c0 53 21 87 73 88 37 1 54-22 65-47l45 17C233-25 199 4 140 4 58 4 20-42 15-125 8-235 124-281 211-232c18 10 29 29 36 50l-46 12c-8-25-30-41-62-41-52 0-71 34-72 86" id="aZ"/><path fill="#3a414a" d="M230 0l2-204L168 0h-37L68-204 70 0H24v-248h70l56 185 57-185h69V0h-46" id="ba"/><g id="t"><use transform="matrix(0.049382716049382706,0,0,0.049382716049382706,0,0)" xlink:href="#aY"/><use transform="matrix(0.049382716049382706,0,0,0.049382716049382706,12.790123456790122,0)" xlink:href="#aZ"/><use transform="matrix(0.049382716049382706,0,0,0.049382716049382706,25.580246913580243,0)" xlink:href="#ba"/></g><path fill="#3a414a" d="M121-226c-27-7-43 5-38 36h38v33H83V0H34v-157H6v-33h28c-9-59 32-81 87-68v32" id="bb"/><path fill="#3a414a" d="M190-63c-7 42-38 67-86 67-59 0-84-38-90-98-12-110 154-137 174-36l-49 2c-2-19-15-32-35-32-30 0-35 28-38 64-6 74 65 87 74 30" id="bc"/><path fill="#3a414a" d="M133-34C117-15 103 5 69 4 32 3 11-16 11-54c-1-60 55-63 116-61 1-26-3-47-28-47-18 1-26 9-28 27l-52-2c7-38 36-58 82-57s74 22 75 68l1 82c-1 14 12 18 25 15v27c-30 8-71 5-69-32zm-48 3c29 0 43-24 42-57-32 0-66-3-65 30 0 17 8 27 23 27" id="bd"/><g id="u"><use transform="matrix(0.049382716049382706,0,0,0.049382716049382706,0,0)" xlink:href="#aZ"/><use transform="matrix(0.049382716049382706,0,0,0.049382716049382706,12.790123456790122,0)" xlink:href="#Y"/><use transform="matrix(0.049382716049382706,0,0,0.049382716049382706,22.666666666666664,0)" xlink:href="#U"/><use transform="matrix(0.049382716049382706,0,0,0.049382716049382706,29.58024691358024,0)" xlink:href="#X"/><use transform="matrix(0.049382716049382706,0,0,0.049382716049382706,35.456790123456784,0)" xlink:href="#ae"/><use transform="matrix(0.049382716049382706,0,0,0.049382716049382706,40.395061728395056,0)" xlink:href="#bb"/><use transform="matrix(0.049382716049382706,0,0,0.049382716049382706,46.2716049382716,0)" xlink:href="#ae"/><use transform="matrix(0.049382716049382706,0,0,0.049382716049382706,51.20987654320988,0)" xlink:href="#bc"/><use transform="matrix(0.049382716049382706,0,0,0.049382716049382706,61.08641975308642,0)" xlink:href="#bd"/><use transform="matrix(0.049382716049382706,0,0,0.049382716049382706,70.96296296296296,0)" xlink:href="#X"/><use transform="matrix(0.049382716049382706,0,0,0.049382716049382706,76.8395061728395,0)" xlink:href="#Y"/></g><path fill="#3a414a" d="M80-196l47-18 7 23-49 13 32 44-20 13-27-46-27 45-21-12 33-44-49-13 8-23 47 19-2-53h23" id="be"/><g id="v"><use transform="matrix(0.049382716049382706,0,0,0.049382716049382706,0,0)" xlink:href="#be"/><use transform="matrix(0.049382716049382706,0,0,0.049382716049382706,6.913580246913579,0)" xlink:href="#an"/><use transform="matrix(0.049382716049382706,0,0,0.049382716049382706,11.85185185185185,0)" xlink:href="#ao"/><use transform="matrix(0.049382716049382706,0,0,0.049382716049382706,20.740740740740737,0)" xlink:href="#ai"/><use transform="matrix(0.049382716049382706,0,0,0.049382716049382706,30.617283950617278,0)" xlink:href="#ap"/><use transform="matrix(0.049382716049382706,0,0,0.049382716049382706,39.50617283950616,0)" xlink:href="#aq"/><use transform="matrix(0.049382716049382706,0,0,0.049382716049382706,45.38271604938271,0)" xlink:href="#ar"/><use transform="matrix(0.049382716049382706,0,0,0.049382716049382706,55.259259259259245,0)" xlink:href="#as"/><use transform="matrix(0.049382716049382706,0,0,0.049382716049382706,65.1358024691358,0)" xlink:href="#an"/><use transform="matrix(0.049382716049382706,0,0,0.049382716049382706,70.07407407407406,0)" xlink:href="#at"/><use transform="matrix(0.049382716049382706,0,0,0.049382716049382706,84.83950617283949,0)" xlink:href="#ak"/></g><g id="w"><use transform="matrix(0.049382716049382706,0,0,0.049382716049382706,0,0)" xlink:href="#ao"/><use transform="matrix(0.049382716049382706,0,0,0.049382716049382706,8.888888888888888,0)" xlink:href="#ai"/><use transform="matrix(0.049382716049382706,0,0,0.049382716049382706,18.76543209876543,0)" xlink:href="#ap"/><use transform="matrix(0.049382716049382706,0,0,0.049382716049382706,27.654320987654316,0)" xlink:href="#aq"/><use transform="matrix(0.049382716049382706,0,0,0.049382716049382706,33.53086419753086,0)" xlink:href="#ar"/><use transform="matrix(0.049382716049382706,0,0,0.049382716049382706,43.407407407407405,0)" xlink:href="#as"/><use transform="matrix(0.049382716049382706,0,0,0.049382716049382706,53.28395061728395,0)" xlink:href="#an"/><use transform="matrix(0.049382716049382706,0,0,0.049382716049382706,58.22222222222222,0)" xlink:href="#at"/><use transform="matrix(0.049382716049382706,0,0,0.049382716049382706,72.98765432098764,0)" xlink:href="#ak"/></g><path fill="#3a414a" d="M16-82v-28h88v28H16" id="bf"/><path fill="#3a414a" d="M59-47c-2 24 18 29 38 22v24C64 9 27 4 27-40v-127H5v-23h24l9-43h21v43h35v23H59v120" id="bg"/><path fill="#3a414a" d="M27 0v-27h64v-190l-56 39v-29l58-41h29v221h61V0H27" id="bh"/><g id="x"><use transform="matrix(0.049382716049382706,0,0,0.049382716049382706,0,0)" xlink:href="#ar"/><use transform="matrix(0.049382716049382706,0,0,0.049382716049382706,9.87654320987654,0)" xlink:href="#aj"/><use transform="matrix(0.049382716049382706,0,0,0.049382716049382706,18.76543209876543,0)" xlink:href="#bf"/><use transform="matrix(0.049382716049382706,0,0,0.049382716049382706,24.64197530864197,0)" xlink:href="#ak"/><use transform="matrix(0.049382716049382706,0,0,0.049382716049382706,34.51851851851851,0)" xlink:href="#ai"/><use transform="matrix(0.049382716049382706,0,0,0.049382716049382706,44.39506172839505,0)" xlink:href="#aj"/><use transform="matrix(0.049382716049382706,0,0,0.049382716049382706,53.28395061728394,0)" xlink:href="#bg"/><use transform="matrix(0.049382716049382706,0,0,0.049382716049382706,58.222222222222214,0)" xlink:href="#bf"/><use transform="matrix(0.049382716049382706,0,0,0.049382716049382706,64.09876543209874,0)" xlink:href="#bh"/></g><path fill="#3a414a" d="M115-194c55 1 70 41 70 98S169 2 115 4C84 4 66-9 55-30l1 105H24l-1-265h31l2 30c10-21 28-34 59-34zm-8 174c40 0 45-34 45-75s-6-73-45-74c-42 0-51 32-51 76 0 43 10 73 51 73" id="bi"/><g id="y"><use transform="matrix(0.0493827160493827,0,0,0.0493827160493827,0,0)" xlink:href="#ai"/><use transform="matrix(0.0493827160493827,0,0,0.0493827160493827,9.876543209876539,0)" xlink:href="#bi"/><use transform="matrix(0.0493827160493827,0,0,0.0493827160493827,19.753086419753078,0)" xlink:href="#ah"/><use transform="matrix(0.0493827160493827,0,0,0.0493827160493827,23.654320987654312,0)" xlink:href="#an"/><use transform="matrix(0.0493827160493827,0,0,0.0493827160493827,28.592592592592585,0)" xlink:href="#ao"/><path fill="#8080ff" d="M27.7 1.23h10.67v1.3H27.7z"/><use transform="matrix(0.0493827160493827,0,0,0.0493827160493827,37.48148148148147,0)" xlink:href="#ai"/><use transform="matrix(0.0493827160493827,0,0,0.0493827160493827,47.358024691358004,0)" xlink:href="#ap"/><use transform="matrix(0.0493827160493827,0,0,0.0493827160493827,56.2469135802469,0)" xlink:href="#aq"/><use transform="matrix(0.0493827160493827,0,0,0.0493827160493827,62.12345679012343,0)" xlink:href="#ar"/><use transform="matrix(0.0493827160493827,0,0,0.0493827160493827,71.99999999999997,0)" xlink:href="#as"/><use transform="matrix(0.0493827160493827,0,0,0.0493827160493827,81.87654320987652,0)" xlink:href="#an"/><path fill="#8080ff" d="M81 1.23h6.7v1.3H81z"/><use transform="matrix(0.0493827160493827,0,0,0.0493827160493827,86.81481481481478,0)" xlink:href="#at"/><path fill="#8080ff" d="M85.93 1.23h16.54v1.3H85.93z"/><use transform="matrix(0.0493827160493827,0,0,0.0493827160493827,101.58024691358021,0)" xlink:href="#ak"/></g><g id="z"><use transform="matrix(0.0493827160493827,0,0,0.0493827160493827,0,0)" xlink:href="#ao"/><use transform="matrix(0.0493827160493827,0,0,0.0493827160493827,8.888888888888886,0)" xlink:href="#ai"/><use transform="matrix(0.0493827160493827,0,0,0.0493827160493827,18.765432098765423,0)" xlink:href="#ap"/><use transform="matrix(0.0493827160493827,0,0,0.0493827160493827,27.654320987654305,0)" xlink:href="#aq"/><use transform="matrix(0.0493827160493827,0,0,0.0493827160493827,33.530864197530846,0)" xlink:href="#ar"/><use transform="matrix(0.0493827160493827,0,0,0.0493827160493827,43.40740740740738,0)" xlink:href="#as"/><use transform="matrix(0.0493827160493827,0,0,0.0493827160493827,53.28395061728392,0)" xlink:href="#an"/><use transform="matrix(0.0493827160493827,0,0,0.0493827160493827,58.22222222222219,0)" xlink:href="#at"/><use transform="matrix(0.0493827160493827,0,0,0.0493827160493827,72.98765432098762,0)" xlink:href="#ak"/></g><path fill="#3a414a" d="M50-231l6-30h32l-6 30H50zM6 0l37-190h31L37 0H6" id="bj"/><path fill="#3a414a" d="M67-158c22-48 132-52 116 29L158 0h-32l25-140c3-38-53-32-70-12C52-117 51-52 38 0H6l36-190h30" id="bk"/><path fill="#3a414a" d="M133-28C103 26-5 8 13-77c13-62 24-115 90-117 29-1 46 15 56 35l19-102h32L160 0h-30zM45-64c-2 27 10 43 35 43 54-1 69-50 69-103 0-29-15-46-42-46-53-1-58 58-62 106" id="bl"/><path fill="#3a414a" d="M111-194c62-3 86 47 72 106H45c-7 38 6 69 45 68 27-1 43-14 53-32l24 11C152-15 129 4 87 4 38 3 12-23 12-71c0-70 32-119 99-123zm44 81c14-66-71-72-95-28-4 8-8 17-11 28h106" id="bm"/><path fill="#3a414a" d="M124 0L87-78 21 0h-35l86-98-46-92h33l34 74 61-74h37l-83 92 50 98h-34" id="bn"/><path fill="#3a414a" d="M14 0l8-38h34L48 0H14" id="bo"/><path fill="#3a414a" d="M67-158c15-20 31-36 64-36 94 0 33 127 27 194h-32l25-140c3-38-53-32-70-12C52-117 51-51 37 0H6l51-261h31" id="bp"/><path fill="#3a414a" d="M51-54c-9 22 5 41 31 30L79-1C43 14 10-4 19-52l22-115H19l5-23h22l19-43h21l-9 43h35l-4 23H73" id="bq"/><path fill="#3a414a" d="M248-111c6-24 9-61-24-58-72 9-57 108-77 169h-31l26-142c3-37-50-30-64-10C52-115 50-51 37 0H6l36-190h30c-1 10-6 24-4 32 13-43 101-52 105 5 13-22 29-41 61-41 90 0 28 129 23 194h-31" id="br"/><path fill="#3a414a" d="M6 0l50-261h32L37 0H6" id="bs"/><g id="A"><use transform="matrix(0.0493827160493827,0,0,0.0493827160493827,0,0)" xlink:href="#bj"/><use transform="matrix(0.0493827160493827,0,0,0.0493827160493827,3.9012345679012332,0)" xlink:href="#bk"/><use transform="matrix(0.0493827160493827,0,0,0.0493827160493827,13.77777777777777,0)" xlink:href="#bl"/><use transform="matrix(0.0493827160493827,0,0,0.0493827160493827,23.65432098765431,0)" xlink:href="#bm"/><use transform="matrix(0.0493827160493827,0,0,0.0493827160493827,33.530864197530846,0)" xlink:href="#bn"/><use transform="matrix(0.0493827160493827,0,0,0.0493827160493827,42.41975308641973,0)" xlink:href="#bo"/><use transform="matrix(0.0493827160493827,0,0,0.0493827160493827,47.358024691358004,0)" xlink:href="#bp"/><use transform="matrix(0.0493827160493827,0,0,0.0493827160493827,57.234567901234534,0)" xlink:href="#bq"/><use transform="matrix(0.0493827160493827,0,0,0.0493827160493827,62.17283950617282,0)" xlink:href="#br"/><use transform="matrix(0.0493827160493827,0,0,0.0493827160493827,76.93827160493824,0)" xlink:href="#bs"/></g><path fill="#3a414a" d="M187 0l-14-72H61L19 0h-37l149-248h38L221 0h-34zm-19-99l-22-123L76-99h92" id="bt"/><path fill="#3a414a" d="M30-147c31-64 166-65 159 27C183-49 158 1 86 4 9 8 1-88 30-147zM88-20c53 0 68-48 68-100 0-31-11-51-44-50-52 1-68 46-68 97 0 32 13 53 44 53" id="bu"/><path fill="#3a414a" d="M188 0h-37l-8-164L71 0H34L18-190h31l8 164 75-164h34l8 164 74-164h31" id="bv"/><g id="B"><use transform="matrix(0.0493827160493827,0,0,0.0493827160493827,0,0)" xlink:href="#bt"/><use transform="matrix(0.0493827160493827,0,0,0.0493827160493827,11.851851851851848,0)" xlink:href="#bs"/><use transform="matrix(0.0493827160493827,0,0,0.0493827160493827,15.753086419753082,0)" xlink:href="#bs"/><use transform="matrix(0.0493827160493827,0,0,0.0493827160493827,19.654320987654316,0)" xlink:href="#bu"/><use transform="matrix(0.0493827160493827,0,0,0.0493827160493827,29.530864197530853,0)" xlink:href="#bv"/></g><path fill="#3a414a" d="M219-77C219 17 104-2 11 0l48-248c73 2 169-15 169 57 0 38-24 54-60 60 29 5 51 21 51 54zm-26-111c0-44-62-31-105-33l-16 79c55 0 121 9 121-46zm-7 110c-1-49-69-36-119-38L50-27c61-1 137 12 136-51" id="bw"/><path fill="#3a414a" d="M67 3c-93-2-31-127-26-193h32L48-50c-3 39 53 32 70 12 30-34 30-101 43-152h32L157 0h-30c1-10 6-24 4-33-14 20-29 37-64 36" id="bx"/><path fill="#3a414a" d="M44-68c0 29 11 47 38 47 30 0 42-19 51-41l28 9C148-21 126 4 82 4 31 4 10-29 12-85c3-77 74-140 146-93 12 8 15 23 18 40l-31 5c-1-22-13-36-36-36-52 0-65 49-65 101" id="by"/><path fill="#3a414a" d="M127 0L80-88 50-66 37 0H6l51-261h31L57-100l99-90h39l-93 82L161 0h-34" id="bz"/><path fill="#3a414a" d="M238-179c0 84-86 86-175 82L45 0H11l48-248c82 0 179-12 179 69zm-34 1c0-53-64-42-116-43l-19 98c63 0 135 9 135-55" id="bA"/><path fill="#3a414a" d="M198-190L69 30C53 58 25 83-20 72c4-11-1-27 19-22 33-1 43-29 59-52L20-190h32L79-34l84-156h35" id="bB"/><g id="C"><use transform="matrix(0.0493827160493827,0,0,0.0493827160493827,0,0)" xlink:href="#bw"/><use transform="matrix(0.0493827160493827,0,0,0.0493827160493827,11.851851851851848,0)" xlink:href="#bx"/><use transform="matrix(0.0493827160493827,0,0,0.0493827160493827,21.728395061728385,0)" xlink:href="#by"/><use transform="matrix(0.0493827160493827,0,0,0.0493827160493827,30.617283950617267,0)" xlink:href="#bz"/><use transform="matrix(0.0493827160493827,0,0,0.0493827160493827,39.506172839506156,0)" xlink:href="#bm"/><use transform="matrix(0.0493827160493827,0,0,0.0493827160493827,49.382716049382694,0)" xlink:href="#bq"/><use transform="matrix(0.0493827160493827,0,0,0.0493827160493827,54.320987654320966,0)" xlink:href="#bA"/><use transform="matrix(0.0493827160493827,0,0,0.0493827160493827,66.1728395061728,0)" xlink:href="#bu"/><use transform="matrix(0.0493827160493827,0,0,0.0493827160493827,76.04938271604935,0)" xlink:href="#bs"/><use transform="matrix(0.0493827160493827,0,0,0.0493827160493827,79.95061728395058,0)" xlink:href="#bj"/><use transform="matrix(0.0493827160493827,0,0,0.0493827160493827,83.8518518518518,0)" xlink:href="#by"/><use transform="matrix(0.0493827160493827,0,0,0.0493827160493827,92.74074074074069,0)" xlink:href="#bB"/></g><g id="D"><use transform="matrix(0.0493827160493827,0,0,0.0493827160493827,0,0)" xlink:href="#am"/><use transform="matrix(0.0493827160493827,0,0,0.0493827160493827,12.79012345679012,0)" xlink:href="#am"/><use transform="matrix(0.0493827160493827,0,0,0.0493827160493827,25.58024691358024,0)" xlink:href="#am"/><use transform="matrix(0.0493827160493827,0,0,0.0493827160493827,37.38271604938271,0)" xlink:href="#an"/><use transform="matrix(0.0493827160493827,0,0,0.0493827160493827,42.32098765432098,0)" xlink:href="#ao"/><use transform="matrix(0.0493827160493827,0,0,0.0493827160493827,51.20987654320987,0)" xlink:href="#ai"/><use transform="matrix(0.0493827160493827,0,0,0.0493827160493827,61.086419753086396,0)" xlink:href="#ap"/><use transform="matrix(0.0493827160493827,0,0,0.0493827160493827,69.97530864197529,0)" xlink:href="#aq"/><use transform="matrix(0.0493827160493827,0,0,0.0493827160493827,75.85185185185183,0)" xlink:href="#ar"/><use transform="matrix(0.0493827160493827,0,0,0.0493827160493827,85.72839506172838,0)" xlink:href="#as"/><use transform="matrix(0.0493827160493827,0,0,0.0493827160493827,95.60493827160492,0)" xlink:href="#an"/><use transform="matrix(0.0493827160493827,0,0,0.0493827160493827,100.54320987654319,0)" xlink:href="#at"/><use transform="matrix(0.0493827160493827,0,0,0.0493827160493827,115.30864197530863,0)" xlink:href="#ak"/></g><path fill="#3a414a" d="M66-151c12-25 30-51 66-40l-6 26C45-176 58-65 38 0H6l36-190h30" id="bC"/><path fill="#3a414a" d="M55-144c13 50 104 24 104 88C159 21 15 23 1-39l26-10c6 40 102 42 102-4-13-50-104-23-104-87 0-71 143-71 148-8l-29 4c-5-35-85-37-89 0" id="bD"/><g id="E"><use transform="matrix(0.0493827160493827,0,0,0.0493827160493827,0,0)" xlink:href="#bC"/><use transform="matrix(0.0493827160493827,0,0,0.0493827160493827,5.876543209876541,0)" xlink:href="#bm"/><use transform="matrix(0.0493827160493827,0,0,0.0493827160493827,15.753086419753082,0)" xlink:href="#bl"/><use transform="matrix(0.0493827160493827,0,0,0.0493827160493827,25.629629629629623,0)" xlink:href="#bj"/><use transform="matrix(0.0493827160493827,0,0,0.0493827160493827,29.530864197530853,0)" xlink:href="#bC"/><use transform="matrix(0.0493827160493827,0,0,0.0493827160493827,35.40740740740739,0)" xlink:href="#bm"/><use transform="matrix(0.0493827160493827,0,0,0.0493827160493827,45.28395061728393,0)" xlink:href="#by"/><use transform="matrix(0.0493827160493827,0,0,0.0493827160493827,54.17283950617281,0)" xlink:href="#bq"/><use transform="matrix(0.0493827160493827,0,0,0.0493827160493827,59.11111111111109,0)" xlink:href="#bD"/></g><path fill="#3a414a" d="M140-251c81 0 123 46 123 126C263-46 219 4 140 4 59 4 17-45 17-125s42-126 123-126zm0 227c63 0 89-41 89-101s-29-99-89-99c-61 0-89 39-89 99S79-25 140-24" id="bE"/><path fill="#3a414a" d="M177-190C167-65 218 103 67 71c-23-6-38-20-44-43l32-5c15 47 100 32 89-28v-30C133-14 115 1 83 1 29 1 15-40 15-95c0-56 16-97 71-98 29-1 48 16 59 35 1-10 0-23 2-32h30zM94-22c36 0 50-32 50-73 0-42-14-75-50-75-39 0-46 34-46 75s6 73 46 73" id="bF"/><path fill="#3a414a" d="M117-194c89-4 53 116 60 194h-32v-121c0-31-8-49-39-48C34-167 62-67 57 0H25l-1-190h30c1 10-1 24 2 32 11-22 29-35 61-36" id="bG"/><g id="F"><use transform="matrix(0.06172839506172839,0,0,0.06172839506172839,0,0)" xlink:href="#bE"/><use transform="matrix(0.06172839506172839,0,0,0.06172839506172839,17.28395061728395,0)" xlink:href="#aq"/><use transform="matrix(0.06172839506172839,0,0,0.06172839506172839,24.629629629629626,0)" xlink:href="#ah"/><use transform="matrix(0.06172839506172839,0,0,0.06172839506172839,29.50617283950617,0)" xlink:href="#bF"/><use transform="matrix(0.06172839506172839,0,0,0.06172839506172839,41.85185185185185,0)" xlink:href="#ah"/><use transform="matrix(0.06172839506172839,0,0,0.06172839506172839,46.72839506172839,0)" xlink:href="#bG"/></g><path fill="#16191f" d="M277-555c0 244 77 420 297 424 127 2 249-93 255-210h175C980-127 805 20 574 20 258 20 81-222 92-562c11-319 164-533 481-540 237-5 426 165 431 392H829c-7-133-115-242-256-240-209 4-296 166-296 395" id="bH"/><path fill="#16191f" d="M663-916c-163-27-288 18-338 148V0H140v-1082h180l3 125c61-97 147-145 258-145 36 0 63 5 82 14v172" id="bI"/><path fill="#16191f" d="M491 20c-241-1-355-148-355-398v-704h185v699c0 164 67 246 200 246 141 0 235-53 282-158v-787h185V0H812l-4-107C736-22 630 20 491 20" id="bJ"/><path fill="#16191f" d="M520 20C244 20 95-247 95-550c0-298 151-550 427-552 127 0 227 43 301 130v-564h185V0H838l-9-116C755-25 652 20 520 20zm48-965c-210 0-288 177-288 416 0 218 87 392 286 392 117 0 203-53 257-158v-497c-55-102-140-153-255-153" id="bK"/><path fill="#16191f" d="M258 11c-71 0-114-43-114-108 0-67 42-112 114-112s116 45 116 112c-1 65-45 108-116 108" id="bL"/><path fill="#16191f" d="M584 20C278 26 81-227 91-551c10-320 175-545 491-551 308-5 503 247 494 573-9 322-175 543-492 549zm-2-970c-208 0-305 185-305 421 0 216 106 398 307 398 211 0 307-186 307-420 0-214-109-399-309-399" id="bM"/><path fill="#16191f" d="M1240-945c-141 0-250 95-250 227V0H804v-709c0-157-77-236-231-236-121 0-204 52-249 155V0H139v-1082h175l5 120c79-93 186-140 321-140 151 0 254 58 309 174 69-98 181-174 345-174 237 0 362 126 362 377V0h-185v-714c-2-159-67-231-231-231" id="bN"/><path fill="#16191f" d="M538-131c121 0 232-49 232-156 0-50-20-88-56-117-73-60-334-92-420-143-92-55-162-110-162-238 0-190 192-317 400-317 223 0 414 129 413 338H759c0-108-110-186-227-186-119 0-215 53-215 159 0 45 18 78 53 101 76 52 331 90 416 139 98 57 169 115 169 251C955-92 760 20 538 20c-176 0-314-68-386-174-38-55-57-115-57-179h185c6 129 116 202 258 202" id="bO"/><path fill="#16191f" d="M832-402c-1-179-119-264-303-265H390v-151h139c164 0 281-91 281-250 0-171-85-256-255-256-154 0-265 99-263 250H107c-4-235 205-402 448-402 266 0 444 150 440 412-2 148-109 272-229 317 147 45 249 158 251 341 3 262-197 426-461 426C299 20 91-135 94-384h186c-2 156 116 253 276 253 176 0 277-96 276-271" id="bP"/><path fill="#16191f" d="M561-1102c238-4 403 126 403 351v498c0 99 13 178 38 237V0H808c-11-21-19-59-26-114C696-25 593 20 474 20c-199 0-368-130-365-320 4-251 214-359 490-356h180v-85c-1-135-86-212-229-212-115 0-232 67-233 171H131c20-205 206-316 430-320zM294-326c0 117 90 185 207 185 122 0 239-75 278-162v-222H634c-227 0-340 66-340 199" id="bQ"/><path fill="#16191f" d="M314-151h633V0H88v-136l597-793H97v-153h820v131" id="bR"/><path fill="#16191f" d="M589-945c-131 0-219 81-264 174V0H140v-1082h175l6 136c83-104 191-156 324-156 229 0 346 129 346 387V0H806v-716c-2-153-65-229-217-229" id="bS"/><path fill="#16191f" d="M1098-255l208-827h185L1176 0h-150L763-820 507 0H357L43-1082h184l213 810 252-810h149" id="bT"/><g id="G"><use transform="matrix(0.009114583333333334,0,0,0.009114583333333334,0,0)" xlink:href="#bH"/><use transform="matrix(0.009114583333333334,0,0,0.009114583333333334,9.770833333333334,0)" xlink:href="#bI"/><use transform="matrix(0.009114583333333334,0,0,0.009114583333333334,16.087239583333336,0)" xlink:href="#bJ"/><use transform="matrix(0.009114583333333334,0,0,0.009114583333333334,26.37760416666667,0)" xlink:href="#bK"/><use transform="matrix(0.009114583333333334,0,0,0.009114583333333334,36.90494791666667,0)" xlink:href="#bK"/><use transform="matrix(0.009114583333333334,0,0,0.009114583333333334,47.43229166666667,0)" xlink:href="#bJ"/><use transform="matrix(0.009114583333333334,0,0,0.009114583333333334,57.72265625000001,0)" xlink:href="#bI"/><use transform="matrix(0.009114583333333334,0,0,0.009114583333333334,62.91796875000001,0)" xlink:href="#bL"/><use transform="matrix(0.009114583333333334,0,0,0.009114583333333334,67.83072916666667,0)" xlink:href="#bH"/><use transform="matrix(0.009114583333333334,0,0,0.009114583333333334,77.6015625,0)" xlink:href="#bM"/><use transform="matrix(0.009114583333333334,0,0,0.009114583333333334,88.24739583333333,0)" xlink:href="#bN"/><use transform="matrix(0.009114583333333334,0,0,0.009114583333333334,104.60807291666666,0)" xlink:href="#bL"/><use transform="matrix(0.009114583333333334,0,0,0.009114583333333334,109.52083333333333,0)" xlink:href="#bO"/><use transform="matrix(0.009114583333333334,0,0,0.009114583333333334,119.14583333333333,0)" xlink:href="#bP"/><use transform="matrix(0.009114583333333334,0,0,0.009114583333333334,129.62760416666666,0)" xlink:href="#bL"/><use transform="matrix(0.009114583333333334,0,0,0.009114583333333334,134.54036458333331,0)" xlink:href="#bQ"/><use transform="matrix(0.009114583333333334,0,0,0.009114583333333334,144.69401041666666,0)" xlink:href="#bN"/><use transform="matrix(0.009114583333333334,0,0,0.009114583333333334,161.0546875,0)" xlink:href="#bQ"/><use transform="matrix(0.009114583333333334,0,0,0.009114583333333334,171.20833333333334,0)" xlink:href="#bR"/><use transform="matrix(0.009114583333333334,0,0,0.009114583333333334,180.31380208333334,0)" xlink:href="#bM"/><use transform="matrix(0.009114583333333334,0,0,0.009114583333333334,190.95963541666669,0)" xlink:href="#bS"/><use transform="matrix(0.009114583333333334,0,0,0.009114583333333334,201.25911458333334,0)" xlink:href="#bQ"/><use transform="matrix(0.009114583333333334,0,0,0.009114583333333334,211.41276041666669,0)" xlink:href="#bT"/><use transform="matrix(0.009114583333333334,0,0,0.009114583333333334,225.44010416666669,0)" xlink:href="#bO"/><use transform="matrix(0.009114583333333334,0,0,0.009114583333333334,235.06510416666669,0)" xlink:href="#bL"/><use transform="matrix(0.009114583333333334,0,0,0.009114583333333334,239.97786458333334,0)" xlink:href="#bH"/><use transform="matrix(0.009114583333333334,0,0,0.009114583333333334,249.74869791666669,0)" xlink:href="#bM"/><use transform="matrix(0.009114583333333334,0,0,0.009114583333333334,260.39453125,0)" xlink:href="#bN"/></g><path fill="#3a414a" d="M33 0v-248h34V0H33" id="bU"/><g id="I"><use transform="matrix(0.049382716049382706,0,0,0.049382716049382706,0,0)" xlink:href="#bE"/><use transform="matrix(0.049382716049382706,0,0,0.049382716049382706,13.827160493827158,0)" xlink:href="#af"/><use transform="matrix(0.049382716049382706,0,0,0.049382716049382706,25.679012345679006,0)" xlink:href="#bU"/></g><path fill="#3a414a" d="M160-131c35 5 61 23 61 61C221 17 115-2 30 0v-248c76 3 177-17 177 60 0 33-19 50-47 57zm-97-11c50-1 110 9 110-42 0-47-63-36-110-37v79zm0 115c55-2 124 14 124-45 0-56-70-42-124-44v89" id="bV"/><path fill="#3a414a" d="M143 0L79-87 56-68V0H24v-261h32v163l83-92h37l-77 82L181 0h-38" id="bW"/><path fill="#3a414a" d="M30-248c87 1 191-15 191 75 0 78-77 80-158 76V0H30v-248zm33 125c57 0 124 11 124-50 0-59-68-47-124-48v98" id="bX"/><path fill="#3a414a" d="M100-194c62-1 85 37 85 99 1 63-27 99-86 99S16-35 15-95c0-66 28-99 85-99zM99-20c44 1 53-31 53-75 0-43-8-75-51-75s-53 32-53 75 10 74 51 75" id="bY"/><g id="J"><use transform="matrix(0.06172839506172839,0,0,0.06172839506172839,0,0)" xlink:href="#bV"/><use transform="matrix(0.06172839506172839,0,0,0.06172839506172839,14.814814814814813,0)" xlink:href="#ar"/><use transform="matrix(0.06172839506172839,0,0,0.06172839506172839,27.160493827160494,0)" xlink:href="#ap"/><use transform="matrix(0.06172839506172839,0,0,0.06172839506172839,38.27160493827161,0)" xlink:href="#bW"/><use transform="matrix(0.06172839506172839,0,0,0.06172839506172839,49.38271604938272,0)" xlink:href="#ak"/><use transform="matrix(0.06172839506172839,0,0,0.06172839506172839,61.7283950617284,0)" xlink:href="#bg"/><use transform="matrix(0.06172839506172839,0,0,0.06172839506172839,67.90123456790124,0)" xlink:href="#bX"/><use transform="matrix(0.06172839506172839,0,0,0.06172839506172839,82.71604938271605,0)" xlink:href="#bY"/><use transform="matrix(0.06172839506172839,0,0,0.06172839506172839,95.06172839506173,0)" xlink:href="#ag"/><use transform="matrix(0.06172839506172839,0,0,0.06172839506172839,99.93827160493828,0)" xlink:href="#ah"/><use transform="matrix(0.06172839506172839,0,0,0.06172839506172839,104.81481481481482,0)" xlink:href="#ap"/><use transform="matrix(0.06172839506172839,0,0,0.06172839506172839,115.92592592592594,0)" xlink:href="#ao"/></g><path fill="#3a414a" d="M30 0v-248h33v221h125V0H30" id="bZ"/><g id="K"><use transform="matrix(0.06172839506172839,0,0,0.06172839506172839,0,0)" xlink:href="#af"/><use transform="matrix(0.06172839506172839,0,0,0.06172839506172839,14.814814814814813,0)" xlink:href="#bZ"/><use transform="matrix(0.06172839506172839,0,0,0.06172839506172839,27.160493827160494,0)" xlink:href="#bV"/></g><path fill="#3a414a" d="M9 0v-24l116-142H16v-24h144v24L44-24h123V0H9" id="ca"/><g id="L"><use transform="matrix(0.06172839506172839,0,0,0.06172839506172839,0,0)" xlink:href="#af"/><use transform="matrix(0.06172839506172839,0,0,0.06172839506172839,14.814814814814813,0)" xlink:href="#at"/><use transform="matrix(0.06172839506172839,0,0,0.06172839506172839,33.2716049382716,0)" xlink:href="#ai"/><use transform="matrix(0.06172839506172839,0,0,0.06172839506172839,45.61728395061728,0)" xlink:href="#ca"/><use transform="matrix(0.06172839506172839,0,0,0.06172839506172839,56.72839506172839,0)" xlink:href="#bY"/><use transform="matrix(0.06172839506172839,0,0,0.06172839506172839,69.07407407407408,0)" xlink:href="#bG"/></g><path fill="#3a414a" d="M212-179c-10-28-35-45-73-45-59 0-87 40-87 99 0 60 29 101 89 101 43 0 62-24 78-52l27 14C228-24 195 4 139 4 59 4 22-46 18-125c-6-104 99-153 187-111 19 9 31 26 39 46" id="cb"/><path fill="#3a414a" d="M63-220v92h138v28H63V0H30v-248h175v28H63" id="cc"/><g id="M"><use transform="matrix(0.06172839506172839,0,0,0.06172839506172839,0,0)" xlink:href="#cb"/><use transform="matrix(0.06172839506172839,0,0,0.06172839506172839,15.987654320987653,0)" xlink:href="#ag"/><use transform="matrix(0.06172839506172839,0,0,0.06172839506172839,20.864197530864196,0)" xlink:href="#bY"/><use transform="matrix(0.06172839506172839,0,0,0.06172839506172839,33.20987654320987,0)" xlink:href="#ar"/><use transform="matrix(0.06172839506172839,0,0,0.06172839506172839,45.55555555555555,0)" xlink:href="#as"/><use transform="matrix(0.06172839506172839,0,0,0.06172839506172839,57.90123456790123,0)" xlink:href="#cc"/><use transform="matrix(0.06172839506172839,0,0,0.06172839506172839,71.41975308641975,0)" xlink:href="#aq"/><use transform="matrix(0.06172839506172839,0,0,0.06172839506172839,78.76543209876543,0)" xlink:href="#bY"/><use transform="matrix(0.06172839506172839,0,0,0.06172839506172839,91.11111111111111,0)" xlink:href="#bG"/><use transform="matrix(0.06172839506172839,0,0,0.06172839506172839,103.4567901234568,0)" xlink:href="#bg"/></g></defs></g></svg>