<svg xmlns="http://www.w3.org/2000/svg" xmlns:xlink="http://www.w3.org/1999/xlink" xmlns:lucid="lucid" width="1860" height="760"><g transform="translate(20 100)" lucid:page-tab-id="0_0"><path d="M0-1258.84h1870.87v2581.68H0z" fill="#fff"/><path d="M312.34-41.36h1466.4V614.7H312.34z" stroke="#b0084d" fill="#fff"/><path d="M527.65 235.42a6 6 0 0 1 6-6h160a6 6 0 0 1 6 6v208.82a6 6 0 0 1-6 6h-160a6 6 0 0 1-6-6z" stroke="#3a414a" fill="#fff"/><use xlink:href="#a" transform="matrix(1,0,0,1,539.6542477505113,241.4238802724753) translate(0 10.666666666666664)"/><use xlink:href="#b" transform="matrix(1,0,0,1,539.6542477505113,241.4238802724753) translate(76.11111111111109 10.666666666666664)"/><path d="M312.34-41.36h66.4v61.6h-66.4zM435.03 261.18c.8 0 1.43.6 1.43 1.38v57.24c0 .78-.64 1.38-1.43 1.38H384.9c-.8 0-1.44-.6-1.44-1.38v-57.24c0-.78.64-1.38 1.43-1.38zm-48.7 57.24h47.27v-54.48h-47.28zm7.36-22.32c-.8 0-1.44-.6-1.44-1.32v-8.4c0-.72.63-1.32 1.43-1.32h8.73c.8 0 1.44.6 1.44 1.32v8.4c0 .72-.64 1.32-1.44 1.32zm0 16.74c-.8 0-1.44-.6-1.44-1.38v-8.34c0-.78.63-1.38 1.43-1.38h8.73c.8 0 1.44.6 1.44 1.38v8.34c0 .78-.64 1.38-1.44 1.38zm0-33.42c-.8 0-1.44-.6-1.44-1.38v-8.34c0-.78.63-1.38 1.43-1.38h8.73c.8 0 1.44.6 1.44 1.38v8.34c0 .78-.64 1.38-1.44 1.38zm13.77-2.4v-2.7h21.3v2.7zm0 16.74V291h21.3v2.76zm0 16.68v-2.7h21.3v2.7zm-12.35-33.72H401v-5.64h-5.88zm0 16.68H401v-5.64h-5.88zm0 16.68H401v-5.58h-5.88z" stroke="#000" stroke-opacity="0" fill="#b0084d"/><use xlink:href="#c" transform="matrix(1,0,0,1,353.4600387109633,330.1809691404445) translate(11.599999999999994 14.4)"/><path d="M329.18-19.3v-10h32.72v10zm1.5-1.5h29.72v-7h-29.7zM346.1-8.2v-9.98h15.8v9.97zm-16.92 0v-9.98h15.8v9.97zm11.06 11.1V-7.1h10.6V2.9zm11.7 0V-7.1h9.96V2.9zm-22.76 0V-7.1h9.95V2.9zM347.6-9.7h12.8v-7h-12.8zm-16.92 0h12.8v-7h-12.8zm11.06 11.1h7.6v-7h-7.6zm11.7 0h6.96v-7h-6.97zm-22.75 0h6.92v-7h-6.94z" stroke="#000" stroke-opacity="0" fill="#fff"/><path d="M329.2-29.3h32.72V2.9H329.2z" stroke="#000" stroke-opacity="0" fill="#4ff7b2" fill-opacity="0"/><path d="M376.13-23.3a6 6 0 0 1 6-6H574a6 6 0 0 1 6 6V-6a6 6 0 0 1-6 6H382.13a6 6 0 0 1-6-6z" stroke="#000" stroke-opacity="0" fill="#fff" fill-opacity="0"/><use xlink:href="#d" transform="matrix(1,0,0,1,381.1317901233074,-24.291632539228374) translate(5.981481481481495 19.02777777777778)"/><use xlink:href="#e" transform="matrix(1,0,0,1,381.1317901233074,-24.291632539228374) translate(80.7962962962963 19.02777777777778)"/><use xlink:href="#f" transform="matrix(1,0,0,1,381.1317901233074,-24.291632539228374) translate(132.46296296296296 19.02777777777778)"/><path d="M830.42 250.55c.8 0 1.43.6 1.43 1.38v57.24c0 .78-.64 1.38-1.43 1.38h-50.14c-.8 0-1.43-.6-1.43-1.38v-57.24c0-.78.63-1.38 1.43-1.38zm-48.7 57.24h47.27v-54.5h-47.3zm7.36-22.33c-.8 0-1.43-.6-1.43-1.32v-8.4c0-.72.63-1.32 1.43-1.32h8.74c.8 0 1.43.6 1.43 1.32v8.4c0 .72-.63 1.32-1.43 1.32zm0 16.74c-.8 0-1.43-.6-1.43-1.37v-8.34c0-.8.63-1.4 1.43-1.4h8.74c.8 0 1.43.6 1.43 1.4v8.33c0 .78-.63 1.38-1.43 1.38zm0-33.4c-.8 0-1.43-.6-1.43-1.4v-8.33c0-.78.63-1.38 1.43-1.38h8.74c.8 0 1.43.6 1.43 1.37v8.34c0 .8-.63 1.4-1.43 1.4zm13.78-2.4v-2.7h21.3v2.7zm0 16.73v-2.76h21.3v2.76zm0 16.68v-2.7h21.3v2.7zm-12.35-33.7h5.9v-5.65h-5.9zm0 16.67h5.9v-5.64h-5.9zm0 16.68h5.9v-5.58h-5.9z" stroke="#000" stroke-opacity="0" fill="#b0084d"/><use xlink:href="#g" transform="matrix(1,0,0,1,748.8484567900593,319.55305331994833) translate(28.074999999999996 14.4)"/><path d="M1290.43 353.6c.75 0 1.35.63 1.35 1.46v61.07c0 .83-.6 1.47-1.35 1.47h-47.5c-.75 0-1.36-.64-1.36-1.47v-61.07c0-.83.6-1.47 1.36-1.47zm-46.14 61.06h44.77v-58.13h-44.78zm6.96-23.82c-.75 0-1.35-.64-1.35-1.4v-8.97c0-.77.6-1.4 1.36-1.4h8.3c.74 0 1.34.63 1.34 1.4v8.96c0 .77-.6 1.4-1.35 1.4zm0 17.86c-.75 0-1.35-.64-1.35-1.47v-8.9c0-.83.6-1.47 1.36-1.47h8.3c.74 0 1.34.64 1.34 1.47v8.9c0 .83-.6 1.47-1.35 1.47zm0-35.65c-.75 0-1.35-.64-1.35-1.48v-8.9c0-.83.6-1.47 1.36-1.47h8.3c.74 0 1.34.64 1.34 1.48v8.9c0 .83-.6 1.47-1.35 1.47zm13.06-2.56v-2.9h20.18v2.9zm0 17.85v-2.95h20.18v2.95zm0 17.8v-2.9h20.18v2.9zm-11.7-35.98h5.57v-6.02h-5.58zm0 17.8h5.57v-6.03h-5.58zm0 17.8h5.57v-5.96h-5.58z" stroke="#000" stroke-opacity="0" fill="#b0084d"/><use xlink:href="#h" transform="matrix(1,0,0,1,1211.5734567900204,426.60236419284234) translate(25.549999999999997 14.4)"/><use xlink:href="#i" transform="matrix(1,0,0,1,1211.5734567900204,426.60236419284234) translate(14.549999999999997 36)"/><path d="M89.83 204.12H78c-.88 0-1.6-.7-1.6-1.6v-11.98c0-.88.72-1.6 1.6-1.6h11.83c.88 0 1.6.72 1.6 1.6v12c0 .87-.73 1.58-1.6 1.58zm-10.23-3.2h8.63v-8.77H79.6zM105.53 198.2c-4.62 0-8.4-3.72-8.4-8.34-.02-4.6 3.7-8.38 8.33-8.4 4.62 0 8.4 3.72 8.4 8.34v.03c.02 4.62-3.7 8.35-8.33 8.37zm0-13.54h-.03c-2.87 0-5.18 2.3-5.18 5.17 0 2.86 2.3 5.17 5.18 5.17 2.86 0 5.17-2.3 5.17-5.17 0-2.84-2.3-5.17-5.14-5.17zM88.3 183.16H73.37c-.6 0-1.1-.3-1.4-.82-.3-.5-.3-1.08 0-1.6l7.5-12.48c.45-.75 1.43-1 2.2-.53.2.14.4.3.52.53l7.5 12.48c.28.52.28 1.1 0 1.6-.3.5-.8.8-1.37.82zm-12.13-3.2h9.33l-4.67-7.77z" stroke="#fff" stroke-opacity="0" fill="#3f8624"/><path d="M93.8 213.1c-10.15 0-26.35-2.3-26.55-8.53L60 150.9c-.14-.9.4-1.74 1.3-1.94.87-.12 1.75.45 1.95 1.35.75 3.1 12.8 7.4 30.63 7.4 17.82 0 29.88-4.3 30.62-7.4.2-.9 1.1-1.46 1.97-1.34.88.2 1.42 1.03 1.3 1.93l-7.4 53.67c0 2.1-1.97 3.9-5.62 5.38-1.7.65-3.2 1.1-4.95 1.48-5.56 1.22-10.3 1.67-16 1.67zm-29.94-57.85l6.5 49.06v.2c0 1.93 9.15 5.45 23.38 5.45 5.42.07 9.96-.45 15.25-1.54 1.6-.37 2.97-.82 4.53-1.46 2.9-1.16 3.6-2.18 3.6-2.5v-.13l6.63-49c-6.17 3.67-18.64 5.66-30.02 5.66-11.38 0-23.7-2.06-29.88-5.7z" stroke="#fff" stroke-opacity="0" fill="#3f8624"/><path d="M93.8 160.87c-15.08 0-32.05-3.43-33.74-9.77V150.23v-.2c0-7.05 17.85-11.98 33.88-11.98s33.75 4.93 33.75 11.98v.2l-.07.67v.2c-1.7 6.34-18.67 9.77-33.82 9.77zm-30.63-10.5c1 3.08 12.98 7.3 30.64 7.3s29.63-4.22 30.65-7.3v-.43c-.14-3.1-12.8-8.7-30.64-8.7-17.85 0-30.43 5.6-30.7 8.7zM127.76 182.95c-7.58 0-24.23-7.52-34.64-12.63l1.4-2.88c14.37 7.06 31.3 13.62 34.2 12.37-.23-.44-1.3-1.88-6.4-4.65l-.23-.15 1.58-2.78.23.15c5.14 2.8 7.58 5 8 7.04.17.9-.07 1.73-.65 2.43-.97.9-2.17 1.28-3.5 1.12z" stroke="#fff" stroke-opacity="0" fill="#3f8624"/><path d="M93.82 172.38c-1.9 0-3.46-1.55-3.46-3.47 0-1.9 1.55-3.45 3.46-3.45 1.92 0 3.47 1.55 3.47 3.46-.02 1.93-1.56 3.47-3.48 3.48zm0-3.74c-.16 0-.3.12-.28.27 0 .32.55.32.55 0v-.02c0-.15-.13-.27-.28-.27z" stroke="#fff" stroke-opacity="0" fill="#3f8624"/><use xlink:href="#j" transform="matrix(1,0,0,1,30,222.09566168942885) translate(-11.839506172839492 17.77777777777778)"/><path d="M190.5 373.68l.07.88.2.84.33.8.45.73.56.66.67.55.73.45.8.33.84.2.88.07h99.44v1h-99.48l-1-.08-1-.24-.93-.4-.87-.52-.78-.66-.66-.78-.53-.87-.38-.94-.24-.98-.08-1v-55.06h1zm-5.48-198.53l1 .24.93.38.87.53.78.68.66.77.53.87.38.94.24 1 .08 1v115.77h-1V181.6l-.07-.9-.2-.83-.33-.8-.45-.73-.56-.66-.67-.56-.73-.45-.8-.33-.84-.2-.88-.07h-38.72v-1H184z" stroke="#3a414a" stroke-width=".05" fill="#3a414a"/><path d="M144.75 180.2l-14.26-4.63 14.25-4.63z" fill="#3a414a"/><path d="M145.25 180.9l-16.38-5.33 16.38-5.32zm-13.14-5.33l12.16 3.95v-7.9z" stroke="#3a414a" stroke-width=".05" fill="#3a414a"/><path d="M310.22 379.7l-14.26 4.63v-9.27z" fill="#3a414a"/><path d="M311.84 379.7l-16.38 5.32v-10.64zm-15.38 3.95l12.15-3.95-12.14-3.95z" stroke="#3a414a" stroke-width=".05" fill="#3a414a"/><use xlink:href="#k" transform="matrix(1,0,0,1,108.2469135802469,297.32564095960726) translate(0 14.222222222222223)"/><use xlink:href="#l" transform="matrix(1,0,0,1,108.2469135802469,297.32564095960726) translate(41.333333333333336 14.222222222222223)"/><use xlink:href="#m" transform="matrix(1,0,0,1,108.2469135802469,297.32564095960726) translate(118.17283950617286 14.222222222222223)"/><path d="M1577.34 484.04c.8 0 1.43.6 1.43 1.38v57.24c0 .78-.63 1.38-1.43 1.38h-50.14c-.8 0-1.43-.6-1.43-1.38v-57.24c0-.78.64-1.38 1.43-1.38zm-48.7 57.24h47.27V486.8h-47.27zm7.36-22.32c-.8 0-1.43-.6-1.43-1.32v-8.4c0-.72.64-1.32 1.43-1.32h8.75c.8 0 1.43.6 1.43 1.32v8.4c0 .72-.64 1.32-1.43 1.32zm0 16.74c-.8 0-1.43-.6-1.43-1.38v-8.34c0-.78.64-1.38 1.43-1.38h8.75c.8 0 1.43.6 1.43 1.38v8.34c0 .78-.64 1.38-1.43 1.38zm0-33.42c-.8 0-1.43-.6-1.43-1.38v-8.34c0-.78.64-1.38 1.43-1.38h8.75c.8 0 1.43.6 1.43 1.38v8.34c0 .78-.64 1.38-1.43 1.38zm13.78-2.4v-2.7h21.3v2.7zm0 16.74v-2.76h21.3v2.76zm0 16.68v-2.7h21.3v2.7zm-12.35-33.72h5.9v-5.64h-5.9zm0 16.68h5.9v-5.64h-5.9zm0 16.68h5.9v-5.58h-5.9z" stroke="#000" stroke-opacity="0" fill="#b0084d"/><use xlink:href="#n" transform="matrix(1,0,0,1,1495.7734567899975,553.0356975261759) translate(32.074999999999996 14.4)"/><path d="M536.93 276a6 6 0 0 1 6-6H682.1a6 6 0 0 1 6 6v9.1a6 6 0 0 1-6 6H542.94a6 6 0 0 1-6-6z" stroke="#3a414a" fill="#ffd9d9"/><use xlink:href="#o" transform="matrix(1,0,0,1,536.9317901233073,270.0030533199485) translate(58.467962962962964 13.416666666666664)"/><path d="M536.93 302.24a6 6 0 0 1 6-6h139.63a6 6 0 0 1 6 6v12.02a6 6 0 0 1-6 6H542.93a6 6 0 0 1-6-6z" stroke="#3a414a" fill="#fff"/><use xlink:href="#p" transform="matrix(1,0,0,1,536.9317901233073,296.235697526176) translate(36.07907407407409 15.354166666666664)"/><path d="M536.93 331.4a6 6 0 0 1 6-6h139.63a6 6 0 0 1 6 6v12.02a6 6 0 0 1-6 6H542.93a6 6 0 0 1-6-6z" stroke="#3a414a" fill="#fff"/><use xlink:href="#q" transform="matrix(1,0,0,1,536.9317901233073,325.39611100243945) translate(23.11611111111114 15.354166666666664)"/><path d="M536.93 358.36a6 6 0 0 1 6-6h139.63a6 6 0 0 1 6 6v12.02a6 6 0 0 1-6 6H542.93a6 6 0 0 1-6-6z" stroke="#3a414a" fill="#ffd9d9"/><use xlink:href="#r" transform="matrix(1,0,0,1,536.9317901233073,352.3553504103008) translate(27.89388888888892 15.354166666666664)"/><path d="M536.93 414.48a6 6 0 0 1 6-6h139.63a6 6 0 0 1 6 6v12.02a6 6 0 0 1-6 6H542.93a6 6 0 0 1-6-6z" stroke="#3a414a" fill="#fff"/><use xlink:href="#s" transform="matrix(1,0,0,1,536.9317901233073,408.4750032944257) translate(26.245740740740768 15.354166666666664)"/><path d="M689.1 280.55h73.37" stroke="#3a414a" fill="none"/><path d="M689.13 281.05h-.52v-1h.53z" stroke="#3a414a" stroke-width=".05" fill="#3a414a"/><path d="M777.23 280.55l-14.26 4.64v-9.28z" stroke="#3a414a" fill="#3a414a"/><path d="M436.96 291.18h73.8" stroke="#3a414a" fill="none"/><path d="M436.97 291.68h-.5v-1h.5z" stroke="#3a414a" stroke-width=".05" fill="#3a414a"/><path d="M525.54 291.18l-14.27 4.64v-9.27z" stroke="#3a414a" fill="#3a414a"/><path d="M537.84 385.63a6 6 0 0 1 6-6h139.63a6 6 0 0 1 6 6v12.03a6 6 0 0 1-6 6H543.84a6 6 0 0 1-6-6z" stroke="#3a414a" fill="#fff"/><use xlink:href="#t" transform="matrix(1,0,0,1,537.8417477504879,379.6331196803366) translate(25.301296296296325 15.354166666666664)"/><path d="M689.56 364.37h44.42a6 6 0 0 0 6-6v-77.32" stroke="#3a414a" fill="none"/><path d="M689.57 364.87h-.5v-1h.5z" stroke="#3a414a" stroke-width=".05" fill="#3a414a"/><path d="M739.98 281.07v-.52" stroke="#3a414a" fill="none"/><path d="M1290.35 224.7c.8 0 1.43.6 1.43 1.38v57.24c0 .78-.63 1.38-1.43 1.38h-50.14c-.78 0-1.42-.6-1.42-1.38v-57.24c0-.78.64-1.38 1.43-1.38zm-48.7 57.24h47.27v-54.48h-47.28zm7.36-22.32c-.78 0-1.42-.6-1.42-1.32v-8.4c0-.72.64-1.32 1.43-1.32h8.76c.8 0 1.43.6 1.43 1.32v8.4c0 .72-.65 1.32-1.44 1.32zm0 16.74c-.78 0-1.42-.6-1.42-1.38v-8.34c0-.78.64-1.38 1.43-1.38h8.76c.8 0 1.43.6 1.43 1.38v8.34c0 .78-.65 1.38-1.44 1.38zm0-33.42c-.78 0-1.42-.6-1.42-1.38v-8.34c0-.78.64-1.38 1.43-1.38h8.76c.8 0 1.43.6 1.43 1.38v8.34c0 .78-.65 1.38-1.44 1.38zm13.8-2.4v-2.7h21.3v2.7zm0 16.74v-2.76h21.3v2.76zm0 16.68v-2.7h21.3v2.7zm-12.36-33.72h5.88v-5.64h-5.88zm0 16.68h5.88v-5.64h-5.88zm0 16.68h5.88v-5.58h-5.88z" stroke="#000" stroke-opacity="0" fill="#b0084d"/><use xlink:href="#u" transform="matrix(1,0,0,1,1208.781790123354,293.7023641928428) translate(17.625 14.4)"/><use xlink:href="#v" transform="matrix(1,0,0,1,1208.781790123354,293.7023641928428) translate(45.575 14.4)"/><path d="M1690.73 284.7c.9 0 1.6.7 1.6 1.6v66.35c0 .9-.7 1.6-1.6 1.6h-56.55c-.9 0-1.62-.7-1.62-1.6V286.3c0-.9.72-1.6 1.62-1.6zm-54.94 66.35h53.3V287.9h-53.3zm8.3-25.87c-.9 0-1.6-.7-1.6-1.53v-9.74c0-.82.7-1.52 1.6-1.52h9.87c.9 0 1.6.7 1.6 1.53v9.75c0 .84-.7 1.53-1.6 1.53zm0 19.4c-.9 0-1.6-.7-1.6-1.6v-9.66c0-.9.7-1.6 1.6-1.6h9.87c.9 0 1.6.7 1.6 1.6V343c0 .9-.7 1.58-1.6 1.58zm0-38.73c-.9 0-1.6-.7-1.6-1.6v-9.67c0-.9.7-1.6 1.6-1.6h9.87c.9 0 1.6.7 1.6 1.6v9.67c0 .9-.7 1.6-1.6 1.6zm15.54-2.8v-3.12h24.03v3.13zm0 19.42v-3.2h24.03v3.2zm0 19.33v-3.13h24.03v3.13zm-13.92-39.08h6.63v-6.54h-6.63zm0 19.33h6.63v-6.54h-6.63zm0 19.34h6.63v-6.48h-6.63z" stroke="#000" stroke-opacity="0" fill="#b0084d"/><use xlink:href="#w" transform="matrix(1,0,0,1,1602.5651234566483,363.2523641928427) translate(14.125 14.4)"/><use xlink:href="#x" transform="matrix(1,0,0,1,1602.5651234566483,363.2523641928427) translate(55.025000000000006 14.4)"/><path d="M898.03 239.3a6 6 0 0 1 6-6h160a6 6 0 0 1 6 6v208.8a6 6 0 0 1-6 6h-160a6 6 0 0 1-6-6z" stroke="#3a414a" fill="#fff"/><use xlink:href="#y" transform="matrix(1,0,0,1,910.031790123354,245.29645556599206) translate(0 10.666666666666664)"/><use xlink:href="#b" transform="matrix(1,0,0,1,910.031790123354,245.29645556599206) translate(49.5185185185185 10.666666666666664)"/><path d="M908.44 268.75a6 6 0 0 1 6-6h139.18a6 6 0 0 1 6 6v9.1a6 6 0 0 1-6 6H914.44a6 6 0 0 1-6-6z" stroke="#3a414a" fill="#ffd9d9"/><use xlink:href="#o" transform="matrix(1,0,0,1,908.4412389422519,262.75236419284266) translate(58.467962962962964 13.416666666666664)"/><path d="M908.44 303.95a6 6 0 0 1 6-6h139.18a6 6 0 0 1 6 6v9.1a6 6 0 0 1-6 6H914.44a6 6 0 0 1-6-6z" stroke="#3a414a" fill="#ffd9d9"/><use xlink:href="#z" transform="matrix(1,0,0,1,908.4412389422516,297.9523641928428) translate(5.2272222222222755 13.416666666666664)"/><path d="M907.38 339.15a6 6 0 0 1 6-6h139.18a6 6 0 0 1 6 6v9.1a6 6 0 0 1-6 6H913.38a6 6 0 0 1-6-6z" stroke="#3a414a" fill="#ffd9d9"/><use xlink:href="#A" transform="matrix(1,0,0,1,907.3745722755851,333.152364192843) translate(14.819814814814842 13.416666666666664)"/><path d="M910.04 374.35a6 6 0 0 1 6-6h139.18a6 6 0 0 1 6 6v9.1a6 6 0 0 1-6 6H916.04a6 6 0 0 1-6-6z" stroke="#3a414a" fill="#fff"/><use xlink:href="#B" transform="matrix(1,0,0,1,910.0412389422517,368.35236419284314) translate(29.2827777777778 13.416666666666664)"/><path d="M907.38 406.08a6 6 0 0 1 6-6h139.18a6 6 0 0 1 6 6v9.1a6 6 0 0 1-6 6H913.38a6 6 0 0 1-6-6z" stroke="#3a414a" fill="#ffd9d9"/><use xlink:href="#C" transform="matrix(1,0,0,1,907.3745722755851,400.08166048909357) translate(29.986481481481494 13.416666666666664)"/><path d="M832.35 280.55h48.8" stroke="#3a414a" fill="none"/><path d="M832.36 281.05h-.5v-1h.5z" stroke="#3a414a" stroke-width=".05" fill="#3a414a"/><path d="M895.9 280.55l-14.25 4.64v-9.28z" stroke="#3a414a" fill="#3a414a"/><path d="M1060.62 273.3h14.5a6 6 0 0 0 6-6v-6.6a6 6 0 0 1 6-6h135.28" stroke="#3a414a" fill="none"/><path d="M1060.63 273.8h-.5v-1h.5z" stroke="#3a414a" stroke-width=".05" fill="#3a414a"/><path d="M1237.16 254.7l-14.26 4.64v-9.27z" stroke="#3a414a" fill="#3a414a"/><path d="M1060.62 273.3h14.5a6 6 0 0 1 6 6v5.32a6 6 0 0 0 6 6h57.73a6 6 0 0 1 6 6v69.76a6 6 0 0 0 6 6h68.34" stroke="#3a414a" fill="none"/><path d="M1060.63 273.8h-.5v-1h.5z" stroke="#3a414a" stroke-width=".05" fill="#3a414a"/><path d="M1239.95 372.38l-14.26 4.64v-9.27z" stroke="#3a414a" fill="#3a414a"/><path d="M1060.62 308.5h43.1a6 6 0 0 0 6-6v-25.55a6 6 0 0 1 6-6h106.68" stroke="#3a414a" fill="none"/><path d="M1060.63 309h-.5v-1h.5z" stroke="#3a414a" stroke-width=".05" fill="#3a414a"/><path d="M1237.16 270.95l-14.26 4.64v-9.28z" stroke="#3a414a" fill="#3a414a"/><path d="M1060.62 308.5h45.72a6 6 0 0 1 6 6v65.1a6 6 0 0 0 6 6h106.85" stroke="#3a414a" fill="none"/><path d="M1060.63 309h-.5v-1h.5z" stroke="#3a414a" stroke-width=".05" fill="#3a414a"/><path d="M1239.95 385.6l-14.26 4.63v-9.27z" stroke="#3a414a" fill="#3a414a"/><path d="M1059.56 343.7h18.38a6 6 0 0 1 6 6v42a6 6 0 0 0 6 6h135.25" stroke="#3a414a" fill="none"/><path d="M1059.57 344.2h-.5v-1h.5z" stroke="#3a414a" stroke-width=".05" fill="#3a414a"/><path d="M1239.95 397.7l-14.26 4.64v-9.27z" stroke="#3a414a" fill="#3a414a"/><path d="M1059.56 410.63h165.63" stroke="#3a414a" fill="none"/><path d="M1059.57 411.13h-.5v-1h.5z" stroke="#3a414a" stroke-width=".05" fill="#3a414a"/><path d="M1239.95 410.63l-14.26 4.64V406z" stroke="#3a414a" fill="#3a414a"/><path d="M698.03-9.38c.9 0 1.62.67 1.62 1.53v63.6c0 .87-.72 1.54-1.62 1.54h-56.76c-.9 0-1.62-.68-1.62-1.55v-63.6c0-.86.72-1.53 1.62-1.53zm-55.14 63.6h53.5V-6.3h-53.5zm8.33-24.8c-.9 0-1.62-.67-1.62-1.47v-9.33c0-.8.73-1.47 1.63-1.47h9.9c.9 0 1.62.67 1.62 1.47v9.33c0 .8-.72 1.47-1.62 1.47zm0 18.6c-.9 0-1.62-.67-1.62-1.53V37.2c0-.87.73-1.53 1.63-1.53h9.9c.9 0 1.62.65 1.62 1.52v9.27c0 .85-.72 1.52-1.62 1.52zm0-37.13c-.9 0-1.62-.68-1.62-1.55V.1c0-.88.73-1.55 1.63-1.55h9.9c.9 0 1.62.67 1.62 1.54v9.25c0 .87-.72 1.54-1.62 1.54zm15.6-2.68v-3h24.12v3zm0 18.6v-3.07h24.12v3.07zm0 18.53v-3h24.12v3zM652.85 7.9h6.66V1.6h-6.65zm0 18.52h6.66v-6.27h-6.65zm0 18.53h6.66v-6.2h-6.65z" stroke="#000" stroke-opacity="0" fill="#b0084d"/><use xlink:href="#D" transform="matrix(1,0,0,1,609.6542477505113,66.28569752617591) translate(13.575000000000003 14.4)"/><use xlink:href="#x" transform="matrix(1,0,0,1,609.6542477505113,66.28569752617591) translate(55.575 14.4)"/><path d="M1632.57 3.16h74.66v66.67h-74.66V3.16z" stroke="#000" stroke-opacity="0" fill="url(#E)"/><path d="M1686.85 43.83c.36.2.57.5.57.87v9.45c0 .37-.2.74-.62.92l-8.17 4.22c-.15.08-.36.13-.56.13-.2 0-.4-.05-.57-.14l-7.6-3.9-7.6 3.9c-.16.08-.36.13-.57.13-.2 0-.4-.05-.57-.14-.05 0-.05-.06-.05-.06l-8.2-4.8c-.37-.2-.57-.52-.57-.88v-8.8c0-.38.2-.74.57-.93l7.65-4.03v-7.62c0-.36.2-.68.56-.9l.07-.02 8.1-4.2c.37-.2.83-.2 1.2 0l8.1 4.16c.06 0 .06 0 .1.05.37.18.58.5.58.87v7.66l7.6 4.03zm8.73-8.7c0 5.72-4.4 7.83-7.03 8.6l-.72-2c2.46-.7 5.44-2.44 5.44-6.6 0-5.33-4.93-6.66-7.04-6.98-.6-.1-1.02-.65-.92-1.2-.2-2.38-1.43-4.08-3.33-4.58-1.54-.42-3.18.13-4.2 1.37-.27.32-.68.46-1.14.42-.4-.05-.77-.32-.93-.7-.72-1.87-1.8-3.43-3.13-4.67-1.7-1.48-6.27-4.74-12.74-2.26-3.7 1.42-6.63 5.5-6.63 9.3 0 .43 0 .88.05 1.3.1.5-.25 1-.82 1.1-2.2.5-5.9 2.06-5.9 6.8 0 .17.05.3.05.45.15 3 2.62 5.63 6.06 6.36l-.52 2.02c-4.4-.92-7.7-4.3-7.9-8.3v-.55c0-5.6 4.1-7.76 6.67-8.54-.06-.23-.06-.42-.06-.65 0-4.68 3.5-9.5 8.12-11.23 5.4-2.07 11.1-1.06 15.25 2.7 1.25 1.1 2.27 2.43 3.04 3.95 1.55-1.06 3.5-1.38 5.4-.92 2.67.73 4.47 2.9 4.93 5.87 4 .92 8 3.62 8 8.9zm-26.86 18.43v-7.02l-5.8 2.98v7.06zm8.16 2.98v-7.02l-5.8-2.98v7.02zm8.17-2.98v-7.02l-5.8 2.98v7.02zm-30.36-7.02V53l5.85 3.45v-6.93zm7.03 1.2l5.86-3.04-5.87-3.12-5.9 3.12zm16.34 0l5.85-3.04-5.85-3.07-5.86 3.07zm-8.17-18.59l-5.8 3.03 5.8 2.94 5.8-2.98zm6.98 10.65v-5.83l-5.8 2.98v5.96zm-8.16 3.07v-5.92l-5.8-2.98v5.83z" stroke="#000" stroke-opacity="0" fill="#fff"/><use xlink:href="#F" transform="matrix(1,0,0,1,1602.5651234566483,78.8273641928431) translate(25.074999999999996 14.4)"/><use xlink:href="#G" transform="matrix(1,0,0,1,1602.5651234566483,78.8273641928431) translate(10.625 36)"/><use xlink:href="#H" transform="matrix(1,0,0,1,1602.5651234566483,78.8273641928431) translate(74.575 36)"/><path d="M1369.67 358.57a6 6 0 0 1 6-6h160a6 6 0 0 1 6 6v61.6a6 6 0 0 1-6 6h-160a6 6 0 0 1-6-6z" stroke="#3a414a" fill="#fff"/><use xlink:href="#y" transform="matrix(1,0,0,1,1381.669290123331,364.5655469391179) translate(0 10.666666666666664)"/><use xlink:href="#b" transform="matrix(1,0,0,1,1381.669290123331,364.5655469391179) translate(49.5185185185185 10.666666666666664)"/><path d="M1380.08 393.38a6 6 0 0 1 6-6h139.18a6 6 0 0 1 6 6v9.1a6 6 0 0 1-6 6h-139.18a6 6 0 0 1-6-6z" stroke="#3a414a" fill="#ffd6f5"/><use xlink:href="#I" transform="matrix(1,0,0,1,1380.0787389422285,387.3750032944259) translate(35.579074074074086 13.416666666666664)"/><path d="M1292.28 385.6h60.5" stroke="#3a414a" fill="none"/><path d="M1292.3 386.1h-.52v-1h.52z" stroke="#3a414a" stroke-width=".05" fill="#3a414a"/><path d="M1367.55 385.6l-14.26 4.63v-9.27z" stroke="#3a414a" fill="#3a414a"/><path d="M907.38 430.17a6 6 0 0 1 6-6h139.18a6 6 0 0 1 6 6v9.1a6 6 0 0 1-6 6H913.38a6 6 0 0 1-6-6z" stroke="#3a414a" fill="#ffd9d9"/><use xlink:href="#J" transform="matrix(1,0,0,1,907.3745722755851,424.1690308595095) translate(36.70870370370371 13.416666666666664)"/><path d="M1455.67 409.48V509.7a6 6 0 0 0 6 6h47.72" stroke="#3a414a" fill="none"/><path d="M1456.17 409.5h-1v-.52h1z" stroke="#3a414a" stroke-width=".05" fill="#3a414a"/><path d="M1524.15 515.7l-14.26 4.64v-9.27z" stroke="#3a414a" fill="#3a414a"/><path d="M982.97 462.15v67.18a6 6 0 0 0 6 6h520.42" stroke="#3a414a" fill="none"/><path d="M982.97 447.4l4.63 14.25h-9.27zM1524.15 535.33l-14.26 4.63v-9.27z" stroke="#3a414a" fill="#3a414a"/><path d="M1229.67 50.62c1.2 0 2.14.87 2.14 2v83.42c0 1.14-.94 2-2.13 2h-74.72c-1.2 0-2.14-.86-2.14-2v-83.4c0-1.15.96-2.02 2.15-2.02zm-72.6 83.4h70.47V54.65h-70.46zm11-32.52c-1.2 0-2.14-.87-2.14-1.92V87.34c0-1.05.94-1.92 2.13-1.92h13.03c1.18 0 2.13.87 2.13 1.92v12.24c0 1.05-.95 1.92-2.14 1.92zm0 24.4c-1.2 0-2.14-.88-2.14-2v-12.17c0-1.13.94-2 2.13-2h13.03c1.18 0 2.13.87 2.13 2v12.16c0 1.12-.95 2-2.14 2zm0-48.7c-1.2 0-2.14-.88-2.14-2V63.02c0-1.13.94-2 2.13-2h13.03c1.18 0 2.13.87 2.13 2V75.2c0 1.12-.95 2-2.14 2zm20.53-3.5v-3.93h31.75v3.93zm0 24.4v-4.03h31.75v4.02zm0 24.3v-3.94h31.75v3.94zm-18.4-49.14h8.76v-8.22h-8.77zm0 24.3h8.76v-8.2h-8.77zm0 24.3l8.76.02v-8.14h-8.77z" stroke="#000" stroke-opacity="0" fill="#b0084d"/><use xlink:href="#K" transform="matrix(1,0,0,1,1122.8140079711611,147.05002935566094) translate(33.55 14.4)"/><use xlink:href="#L" transform="matrix(1,0,0,1,1122.8140079711611,147.05002935566094) translate(19.15 36)"/><path d="M1662.45 354.75v153.3a6 6 0 0 1-6 6h-61.3" stroke="#3a414a" fill="none"/><path d="M1662.95 354.76h-1v-.5h1z" stroke="#3a414a" stroke-width=".05" fill="#3a414a"/><path d="M1580.4 514.04l14.26-4.64v9.27z" stroke="#3a414a" fill="#3a414a"/><path d="M1632.07 36.5h-73.73a6 6 0 0 0-6 6v19.28a6 6 0 0 1-6 6H1248.2" stroke="#3a414a" fill="none"/><path d="M1632.57 37h-.52v-1h.52z" stroke="#3a414a" stroke-width=".05" fill="#3a414a"/><path d="M1233.42 67.78l14.27-4.63v9.27z" stroke="#3a414a" fill="#3a414a"/><path d="M700.15 23.95h486.16a6 6 0 0 1 6 6v4.3" stroke="#3a414a" fill="none"/><path d="M700.17 24.45h-.52v-1h.52z" stroke="#3a414a" stroke-width=".05" fill="#3a414a"/><path d="M1192.3 49l-4.63-14.27h9.28z" stroke="#3a414a" fill="#3a414a"/><path d="M1292.28 254.7h33.5a6 6 0 0 0 6-6V121.78a6 6 0 0 0-6-6h-77.6" stroke="#3a414a" fill="none"/><path d="M1292.3 255.2h-.52v-1h.52z" stroke="#3a414a" stroke-width=".05" fill="#3a414a"/><path d="M1233.42 115.78l14.27-4.63v9.27z" stroke="#3a414a" fill="#3a414a"/><path d="M1662.45 284.2v-88.68a6 6 0 0 0-6-6h-98.1a6 6 0 0 1-6-6v-83.2a6 6 0 0 0-6-5.98h-298.16" stroke="#3a414a" fill="none"/><path d="M1662.95 284.7h-1v-.5h1z" stroke="#3a414a" stroke-width=".05" fill="#3a414a"/><path d="M1233.42 94.33l14.27-4.63v9.27z" stroke="#3a414a" fill="#3a414a"/><path d="M909.04 378.9h-50.7a6 6 0 0 1-6-6V116.18a6 6 0 0 1 6-6h278.1" stroke="#3a414a" fill="none"/><path d="M909.54 379.4h-.5v-1h.5z" stroke="#3a414a" stroke-width=".05" fill="#3a414a"/><path d="M1151.2 110.18l-14.27 4.64v-9.27z" stroke="#3a414a" fill="#3a414a"/><path d="M0-74a6 6 0 0 1 6-6h1808a6 6 0 0 1 6 6v708a6 6 0 0 1-6 6H6a6 6 0 0 1-6-6z" stroke="#232f3e" fill="#fff" fill-opacity="0"/><path d="M0-80h56v56H0v-56z" stroke="#fff" stroke-opacity="0" fill="#232f3e"/><path d="M40.88-38.78h-25c-4.13.05-7.57-3.1-7.9-7.2v-.64c-.15-3.4 1.97-6.38 5.25-7.36v-.66c.12-4.22 2.44-7.75 6.24-9.57 4.13-1.86 8.73-.96 11.8 2.3 1.1 1.1 1.85 2.2 2.45 3.6 1.2-1 2.72-1.32 4.24-.9 2.24.8 3.68 2.74 3.76 5.1 3.68.65 6.32 3.8 6.28 7.56 0 7.07-7.04 7.73-7.12 7.76zm-26.7-13.88c-2.83.6-4.75 3.14-4.6 6.04v.53c.3 3.33 3.1 5.84 6.4 5.76h24.98c3.04-.3 5.4-2.64 5.68-5.7.28-3.43-2.24-6.5-5.68-6.78-.44-.05-.72-.45-.64-.87.08-1.83-1-3.44-2.72-4.13-1.32-.37-2.64.13-3.44 1.24-.2.25-.44.38-.76.33-.28-.05-.48-.24-.6-.5-.6-1.6-1.4-2.85-2.6-4.04-2.68-2.8-6.6-3.6-10.13-2-3.24 1.6-5.2 4.63-5.32 8.24-.04.4-.04.74 0 1.14.04.4-.2.76-.6.84z" stroke="#fff" stroke-opacity="0" fill="#fff"/><g><use xlink:href="#M" transform="matrix(1,0,0,1,71,-60) translate(0 17.77777777777778)"/><use xlink:href="#N" transform="matrix(1,0,0,1,71,-60) translate(55.92592592592592 17.77777777777778)"/></g><defs><path fill="#3a414a" d="M175 0L67-191c6 58 2 128 3 191H24v-248h59L193-55c-6-58-2-129-3-193h46V0h-61" id="O"/><path fill="#3a414a" d="M185-48c-13 30-37 53-82 52C43 2 14-33 14-96s30-98 90-98c62 0 83 45 84 108H66c0 31 8 55 39 56 18 0 30-7 34-22zm-45-69c5-46-57-63-70-21-2 6-4 13-4 21h74" id="P"/><path fill="#3a414a" d="M115-3C79 11 28 4 28-45v-112H4v-33h27l15-45h31v45h36v33H77v99c-1 23 16 31 38 25v30" id="Q"/><path fill="#3a414a" d="M231 0h-52l-39-155L100 0H48L-1-190h46L77-45c9-52 24-97 36-145h53l37 145 32-145h46" id="R"/><path fill="#3a414a" d="M110-194c64 0 96 36 96 99 0 64-35 99-97 99-61 0-95-36-95-99 0-62 34-99 96-99zm-1 164c35 0 45-28 45-65 0-40-10-65-43-65-34 0-45 26-45 65 0 36 10 65 43 65" id="S"/><path fill="#3a414a" d="M135-150c-39-12-60 13-60 57V0H25l-1-190h47c2 13-1 29 3 40 6-28 27-53 61-41v41" id="T"/><path fill="#3a414a" d="M147 0L96-86 75-71V0H25v-261h50v150l67-79h53l-66 74L201 0h-54" id="U"/><path fill="#3a414a" d="M25-224v-37h50v37H25zM25 0v-190h50V0H25" id="V"/><path fill="#3a414a" d="M135-194c87-1 58 113 63 194h-50c-7-57 23-157-34-157-59 0-34 97-39 157H25l-1-190h47c2 12-1 28 3 38 12-26 28-41 61-42" id="W"/><path fill="#3a414a" d="M195-6C206 82 75 100 31 46c-4-6-6-13-8-21l49-6c3 16 16 24 34 25 40 0 42-37 40-79-11 22-30 35-61 35-53 0-70-43-70-97 0-56 18-96 73-97 30 0 46 14 59 34l2-30h47zm-90-29c32 0 41-27 41-63 0-35-9-62-40-62-32 0-39 29-40 63 0 36 9 62 39 62" id="X"/><g id="a"><use transform="matrix(0.03703703703703702,0,0,0.03703703703703702,0,0)" xlink:href="#O"/><use transform="matrix(0.03703703703703702,0,0,0.03703703703703702,9.592592592592588,0)" xlink:href="#P"/><use transform="matrix(0.03703703703703702,0,0,0.03703703703703702,16.999999999999993,0)" xlink:href="#Q"/><use transform="matrix(0.03703703703703702,0,0,0.03703703703703702,21.407407407407398,0)" xlink:href="#R"/><use transform="matrix(0.03703703703703702,0,0,0.03703703703703702,31.777777777777764,0)" xlink:href="#S"/><use transform="matrix(0.03703703703703702,0,0,0.03703703703703702,39.88888888888887,0)" xlink:href="#T"/><use transform="matrix(0.03703703703703702,0,0,0.03703703703703702,45.074074074074055,0)" xlink:href="#U"/><use transform="matrix(0.03703703703703702,0,0,0.03703703703703702,52.48148148148146,0)" xlink:href="#V"/><use transform="matrix(0.03703703703703702,0,0,0.03703703703703702,56.18518518518516,0)" xlink:href="#W"/><use transform="matrix(0.03703703703703702,0,0,0.03703703703703702,64.29629629629628,0)" xlink:href="#X"/></g><path fill="#3a414a" d="M24 0v-248h195v40H76v63h132v40H76v65h150V0H24" id="Y"/><path fill="#3a414a" d="M144 0l-44-69L55 0H2l70-98-66-92h53l41 62 40-62h54l-67 91 71 99h-54" id="Z"/><path fill="#3a414a" d="M135-194c53 0 70 44 70 98 0 56-19 98-73 100-31 1-45-17-59-34 3 33 2 69 2 105H25l-1-265h48c2 10 0 23 3 31 11-24 29-35 60-35zM114-30c33 0 39-31 40-66 0-38-9-64-40-64-56 0-55 130 0 130" id="aa"/><path fill="#3a414a" d="M137-138c1-29-70-34-71-4 15 46 118 7 119 86 1 83-164 76-172 9l43-7c4 19 20 25 44 25 33 8 57-30 24-41C81-84 22-81 20-136c-2-80 154-74 161-7" id="ab"/><g id="b"><use transform="matrix(0.03703703703703702,0,0,0.03703703703703702,0,0)" xlink:href="#Y"/><use transform="matrix(0.03703703703703702,0,0,0.03703703703703702,8.888888888888886,0)" xlink:href="#Z"/><use transform="matrix(0.03703703703703702,0,0,0.03703703703703702,16.29629629629629,0)" xlink:href="#aa"/><use transform="matrix(0.03703703703703702,0,0,0.03703703703703702,24.407407407407398,0)" xlink:href="#S"/><use transform="matrix(0.03703703703703702,0,0,0.03703703703703702,32.518518518518505,0)" xlink:href="#T"/><use transform="matrix(0.03703703703703702,0,0,0.03703703703703702,37.70370370370369,0)" xlink:href="#Q"/><use transform="matrix(0.03703703703703702,0,0,0.03703703703703702,42.11111111111109,0)" xlink:href="#ab"/></g><path d="M190 0L58-211 59 0H30v-248h39L202-35l-2-213h31V0h-41" id="ac"/><path d="M100-194c63 0 86 42 84 106H49c0 40 14 67 53 68 26 1 43-12 49-29l28 8c-11 28-37 45-77 45C44 4 14-33 15-96c1-61 26-98 85-98zm52 81c6-60-76-77-97-28-3 7-6 17-6 28h103" id="ad"/><path d="M59-47c-2 24 18 29 38 22v24C64 9 27 4 27-40v-127H5v-23h24l9-43h21v43h35v23H59v120" id="ae"/><path d="M206 0h-36l-40-164L89 0H53L-1-190h32L70-26l43-164h34l41 164 42-164h31" id="af"/><path d="M100-194c62-1 85 37 85 99 1 63-27 99-86 99S16-35 15-95c0-66 28-99 85-99zM99-20c44 1 53-31 53-75 0-43-8-75-51-75s-53 32-53 75 10 74 51 75" id="ag"/><path d="M114-163C36-179 61-72 57 0H25l-1-190h30c1 12-1 29 2 39 6-27 23-49 58-41v29" id="ah"/><path d="M143 0L79-87 56-68V0H24v-261h32v163l83-92h37l-77 82L181 0h-38" id="ai"/><path d="M24-231v-30h32v30H24zM24 0v-190h32V0H24" id="aj"/><path d="M117-194c89-4 53 116 60 194h-32v-121c0-31-8-49-39-48C34-167 62-67 57 0H25l-1-190h30c1 10-1 24 2 32 11-22 29-35 61-36" id="ak"/><path d="M177-190C167-65 218 103 67 71c-23-6-38-20-44-43l32-5c15 47 100 32 89-28v-30C133-14 115 1 83 1 29 1 15-40 15-95c0-56 16-97 71-98 29-1 48 16 59 35 1-10 0-23 2-32h30zM94-22c36 0 50-32 50-73 0-42-14-75-50-75-39 0-46 34-46 75s6 73 46 73" id="al"/><g id="c"><use transform="matrix(0.05,0,0,0.05,0,0)" xlink:href="#ac"/><use transform="matrix(0.05,0,0,0.05,12.950000000000001,0)" xlink:href="#ad"/><use transform="matrix(0.05,0,0,0.05,22.950000000000003,0)" xlink:href="#ae"/><use transform="matrix(0.05,0,0,0.05,27.950000000000003,0)" xlink:href="#af"/><use transform="matrix(0.05,0,0,0.05,40.900000000000006,0)" xlink:href="#ag"/><use transform="matrix(0.05,0,0,0.05,50.900000000000006,0)" xlink:href="#ah"/><use transform="matrix(0.05,0,0,0.05,56.85,0)" xlink:href="#ai"/><use transform="matrix(0.05,0,0,0.05,65.85000000000001,0)" xlink:href="#aj"/><use transform="matrix(0.05,0,0,0.05,69.80000000000001,0)" xlink:href="#ak"/><use transform="matrix(0.05,0,0,0.05,79.80000000000001,0)" xlink:href="#al"/></g><path fill="#3a414a" d="M137-103V0h-34v-103L8-248h37l75 118 75-118h37" id="am"/><path fill="#3a414a" d="M141-36C126-15 110 5 73 4 37 3 15-17 15-53c-1-64 63-63 125-63 3-35-9-54-41-54-24 1-41 7-42 31l-33-3c5-37 33-52 76-52 45 0 72 20 72 64v82c-1 20 7 32 28 27v20c-31 9-61-2-59-35zM48-53c0 20 12 33 32 33 41-3 63-29 60-74-43 2-92-5-92 41" id="an"/><path fill="#3a414a" d="M96-169c-40 0-48 33-48 73s9 75 48 75c24 0 41-14 43-38l32 2c-6 37-31 61-74 61-59 0-76-41-82-99-10-93 101-131 147-64 4 7 5 14 7 22l-32 3c-4-21-16-35-41-35" id="ao"/><path fill="#3a414a" d="M114-163C36-179 61-72 57 0H25l-1-190h30c1 12-1 29 2 39 6-27 23-49 58-41v29" id="ap"/><path fill="#3a414a" d="M84 4C-5 8 30-112 23-190h32v120c0 31 7 50 39 49 72-2 45-101 50-169h31l1 190h-30c-1-10 1-25-2-33-11 22-28 36-60 37" id="aq"/><path fill="#3a414a" d="M85-194c31 0 48 13 60 33l-1-100h32l1 261h-30c-2-10 0-23-3-31C134-8 116 4 85 4 32 4 16-35 15-94c0-66 23-100 70-100zm9 24c-40 0-46 34-46 75 0 40 6 74 45 74 42 0 51-32 51-76 0-42-9-74-50-73" id="ar"/><g id="d"><use transform="matrix(0.06172839506172839,0,0,0.06172839506172839,0,0)" xlink:href="#am"/><use transform="matrix(0.06172839506172839,0,0,0.06172839506172839,13.148148148148147,0)" xlink:href="#an"/><use transform="matrix(0.06172839506172839,0,0,0.06172839506172839,25.493827160493826,0)" xlink:href="#ao"/><use transform="matrix(0.06172839506172839,0,0,0.06172839506172839,36.60493827160494,0)" xlink:href="#ap"/><use transform="matrix(0.06172839506172839,0,0,0.06172839506172839,43.95061728395061,0)" xlink:href="#aq"/><use transform="matrix(0.06172839506172839,0,0,0.06172839506172839,56.29629629629629,0)" xlink:href="#ar"/></g><path fill="#3a414a" d="M212-179c-10-28-35-45-73-45-59 0-87 40-87 99 0 60 29 101 89 101 43 0 62-24 78-52l27 14C228-24 195 4 139 4 59 4 22-46 18-125c-6-104 99-153 187-111 19 9 31 26 39 46" id="as"/><path fill="#3a414a" d="M63-220v92h138v28H63V0H30v-248h175v28H63" id="at"/><path fill="#3a414a" d="M190 0L58-211 59 0H30v-248h39L202-35l-2-213h31V0h-41" id="au"/><g id="e"><use transform="matrix(0.06172839506172839,0,0,0.06172839506172839,0,0)" xlink:href="#as"/><use transform="matrix(0.06172839506172839,0,0,0.06172839506172839,15.987654320987653,0)" xlink:href="#at"/><use transform="matrix(0.06172839506172839,0,0,0.06172839506172839,29.50617283950617,0)" xlink:href="#au"/></g><path fill="#3a414a" d="M185-189c-5-48-123-54-124 2 14 75 158 14 163 119 3 78-121 87-175 55-17-10-28-26-33-46l33-7c5 56 141 63 141-1 0-78-155-14-162-118-5-82 145-84 179-34 5 7 8 16 11 25" id="av"/><path fill="#3a414a" d="M59-47c-2 24 18 29 38 22v24C64 9 27 4 27-40v-127H5v-23h24l9-43h21v43h35v23H59v120" id="aw"/><path fill="#3a414a" d="M143 0L79-87 56-68V0H24v-261h32v163l83-92h37l-77 82L181 0h-38" id="ax"/><g id="f"><use transform="matrix(0.06172839506172839,0,0,0.06172839506172839,0,0)" xlink:href="#av"/><use transform="matrix(0.06172839506172839,0,0,0.06172839506172839,14.814814814814813,0)" xlink:href="#aw"/><use transform="matrix(0.06172839506172839,0,0,0.06172839506172839,20.98765432098765,0)" xlink:href="#an"/><use transform="matrix(0.06172839506172839,0,0,0.06172839506172839,33.33333333333333,0)" xlink:href="#ao"/><use transform="matrix(0.06172839506172839,0,0,0.06172839506172839,44.44444444444444,0)" xlink:href="#ax"/></g><path d="M212-179c-10-28-35-45-73-45-59 0-87 40-87 99 0 60 29 101 89 101 43 0 62-24 78-52l27 14C228-24 195 4 139 4 59 4 22-46 18-125c-6-104 99-153 187-111 19 9 31 26 39 46" id="ay"/><path d="M24 0v-261h32V0H24" id="az"/><path d="M84 4C-5 8 30-112 23-190h32v120c0 31 7 50 39 49 72-2 45-101 50-169h31l1 190h-30c-1-10 1-25-2-33-11 22-28 36-60 37" id="aA"/><path d="M135-143c-3-34-86-38-87 0 15 53 115 12 119 90S17 21 10-45l28-5c4 36 97 45 98 0-10-56-113-15-118-90-4-57 82-63 122-42 12 7 21 19 24 35" id="aB"/><g id="g"><use transform="matrix(0.05,0,0,0.05,0,0)" xlink:href="#ay"/><use transform="matrix(0.05,0,0,0.05,12.950000000000001,0)" xlink:href="#az"/><use transform="matrix(0.05,0,0,0.05,16.900000000000002,0)" xlink:href="#aA"/><use transform="matrix(0.05,0,0,0.05,26.900000000000002,0)" xlink:href="#aB"/><use transform="matrix(0.05,0,0,0.05,35.900000000000006,0)" xlink:href="#ae"/><use transform="matrix(0.05,0,0,0.05,40.900000000000006,0)" xlink:href="#ad"/><use transform="matrix(0.05,0,0,0.05,50.900000000000006,0)" xlink:href="#ah"/></g><path d="M185-189c-5-48-123-54-124 2 14 75 158 14 163 119 3 78-121 87-175 55-17-10-28-26-33-46l33-7c5 56 141 63 141-1 0-78-155-14-162-118-5-82 145-84 179-34 5 7 8 16 11 25" id="aC"/><path d="M108 0H70L1-190h34L89-25l56-165h34" id="aD"/><path d="M96-169c-40 0-48 33-48 73s9 75 48 75c24 0 41-14 43-38l32 2c-6 37-31 61-74 61-59 0-76-41-82-99-10-93 101-131 147-64 4 7 5 14 7 22l-32 3c-4-21-16-35-41-35" id="aE"/><g id="h"><use transform="matrix(0.05,0,0,0.05,0,0)" xlink:href="#aC"/><use transform="matrix(0.05,0,0,0.05,12,0)" xlink:href="#ad"/><use transform="matrix(0.05,0,0,0.05,22,0)" xlink:href="#ah"/><use transform="matrix(0.05,0,0,0.05,27.950000000000003,0)" xlink:href="#aD"/><use transform="matrix(0.05,0,0,0.05,36.95,0)" xlink:href="#aj"/><use transform="matrix(0.05,0,0,0.05,40.900000000000006,0)" xlink:href="#aE"/><use transform="matrix(0.05,0,0,0.05,49.900000000000006,0)" xlink:href="#ad"/></g><path d="M87 75C49 33 22-17 22-94c0-76 28-126 65-167h31c-38 41-64 92-64 168S80 34 118 75H87" id="aF"/><path d="M160-131c35 5 61 23 61 61C221 17 115-2 30 0v-248c76 3 177-17 177 60 0 33-19 50-47 57zm-97-11c50-1 110 9 110-42 0-47-63-36-110-37v79zm0 115c55-2 124 14 124-45 0-56-70-42-124-44v89" id="aG"/><path d="M141-36C126-15 110 5 73 4 37 3 15-17 15-53c-1-64 63-63 125-63 3-35-9-54-41-54-24 1-41 7-42 31l-33-3c5-37 33-52 76-52 45 0 72 20 72 64v82c-1 20 7 32 28 27v20c-31 9-61-2-59-35zM48-53c0 20 12 33 32 33 41-3 63-29 60-74-43 2-92-5-92 41" id="aH"/><path d="M85-194c31 0 48 13 60 33l-1-100h32l1 261h-30c-2-10 0-23-3-31C134-8 116 4 85 4 32 4 16-35 15-94c0-66 23-100 70-100zm9 24c-40 0-46 34-46 75 0 40 6 74 45 74 42 0 51-32 51-76 0-42-9-74-50-73" id="aI"/><path d="M33-261c38 41 65 92 65 168S71 34 33 75H2C39 34 66-17 66-93S39-220 2-261h31" id="aJ"/><g id="i"><use transform="matrix(0.05,0,0,0.05,0,0)" xlink:href="#aF"/><use transform="matrix(0.05,0,0,0.05,5.95,0)" xlink:href="#aG"/><use transform="matrix(0.05,0,0,0.05,17.95,0)" xlink:href="#aH"/><use transform="matrix(0.05,0,0,0.05,27.950000000000003,0)" xlink:href="#aE"/><use transform="matrix(0.05,0,0,0.05,36.95,0)" xlink:href="#ai"/><use transform="matrix(0.05,0,0,0.05,45.95,0)" xlink:href="#ad"/><use transform="matrix(0.05,0,0,0.05,55.95,0)" xlink:href="#ak"/><use transform="matrix(0.05,0,0,0.05,65.95,0)" xlink:href="#aI"/><use transform="matrix(0.05,0,0,0.05,75.95,0)" xlink:href="#aJ"/></g><path fill="#3a414a" d="M101-234c-31-9-42 10-38 44h38v23H63V0H32v-167H5v-23h27c-7-52 17-82 69-68v24" id="aK"/><path fill="#3a414a" d="M117-194c89-4 53 116 60 194h-32v-121c0-31-8-49-39-48C34-167 62-67 57 0H25l-1-190h30c1 10-1 24 2 32 11-22 29-35 61-36" id="aL"/><path fill="#3a414a" d="M16-82v-28h88v28H16" id="aM"/><path fill="#3a414a" d="M24-231v-30h32v30H24zM24 0v-190h32V0H24" id="aN"/><path fill="#3a414a" d="M135-143c-3-34-86-38-87 0 15 53 115 12 119 90S17 21 10-45l28-5c4 36 97 45 98 0-10-56-113-15-118-90-4-57 82-63 122-42 12 7 21 19 24 35" id="aO"/><path fill="#3a414a" d="M27 0v-27h64v-190l-56 39v-29l58-41h29v221h61V0H27" id="aP"/><g id="j"><use transform="matrix(0.06172839506172839,0,0,0.06172839506172839,0,0)" xlink:href="#ao"/><use transform="matrix(0.06172839506172839,0,0,0.06172839506172839,11.11111111111111,0)" xlink:href="#aK"/><use transform="matrix(0.06172839506172839,0,0,0.06172839506172839,17.28395061728395,0)" xlink:href="#aL"/><use transform="matrix(0.06172839506172839,0,0,0.06172839506172839,29.629629629629626,0)" xlink:href="#aM"/><use transform="matrix(0.06172839506172839,0,0,0.06172839506172839,36.9753086419753,0)" xlink:href="#an"/><use transform="matrix(0.06172839506172839,0,0,0.06172839506172839,49.32098765432098,0)" xlink:href="#ap"/><use transform="matrix(0.06172839506172839,0,0,0.06172839506172839,56.66666666666666,0)" xlink:href="#aw"/><use transform="matrix(0.06172839506172839,0,0,0.06172839506172839,62.8395061728395,0)" xlink:href="#aN"/><use transform="matrix(0.06172839506172839,0,0,0.06172839506172839,67.71604938271604,0)" xlink:href="#aK"/><use transform="matrix(0.06172839506172839,0,0,0.06172839506172839,73.88888888888887,0)" xlink:href="#an"/><use transform="matrix(0.06172839506172839,0,0,0.06172839506172839,86.23456790123456,0)" xlink:href="#ao"/><use transform="matrix(0.06172839506172839,0,0,0.06172839506172839,97.34567901234567,0)" xlink:href="#aw"/><use transform="matrix(0.06172839506172839,0,0,0.06172839506172839,103.5185185185185,0)" xlink:href="#aO"/><use transform="matrix(0.06172839506172839,0,0,0.06172839506172839,114.62962962962962,0)" xlink:href="#aM"/><use transform="matrix(0.06172839506172839,0,0,0.06172839506172839,121.9753086419753,0)" xlink:href="#aP"/><use transform="matrix(0.06172839506172839,0,0,0.06172839506172839,132.6543209876543,0)" xlink:href="#aP"/><use transform="matrix(0.06172839506172839,0,0,0.06172839506172839,143.33333333333331,0)" xlink:href="#aP"/></g><path fill="#333" d="M67-125c0 53 21 87 73 88 37 1 54-22 65-47l45 17C233-25 199 4 140 4 58 4 20-42 15-125 8-235 124-281 211-232c18 10 29 29 36 50l-46 12c-8-25-30-41-62-41-52 0-71 34-72 86" id="aQ"/><path fill="#333" d="M76-208v77h127v40H76V0H24v-248h183v40H76" id="aR"/><path fill="#333" d="M175 0L67-191c6 58 2 128 3 191H24v-248h59L193-55c-6-58-2-129-3-193h46V0h-61" id="aS"/><g id="k"><use transform="matrix(0.04938271604938272,0,0,0.04938271604938272,0,0)" xlink:href="#aQ"/><use transform="matrix(0.04938271604938272,0,0,0.04938271604938272,12.790123456790125,0)" xlink:href="#aR"/><use transform="matrix(0.04938271604938272,0,0,0.04938271604938272,23.60493827160494,0)" xlink:href="#aS"/></g><path fill="#333" d="M199 0l-22-63H83L61 0H9l90-248h61L250 0h-51zm-33-102l-36-108c-10 38-24 72-36 108h72" id="aT"/><path fill="#333" d="M135-150c-39-12-60 13-60 57V0H25l-1-190h47c2 13-1 29 3 40 6-28 27-53 61-41v41" id="aU"/><path fill="#333" d="M115-3C79 11 28 4 28-45v-112H4v-33h27l15-45h31v45h36v33H77v99c-1 23 16 31 38 25v30" id="aV"/><path fill="#333" d="M25-224v-37h50v37H25zM25 0v-190h50V0H25" id="aW"/><path fill="#333" d="M121-226c-27-7-43 5-38 36h38v33H83V0H34v-157H6v-33h28c-9-59 32-81 87-68v32" id="aX"/><path fill="#333" d="M133-34C117-15 103 5 69 4 32 3 11-16 11-54c-1-60 55-63 116-61 1-26-3-47-28-47-18 1-26 9-28 27l-52-2c7-38 36-58 82-57s74 22 75 68l1 82c-1 14 12 18 25 15v27c-30 8-71 5-69-32zm-48 3c29 0 43-24 42-57-32 0-66-3-65 30 0 17 8 27 23 27" id="aY"/><path fill="#333" d="M190-63c-7 42-38 67-86 67-59 0-84-38-90-98-12-110 154-137 174-36l-49 2c-2-19-15-32-35-32-30 0-35 28-38 64-6 74 65 87 74 30" id="aZ"/><path fill="#333" d="M137-138c1-29-70-34-71-4 15 46 118 7 119 86 1 83-164 76-172 9l43-7c4 19 20 25 44 25 33 8 57-30 24-41C81-84 22-81 20-136c-2-80 154-74 161-7" id="ba"/><g id="l"><use transform="matrix(0.04938271604938272,0,0,0.04938271604938272,0,0)" xlink:href="#aT"/><use transform="matrix(0.04938271604938272,0,0,0.04938271604938272,12.790123456790125,0)" xlink:href="#aU"/><use transform="matrix(0.04938271604938272,0,0,0.04938271604938272,19.703703703703706,0)" xlink:href="#aV"/><use transform="matrix(0.04938271604938272,0,0,0.04938271604938272,25.58024691358025,0)" xlink:href="#aW"/><use transform="matrix(0.04938271604938272,0,0,0.04938271604938272,30.518518518518523,0)" xlink:href="#aX"/><use transform="matrix(0.04938271604938272,0,0,0.04938271604938272,36.39506172839506,0)" xlink:href="#aY"/><use transform="matrix(0.04938271604938272,0,0,0.04938271604938272,46.27160493827161,0)" xlink:href="#aZ"/><use transform="matrix(0.04938271604938272,0,0,0.04938271604938272,56.14814814814815,0)" xlink:href="#aV"/><use transform="matrix(0.04938271604938272,0,0,0.04938271604938272,62.0246913580247,0)" xlink:href="#ba"/></g><path fill="#333" d="M169-182c-1-43-94-46-97-3 18 66 151 10 154 114 3 95-165 93-204 36-6-8-10-19-12-30l50-8c3 46 112 56 116 5-17-69-150-10-154-114-4-87 153-88 188-35 5 8 8 18 10 28" id="bb"/><path fill="#333" d="M110-194c64 0 96 36 96 99 0 64-35 99-97 99-61 0-95-36-95-99 0-62 34-99 96-99zm-1 164c35 0 45-28 45-65 0-40-10-65-43-65-34 0-45 26-45 65 0 36 10 65 43 65" id="bc"/><path fill="#333" d="M185-48c-13 30-37 53-82 52C43 2 14-33 14-96s30-98 90-98c62 0 83 45 84 108H66c0 31 8 55 39 56 18 0 30-7 34-22zm-45-69c5-46-57-63-70-21-2 6-4 13-4 21h74" id="bd"/><g id="m"><use transform="matrix(0.04938271604938272,0,0,0.04938271604938272,0,0)" xlink:href="#bb"/><use transform="matrix(0.04938271604938272,0,0,0.04938271604938272,11.851851851851853,0)" xlink:href="#aV"/><use transform="matrix(0.04938271604938272,0,0,0.04938271604938272,17.728395061728396,0)" xlink:href="#bc"/><use transform="matrix(0.04938271604938272,0,0,0.04938271604938272,28.543209876543205,0)" xlink:href="#aU"/><use transform="matrix(0.04938271604938272,0,0,0.04938271604938272,35.45679012345679,0)" xlink:href="#bd"/></g><path d="M33 0v-248h34V0H33" id="be"/><path d="M0 4l72-265h28L28 4H0" id="bf"/><path d="M30-248c118-7 216 8 213 122C240-48 200 0 122 0H30v-248zM63-27c89 8 146-16 146-99s-60-101-146-95v194" id="bg"/><g id="n"><use transform="matrix(0.05,0,0,0.05,0,0)" xlink:href="#ay"/><use transform="matrix(0.05,0,0,0.05,12.950000000000001,0)" xlink:href="#be"/><use transform="matrix(0.05,0,0,0.05,17.950000000000003,0)" xlink:href="#bf"/><use transform="matrix(0.05,0,0,0.05,22.950000000000003,0)" xlink:href="#ay"/><use transform="matrix(0.05,0,0,0.05,35.900000000000006,0)" xlink:href="#bg"/></g><path fill="#3a414a" d="M137 0h-34L2-248h35l83 218 83-218h36" id="bh"/><path fill="#3a414a" d="M115-194c55 1 70 41 70 98S169 2 115 4C84 4 66-9 55-30l1 105H24l-1-265h31l2 30c10-21 28-34 59-34zm-8 174c40 0 45-34 45-75s-6-73-45-74c-42 0-51 32-51 76 0 43 10 73 51 73" id="bi"/><path fill="#3a414a" d="M33 0v-248h34V0H33" id="bj"/><g id="o"><use transform="matrix(0.03703703703703702,0,0,0.03703703703703702,0,0)" xlink:href="#bh"/><use transform="matrix(0.03703703703703702,0,0,0.03703703703703702,8.888888888888886,0)" xlink:href="#bi"/><use transform="matrix(0.03703703703703702,0,0,0.03703703703703702,16.29629629629629,0)" xlink:href="#ao"/><use transform="matrix(0.03703703703703702,0,0,0.03703703703703702,22.962962962962955,0)" xlink:href="#bj"/><use transform="matrix(0.03703703703703702,0,0,0.03703703703703702,26.666666666666654,0)" xlink:href="#ar"/></g><path fill="#3a414a" d="M160-131c35 5 61 23 61 61C221 17 115-2 30 0v-248c76 3 177-17 177 60 0 33-19 50-47 57zm-97-11c50-1 110 9 110-42 0-47-63-36-110-37v79zm0 115c55-2 124 14 124-45 0-56-70-42-124-44v89" id="bk"/><path fill="#3a414a" d="M24 0v-261h32V0H24" id="bl"/><path fill="#3a414a" d="M100-194c62-1 85 37 85 99 1 63-27 99-86 99S16-35 15-95c0-66 28-99 85-99zM99-20c44 1 53-31 53-75 0-43-8-75-51-75s-53 32-53 75 10 74 51 75" id="bm"/><g id="p"><use transform="matrix(0.03703703703703702,0,0,0.03703703703703702,0,0)" xlink:href="#bh"/><use transform="matrix(0.03703703703703702,0,0,0.03703703703703702,8.888888888888886,0)" xlink:href="#bi"/><use transform="matrix(0.03703703703703702,0,0,0.03703703703703702,16.29629629629629,0)" xlink:href="#ao"/><use transform="matrix(0.03703703703703702,0,0,0.03703703703703702,22.962962962962955,0)" xlink:href="#as"/><use transform="matrix(0.03703703703703702,0,0,0.03703703703703702,32.55555555555554,0)" xlink:href="#aN"/><use transform="matrix(0.03703703703703702,0,0,0.03703703703703702,35.48148148148147,0)" xlink:href="#ar"/><use transform="matrix(0.03703703703703702,0,0,0.03703703703703702,42.88888888888887,0)" xlink:href="#ap"/><use transform="matrix(0.03703703703703702,0,0,0.03703703703703702,47.296296296296276,0)" xlink:href="#bk"/><use transform="matrix(0.03703703703703702,0,0,0.03703703703703702,56.18518518518516,0)" xlink:href="#bl"/><use transform="matrix(0.03703703703703702,0,0,0.03703703703703702,59.111111111111086,0)" xlink:href="#bm"/><use transform="matrix(0.03703703703703702,0,0,0.03703703703703702,66.51851851851849,0)" xlink:href="#ao"/><use transform="matrix(0.03703703703703702,0,0,0.03703703703703702,73.18518518518515,0)" xlink:href="#ax"/></g><path fill="#3a414a" d="M115-194c53 0 69 39 70 98 0 66-23 100-70 100C84 3 66-7 56-30L54 0H23l1-261h32v101c10-23 28-34 59-34zm-8 174c40 0 45-34 45-75 0-40-5-75-45-74-42 0-51 32-51 76 0 43 10 73 51 73" id="bn"/><path fill="#3a414a" d="M100-194c63 0 86 42 84 106H49c0 40 14 67 53 68 26 1 43-12 49-29l28 8c-11 28-37 45-77 45C44 4 14-33 15-96c1-61 26-98 85-98zm52 81c6-60-76-77-97-28-3 7-6 17-6 28h103" id="bo"/><g id="q"><use transform="matrix(0.03703703703703702,0,0,0.03703703703703702,0,0)" xlink:href="#av"/><use transform="matrix(0.03703703703703702,0,0,0.03703703703703702,8.888888888888886,0)" xlink:href="#aq"/><use transform="matrix(0.03703703703703702,0,0,0.03703703703703702,16.29629629629629,0)" xlink:href="#bn"/><use transform="matrix(0.03703703703703702,0,0,0.03703703703703702,23.703703703703695,0)" xlink:href="#aL"/><use transform="matrix(0.03703703703703702,0,0,0.03703703703703702,31.111111111111104,0)" xlink:href="#bo"/><use transform="matrix(0.03703703703703702,0,0,0.03703703703703702,38.518518518518505,0)" xlink:href="#aw"/><use transform="matrix(0.03703703703703702,0,0,0.03703703703703702,42.22222222222221,0)" xlink:href="#as"/><use transform="matrix(0.03703703703703702,0,0,0.03703703703703702,51.814814814814795,0)" xlink:href="#aN"/><use transform="matrix(0.03703703703703702,0,0,0.03703703703703702,54.74074074074072,0)" xlink:href="#ar"/><use transform="matrix(0.03703703703703702,0,0,0.03703703703703702,62.148148148148124,0)" xlink:href="#ap"/><use transform="matrix(0.03703703703703702,0,0,0.03703703703703702,66.55555555555553,0)" xlink:href="#bk"/><use transform="matrix(0.03703703703703702,0,0,0.03703703703703702,75.44444444444441,0)" xlink:href="#bl"/><use transform="matrix(0.03703703703703702,0,0,0.03703703703703702,78.37037037037034,0)" xlink:href="#bm"/><use transform="matrix(0.03703703703703702,0,0,0.03703703703703702,85.77777777777774,0)" xlink:href="#ao"/><use transform="matrix(0.03703703703703702,0,0,0.03703703703703702,92.4444444444444,0)" xlink:href="#ax"/><use transform="matrix(0.03703703703703702,0,0,0.03703703703703702,99.11111111111106,0)" xlink:href="#aO"/></g><path fill="#3a414a" d="M30-248c87 1 191-15 191 75 0 78-77 80-158 76V0H30v-248zm33 125c57 0 124 11 124-50 0-59-68-47-124-48v98" id="bp"/><g id="r"><use transform="matrix(0.03703703703703702,0,0,0.03703703703703702,0,0)" xlink:href="#bp"/><use transform="matrix(0.03703703703703702,0,0,0.03703703703703702,8.888888888888886,0)" xlink:href="#aq"/><use transform="matrix(0.03703703703703702,0,0,0.03703703703703702,16.29629629629629,0)" xlink:href="#bn"/><use transform="matrix(0.03703703703703702,0,0,0.03703703703703702,23.703703703703695,0)" xlink:href="#bl"/><use transform="matrix(0.03703703703703702,0,0,0.03703703703703702,26.62962962962962,0)" xlink:href="#aN"/><use transform="matrix(0.03703703703703702,0,0,0.03703703703703702,29.555555555555543,0)" xlink:href="#ao"/><use transform="matrix(0.03703703703703702,0,0,0.03703703703703702,36.22222222222221,0)" xlink:href="#av"/><use transform="matrix(0.03703703703703702,0,0,0.03703703703703702,45.11111111111109,0)" xlink:href="#aq"/><use transform="matrix(0.03703703703703702,0,0,0.03703703703703702,52.5185185185185,0)" xlink:href="#bn"/><use transform="matrix(0.03703703703703702,0,0,0.03703703703703702,59.9259259259259,0)" xlink:href="#aL"/><use transform="matrix(0.03703703703703702,0,0,0.03703703703703702,67.3333333333333,0)" xlink:href="#bo"/><use transform="matrix(0.03703703703703702,0,0,0.03703703703703702,74.7407407407407,0)" xlink:href="#aw"/><use transform="matrix(0.03703703703703702,0,0,0.03703703703703702,78.4444444444444,0)" xlink:href="#bj"/><use transform="matrix(0.03703703703703702,0,0,0.03703703703703702,82.1481481481481,0)" xlink:href="#ar"/><use transform="matrix(0.03703703703703702,0,0,0.03703703703703702,89.5555555555555,0)" xlink:href="#aO"/></g><path fill="#3a414a" d="M205 0l-28-72H64L36 0H1l101-248h38L239 0h-34zm-38-99l-47-123c-12 45-31 82-46 123h93" id="bq"/><path fill="#3a414a" d="M108 0H70L1-190h34L89-25l56-165h34" id="br"/><path fill="#3a414a" d="M179-190L93 31C79 59 56 82 12 73V49c39 6 53-20 64-50L1-190h34L92-34l54-156h33" id="bs"/><path fill="#3a414a" d="M209 0H11v-25l151-195H24v-28h176v25L50-27h159V0" id="bt"/><g id="s"><use transform="matrix(0.03703703703703702,0,0,0.03703703703703702,0,0)" xlink:href="#bq"/><use transform="matrix(0.03703703703703702,0,0,0.03703703703703702,8.629629629629626,0)" xlink:href="#br"/><use transform="matrix(0.03703703703703702,0,0,0.03703703703703702,15.29629629629629,0)" xlink:href="#an"/><use transform="matrix(0.03703703703703702,0,0,0.03703703703703702,22.703703703703695,0)" xlink:href="#aN"/><use transform="matrix(0.03703703703703702,0,0,0.03703703703703702,25.62962962962962,0)" xlink:href="#bl"/><use transform="matrix(0.03703703703703702,0,0,0.03703703703703702,28.555555555555543,0)" xlink:href="#an"/><use transform="matrix(0.03703703703703702,0,0,0.03703703703703702,35.96296296296295,0)" xlink:href="#bn"/><use transform="matrix(0.03703703703703702,0,0,0.03703703703703702,43.37037037037035,0)" xlink:href="#aN"/><use transform="matrix(0.03703703703703702,0,0,0.03703703703703702,46.296296296296276,0)" xlink:href="#bl"/><use transform="matrix(0.03703703703703702,0,0,0.03703703703703702,49.2222222222222,0)" xlink:href="#aN"/><use transform="matrix(0.03703703703703702,0,0,0.03703703703703702,52.148148148148124,0)" xlink:href="#aw"/><use transform="matrix(0.03703703703703702,0,0,0.03703703703703702,55.851851851851826,0)" xlink:href="#bs"/><use transform="matrix(0.03703703703703702,0,0,0.03703703703703702,62.51851851851849,0)" xlink:href="#bt"/><use transform="matrix(0.03703703703703702,0,0,0.03703703703703702,70.62962962962959,0)" xlink:href="#bm"/><use transform="matrix(0.03703703703703702,0,0,0.03703703703703702,78.03703703703701,0)" xlink:href="#aL"/><use transform="matrix(0.03703703703703702,0,0,0.03703703703703702,85.44444444444441,0)" xlink:href="#bo"/><use transform="matrix(0.03703703703703702,0,0,0.03703703703703702,92.8518518518518,0)" xlink:href="#aO"/></g><g id="t"><use transform="matrix(0.03703703703703702,0,0,0.03703703703703702,0,0)" xlink:href="#bp"/><use transform="matrix(0.03703703703703702,0,0,0.03703703703703702,8.888888888888886,0)" xlink:href="#ap"/><use transform="matrix(0.03703703703703702,0,0,0.03703703703703702,13.29629629629629,0)" xlink:href="#aN"/><use transform="matrix(0.03703703703703702,0,0,0.03703703703703702,16.222222222222214,0)" xlink:href="#br"/><use transform="matrix(0.03703703703703702,0,0,0.03703703703703702,22.88888888888888,0)" xlink:href="#an"/><use transform="matrix(0.03703703703703702,0,0,0.03703703703703702,30.296296296296283,0)" xlink:href="#aw"/><use transform="matrix(0.03703703703703702,0,0,0.03703703703703702,33.999999999999986,0)" xlink:href="#bo"/><use transform="matrix(0.03703703703703702,0,0,0.03703703703703702,41.40740740740739,0)" xlink:href="#av"/><use transform="matrix(0.03703703703703702,0,0,0.03703703703703702,50.296296296296276,0)" xlink:href="#aq"/><use transform="matrix(0.03703703703703702,0,0,0.03703703703703702,57.70370370370368,0)" xlink:href="#bn"/><use transform="matrix(0.03703703703703702,0,0,0.03703703703703702,65.11111111111109,0)" xlink:href="#aL"/><use transform="matrix(0.03703703703703702,0,0,0.03703703703703702,72.51851851851849,0)" xlink:href="#bo"/><use transform="matrix(0.03703703703703702,0,0,0.03703703703703702,79.9259259259259,0)" xlink:href="#aw"/><use transform="matrix(0.03703703703703702,0,0,0.03703703703703702,83.62962962962959,0)" xlink:href="#bj"/><use transform="matrix(0.03703703703703702,0,0,0.03703703703703702,87.33333333333329,0)" xlink:href="#ar"/><use transform="matrix(0.03703703703703702,0,0,0.03703703703703702,94.74074074074068,0)" xlink:href="#aO"/></g><path d="M115-194c53 0 69 39 70 98 0 66-23 100-70 100C84 3 66-7 56-30L54 0H23l1-261h32v101c10-23 28-34 59-34zm-8 174c40 0 45-34 45-75 0-40-5-75-45-74-42 0-51 32-51 76 0 43 10 73 51 73" id="bu"/><g id="u"><use transform="matrix(0.05,0,0,0.05,0,0)" xlink:href="#bg"/><use transform="matrix(0.05,0,0,0.05,12.950000000000001,0)" xlink:href="#bu"/></g><path d="M233-177c-1 41-23 64-60 70L243 0h-38l-65-103H63V0H30v-248c88 3 205-21 203 71zM63-129c60-2 137 13 137-47 0-61-80-42-137-45v92" id="bv"/><g id="v"><use transform="matrix(0.05,0,0,0.05,0,0)" xlink:href="#aF"/><use transform="matrix(0.05,0,0,0.05,5.95,0)" xlink:href="#bv"/><use transform="matrix(0.05,0,0,0.05,18.900000000000002,0)" xlink:href="#bg"/><use transform="matrix(0.05,0,0,0.05,31.85,0)" xlink:href="#aC"/><use transform="matrix(0.05,0,0,0.05,43.85,0)" xlink:href="#aJ"/></g><g id="w"><use transform="matrix(0.05,0,0,0.05,0,0)" xlink:href="#bg"/><use transform="matrix(0.05,0,0,0.05,12.950000000000001,0)" xlink:href="#bg"/><use transform="matrix(0.05,0,0,0.05,25.900000000000002,0)" xlink:href="#bu"/></g><path d="M205 0l-28-72H64L36 0H1l101-248h38L239 0h-34zm-38-99l-47-123c-12 45-31 82-46 123h93" id="bw"/><path d="M240 0l2-218c-23 76-54 145-80 218h-23L58-218 59 0H30v-248h44l77 211c21-75 51-140 76-211h43V0h-30" id="bx"/><g id="x"><use transform="matrix(0.05,0,0,0.05,0,0)" xlink:href="#aF"/><use transform="matrix(0.05,0,0,0.05,5.95,0)" xlink:href="#aC"/><use transform="matrix(0.05,0,0,0.05,17.95,0)" xlink:href="#bw"/><use transform="matrix(0.05,0,0,0.05,29.950000000000003,0)" xlink:href="#bx"/><use transform="matrix(0.05,0,0,0.05,44.9,0)" xlink:href="#aJ"/></g><path fill="#3a414a" d="M67-125c0 53 21 87 73 88 37 1 54-22 65-47l45 17C233-25 199 4 140 4 58 4 20-42 15-125 8-235 124-281 211-232c18 10 29 29 36 50l-46 12c-8-25-30-41-62-41-52 0-71 34-72 86" id="by"/><path fill="#3a414a" d="M25 0v-261h50V0H25" id="bz"/><path fill="#3a414a" d="M85 4C-2 5 27-109 22-190h50c7 57-23 150 33 157 60-5 35-97 40-157h50l1 190h-47c-2-12 1-28-3-38-12 25-28 42-61 42" id="bA"/><g id="y"><use transform="matrix(0.03703703703703702,0,0,0.03703703703703702,0,0)" xlink:href="#by"/><use transform="matrix(0.03703703703703702,0,0,0.03703703703703702,9.592592592592588,0)" xlink:href="#bz"/><use transform="matrix(0.03703703703703702,0,0,0.03703703703703702,13.29629629629629,0)" xlink:href="#bA"/><use transform="matrix(0.03703703703703702,0,0,0.03703703703703702,21.407407407407398,0)" xlink:href="#ab"/><use transform="matrix(0.03703703703703702,0,0,0.03703703703703702,28.814814814814802,0)" xlink:href="#Q"/><use transform="matrix(0.03703703703703702,0,0,0.03703703703703702,33.22222222222221,0)" xlink:href="#P"/><use transform="matrix(0.03703703703703702,0,0,0.03703703703703702,40.62962962962961,0)" xlink:href="#T"/></g><path fill="#3a414a" d="M143 4C61 4 22-44 18-125c-5-107 100-154 193-111 17 8 29 25 37 43l-32 9c-13-25-37-40-76-40-61 0-88 39-88 99 0 61 29 100 91 101 35 0 62-11 79-27v-45h-74v-28h105v86C228-13 192 4 143 4" id="bB"/><g id="z"><use transform="matrix(0.03703703703703702,0,0,0.03703703703703702,0,0)" xlink:href="#av"/><use transform="matrix(0.03703703703703702,0,0,0.03703703703703702,8.888888888888886,0)" xlink:href="#bo"/><use transform="matrix(0.03703703703703702,0,0,0.03703703703703702,16.29629629629629,0)" xlink:href="#ap"/><use transform="matrix(0.03703703703703702,0,0,0.03703703703703702,20.703703703703695,0)" xlink:href="#br"/><use transform="matrix(0.03703703703703702,0,0,0.03703703703703702,27.37037037037036,0)" xlink:href="#aN"/><use transform="matrix(0.03703703703703702,0,0,0.03703703703703702,30.296296296296283,0)" xlink:href="#ao"/><use transform="matrix(0.03703703703703702,0,0,0.03703703703703702,36.96296296296295,0)" xlink:href="#bo"/><use transform="matrix(0.03703703703703702,0,0,0.03703703703703702,44.37037037037035,0)" xlink:href="#av"/><use transform="matrix(0.03703703703703702,0,0,0.03703703703703702,53.25925925925924,0)" xlink:href="#bo"/><use transform="matrix(0.03703703703703702,0,0,0.03703703703703702,60.66666666666664,0)" xlink:href="#ao"/><use transform="matrix(0.03703703703703702,0,0,0.03703703703703702,67.3333333333333,0)" xlink:href="#aq"/><use transform="matrix(0.03703703703703702,0,0,0.03703703703703702,74.7407407407407,0)" xlink:href="#ap"/><use transform="matrix(0.03703703703703702,0,0,0.03703703703703702,79.14814814814811,0)" xlink:href="#aN"/><use transform="matrix(0.03703703703703702,0,0,0.03703703703703702,82.07407407407403,0)" xlink:href="#aw"/><use transform="matrix(0.03703703703703702,0,0,0.03703703703703702,85.77777777777773,0)" xlink:href="#bs"/><use transform="matrix(0.03703703703703702,0,0,0.03703703703703702,92.44444444444439,0)" xlink:href="#bB"/><use transform="matrix(0.03703703703703702,0,0,0.03703703703703702,102.81481481481475,0)" xlink:href="#ap"/><use transform="matrix(0.03703703703703702,0,0,0.03703703703703702,107.22222222222216,0)" xlink:href="#bm"/><use transform="matrix(0.03703703703703702,0,0,0.03703703703703702,114.62962962962956,0)" xlink:href="#aq"/><use transform="matrix(0.03703703703703702,0,0,0.03703703703703702,122.03703703703697,0)" xlink:href="#bi"/><use transform="matrix(0.03703703703703702,0,0,0.03703703703703702,129.44444444444437,0)" xlink:href="#bj"/><use transform="matrix(0.03703703703703702,0,0,0.03703703703703702,133.14814814814807,0)" xlink:href="#ar"/></g><path fill="#3a414a" d="M30 0v-248h33v221h125V0H30" id="bC"/><g id="A"><use transform="matrix(0.03703703703703702,0,0,0.03703703703703702,0,0)" xlink:href="#bq"/><use transform="matrix(0.03703703703703702,0,0,0.03703703703703702,8.888888888888886,0)" xlink:href="#bC"/><use transform="matrix(0.03703703703703702,0,0,0.03703703703703702,16.29629629629629,0)" xlink:href="#bk"/><use transform="matrix(0.03703703703703702,0,0,0.03703703703703702,25.185185185185173,0)" xlink:href="#av"/><use transform="matrix(0.03703703703703702,0,0,0.03703703703703702,34.07407407407406,0)" xlink:href="#bo"/><use transform="matrix(0.03703703703703702,0,0,0.03703703703703702,41.48148148148147,0)" xlink:href="#ao"/><use transform="matrix(0.03703703703703702,0,0,0.03703703703703702,48.148148148148124,0)" xlink:href="#aq"/><use transform="matrix(0.03703703703703702,0,0,0.03703703703703702,55.55555555555553,0)" xlink:href="#ap"/><use transform="matrix(0.03703703703703702,0,0,0.03703703703703702,59.96296296296294,0)" xlink:href="#aN"/><use transform="matrix(0.03703703703703702,0,0,0.03703703703703702,62.888888888888864,0)" xlink:href="#aw"/><use transform="matrix(0.03703703703703702,0,0,0.03703703703703702,66.59259259259257,0)" xlink:href="#bs"/><use transform="matrix(0.03703703703703702,0,0,0.03703703703703702,73.25925925925922,0)" xlink:href="#bB"/><use transform="matrix(0.03703703703703702,0,0,0.03703703703703702,83.62962962962959,0)" xlink:href="#ap"/><use transform="matrix(0.03703703703703702,0,0,0.03703703703703702,88.037037037037,0)" xlink:href="#bm"/><use transform="matrix(0.03703703703703702,0,0,0.03703703703703702,95.4444444444444,0)" xlink:href="#aq"/><use transform="matrix(0.03703703703703702,0,0,0.03703703703703702,102.8518518518518,0)" xlink:href="#bi"/><use transform="matrix(0.03703703703703702,0,0,0.03703703703703702,110.25925925925921,0)" xlink:href="#bj"/><use transform="matrix(0.03703703703703702,0,0,0.03703703703703702,113.96296296296289,0)" xlink:href="#ar"/></g><path fill="#3a414a" d="M127-220V0H93v-220H8v-28h204v28h-85" id="bD"/><g id="B"><use transform="matrix(0.03703703703703702,0,0,0.03703703703703702,0,0)" xlink:href="#at"/><use transform="matrix(0.03703703703703702,0,0,0.03703703703703702,8.111111111111107,0)" xlink:href="#ap"/><use transform="matrix(0.03703703703703702,0,0,0.03703703703703702,12.51851851851851,0)" xlink:href="#bm"/><use transform="matrix(0.03703703703703702,0,0,0.03703703703703702,19.925925925925917,0)" xlink:href="#aL"/><use transform="matrix(0.03703703703703702,0,0,0.03703703703703702,27.33333333333332,0)" xlink:href="#aw"/><use transform="matrix(0.03703703703703702,0,0,0.03703703703703702,31.037037037037024,0)" xlink:href="#bo"/><use transform="matrix(0.03703703703703702,0,0,0.03703703703703702,38.44444444444443,0)" xlink:href="#aL"/><use transform="matrix(0.03703703703703702,0,0,0.03703703703703702,45.85185185185183,0)" xlink:href="#ar"/><use transform="matrix(0.03703703703703702,0,0,0.03703703703703702,53.25925925925924,0)" xlink:href="#bD"/><use transform="matrix(0.03703703703703702,0,0,0.03703703703703702,61.370370370370345,0)" xlink:href="#bB"/><use transform="matrix(0.03703703703703702,0,0,0.03703703703703702,71.7407407407407,0)" xlink:href="#bq"/><use transform="matrix(0.03703703703703702,0,0,0.03703703703703702,80.62962962962959,0)" xlink:href="#ap"/><use transform="matrix(0.03703703703703702,0,0,0.03703703703703702,85.037037037037,0)" xlink:href="#aL"/></g><g id="C"><use transform="matrix(0.03703703703703702,0,0,0.03703703703703702,0,0)" xlink:href="#bk"/><use transform="matrix(0.03703703703703702,0,0,0.03703703703703702,8.888888888888886,0)" xlink:href="#an"/><use transform="matrix(0.03703703703703702,0,0,0.03703703703703702,16.29629629629629,0)" xlink:href="#ao"/><use transform="matrix(0.03703703703703702,0,0,0.03703703703703702,22.962962962962955,0)" xlink:href="#ax"/><use transform="matrix(0.03703703703703702,0,0,0.03703703703703702,29.629629629629623,0)" xlink:href="#bo"/><use transform="matrix(0.03703703703703702,0,0,0.03703703703703702,37.037037037037024,0)" xlink:href="#aL"/><use transform="matrix(0.03703703703703702,0,0,0.03703703703703702,44.44444444444443,0)" xlink:href="#ar"/><use transform="matrix(0.03703703703703702,0,0,0.03703703703703702,51.851851851851826,0)" xlink:href="#bD"/><use transform="matrix(0.03703703703703702,0,0,0.03703703703703702,59.96296296296294,0)" xlink:href="#bB"/><use transform="matrix(0.03703703703703702,0,0,0.03703703703703702,70.33333333333331,0)" xlink:href="#bq"/><use transform="matrix(0.03703703703703702,0,0,0.03703703703703702,79.2222222222222,0)" xlink:href="#ap"/><use transform="matrix(0.03703703703703702,0,0,0.03703703703703702,83.6296296296296,0)" xlink:href="#aL"/></g><path d="M106-169C34-169 62-67 57 0H25v-261h32l-1 103c12-21 28-36 61-36 89 0 53 116 60 194h-32v-121c2-32-8-49-39-48" id="bE"/><g id="D"><use transform="matrix(0.05,0,0,0.05,0,0)" xlink:href="#bw"/><use transform="matrix(0.05,0,0,0.05,12,0)" xlink:href="#aA"/><use transform="matrix(0.05,0,0,0.05,22,0)" xlink:href="#ae"/><use transform="matrix(0.05,0,0,0.05,27,0)" xlink:href="#bE"/></g><linearGradient gradientUnits="userSpaceOnUse" id="E" x1="1632.57" y1="69.83" x2="1707.23" y2="3.16"><stop offset="0%" stop-color="#2e27ad"/><stop offset="100%" stop-color="#527fff"/></linearGradient><g id="F"><use transform="matrix(0.05,0,0,0.05,0,0)" xlink:href="#aC"/><use transform="matrix(0.05,0,0,0.05,12,0)" xlink:href="#ad"/><use transform="matrix(0.05,0,0,0.05,22,0)" xlink:href="#ah"/><use transform="matrix(0.05,0,0,0.05,27.950000000000003,0)" xlink:href="#aD"/><use transform="matrix(0.05,0,0,0.05,36.95,0)" xlink:href="#ad"/><use transform="matrix(0.05,0,0,0.05,46.95,0)" xlink:href="#ah"/><use transform="matrix(0.05,0,0,0.05,52.900000000000006,0)" xlink:href="#az"/><use transform="matrix(0.05,0,0,0.05,56.85,0)" xlink:href="#ad"/><use transform="matrix(0.05,0,0,0.05,66.85000000000001,0)" xlink:href="#aB"/><use transform="matrix(0.05,0,0,0.05,75.85000000000001,0)" xlink:href="#aB"/></g><path d="M210-169c-67 3-38 105-44 169h-31v-121c0-29-5-50-35-48C34-165 62-65 56 0H25l-1-190h30c1 10-1 24 2 32 10-44 99-50 107 0 11-21 27-35 58-36 85-2 47 119 55 194h-31v-121c0-29-5-49-35-48" id="bF"/><g id="G"><use transform="matrix(0.05,0,0,0.05,0,0)" xlink:href="#be"/><use transform="matrix(0.05,0,0,0.05,5,0)" xlink:href="#bF"/><use transform="matrix(0.05,0,0,0.05,19.950000000000003,0)" xlink:href="#aH"/><use transform="matrix(0.05,0,0,0.05,29.950000000000003,0)" xlink:href="#al"/><use transform="matrix(0.05,0,0,0.05,39.95,0)" xlink:href="#ad"/><use transform="matrix(0.05,0,0,0.05,49.95,0)" xlink:href="#aB"/></g><path d="M194 0L95-120 63-95V0H30v-248h33v124l119-124h40L117-140 236 0h-42" id="bG"/><g id="H"><use transform="matrix(0.05,0,0,0.05,0,0)" xlink:href="#aF"/><use transform="matrix(0.05,0,0,0.05,5.95,0)" xlink:href="#ay"/><use transform="matrix(0.05,0,0,0.05,18.900000000000002,0)" xlink:href="#bg"/><use transform="matrix(0.05,0,0,0.05,31.85,0)" xlink:href="#bG"/><use transform="matrix(0.05,0,0,0.05,43.85,0)" xlink:href="#aJ"/></g><path fill="#3a414a" d="M210-169c-67 3-38 105-44 169h-31v-121c0-29-5-50-35-48C34-165 62-65 56 0H25l-1-190h30c1 10-1 24 2 32 10-44 99-50 107 0 11-21 27-35 58-36 85-2 47 119 55 194h-31v-121c0-29-5-49-35-48" id="bH"/><g id="I"><use transform="matrix(0.03703703703703702,0,0,0.03703703703703702,0,0)" xlink:href="#av"/><use transform="matrix(0.03703703703703702,0,0,0.03703703703703702,8.888888888888886,0)" xlink:href="#bo"/><use transform="matrix(0.03703703703703702,0,0,0.03703703703703702,16.29629629629629,0)" xlink:href="#ap"/><use transform="matrix(0.03703703703703702,0,0,0.03703703703703702,20.703703703703695,0)" xlink:href="#br"/><use transform="matrix(0.03703703703703702,0,0,0.03703703703703702,27.37037037037036,0)" xlink:href="#aN"/><use transform="matrix(0.03703703703703702,0,0,0.03703703703703702,30.296296296296283,0)" xlink:href="#ao"/><use transform="matrix(0.03703703703703702,0,0,0.03703703703703702,36.96296296296295,0)" xlink:href="#bo"/><use transform="matrix(0.03703703703703702,0,0,0.03703703703703702,44.37037037037035,0)" xlink:href="#au"/><use transform="matrix(0.03703703703703702,0,0,0.03703703703703702,53.96296296296294,0)" xlink:href="#an"/><use transform="matrix(0.03703703703703702,0,0,0.03703703703703702,61.370370370370345,0)" xlink:href="#bH"/><use transform="matrix(0.03703703703703702,0,0,0.03703703703703702,72.44444444444441,0)" xlink:href="#bo"/></g><g id="J"><use transform="matrix(0.03703703703703702,0,0,0.03703703703703702,0,0)" xlink:href="#as"/><use transform="matrix(0.03703703703703702,0,0,0.03703703703703702,9.592592592592588,0)" xlink:href="#bl"/><use transform="matrix(0.03703703703703702,0,0,0.03703703703703702,12.51851851851851,0)" xlink:href="#aq"/><use transform="matrix(0.03703703703703702,0,0,0.03703703703703702,19.925925925925917,0)" xlink:href="#aO"/><use transform="matrix(0.03703703703703702,0,0,0.03703703703703702,26.59259259259258,0)" xlink:href="#aw"/><use transform="matrix(0.03703703703703702,0,0,0.03703703703703702,30.296296296296283,0)" xlink:href="#bo"/><use transform="matrix(0.03703703703703702,0,0,0.03703703703703702,37.70370370370369,0)" xlink:href="#ap"/><use transform="matrix(0.03703703703703702,0,0,0.03703703703703702,42.11111111111109,0)" xlink:href="#au"/><use transform="matrix(0.03703703703703702,0,0,0.03703703703703702,51.70370370370368,0)" xlink:href="#an"/><use transform="matrix(0.03703703703703702,0,0,0.03703703703703702,59.111111111111086,0)" xlink:href="#bH"/><use transform="matrix(0.03703703703703702,0,0,0.03703703703703702,70.18518518518516,0)" xlink:href="#bo"/></g><path d="M63-220v92h138v28H63V0H30v-248h175v28H63" id="bI"/><g id="K"><use transform="matrix(0.05,0,0,0.05,0,0)" xlink:href="#bI"/><use transform="matrix(0.05,0,0,0.05,10.950000000000001,0)" xlink:href="#ah"/><use transform="matrix(0.05,0,0,0.05,16.900000000000002,0)" xlink:href="#ag"/><use transform="matrix(0.05,0,0,0.05,26.900000000000002,0)" xlink:href="#ak"/><use transform="matrix(0.05,0,0,0.05,36.900000000000006,0)" xlink:href="#ae"/><use transform="matrix(0.05,0,0,0.05,41.900000000000006,0)" xlink:href="#ad"/><use transform="matrix(0.05,0,0,0.05,51.900000000000006,0)" xlink:href="#ak"/><use transform="matrix(0.05,0,0,0.05,61.900000000000006,0)" xlink:href="#aI"/></g><g id="L"><use transform="matrix(0.05,0,0,0.05,0,0)" xlink:href="#aF"/><use transform="matrix(0.05,0,0,0.05,5.95,0)" xlink:href="#ay"/><use transform="matrix(0.05,0,0,0.05,18.900000000000002,0)" xlink:href="#az"/><use transform="matrix(0.05,0,0,0.05,22.85,0)" xlink:href="#ag"/><use transform="matrix(0.05,0,0,0.05,32.85,0)" xlink:href="#aA"/><use transform="matrix(0.05,0,0,0.05,42.85,0)" xlink:href="#aI"/><use transform="matrix(0.05,0,0,0.05,52.85,0)" xlink:href="#bI"/><use transform="matrix(0.05,0,0,0.05,63.800000000000004,0)" xlink:href="#ah"/><use transform="matrix(0.05,0,0,0.05,69.75,0)" xlink:href="#ag"/><use transform="matrix(0.05,0,0,0.05,79.75,0)" xlink:href="#ak"/><use transform="matrix(0.05,0,0,0.05,89.75,0)" xlink:href="#ae"/><use transform="matrix(0.05,0,0,0.05,94.75,0)" xlink:href="#aJ"/></g><path fill="#3a414a" d="M266 0h-40l-56-210L115 0H75L2-248h35L96-30l15-64 43-154h32l59 218 59-218h35" id="bJ"/><g id="M"><use transform="matrix(0.06172839506172839,0,0,0.06172839506172839,0,0)" xlink:href="#bq"/><use transform="matrix(0.06172839506172839,0,0,0.06172839506172839,14.012345679012345,0)" xlink:href="#bJ"/><use transform="matrix(0.06172839506172839,0,0,0.06172839506172839,34.938271604938265,0)" xlink:href="#av"/></g><g id="N"><use transform="matrix(0.06172839506172839,0,0,0.06172839506172839,0,0)" xlink:href="#as"/><use transform="matrix(0.06172839506172839,0,0,0.06172839506172839,15.987654320987653,0)" xlink:href="#bl"/><use transform="matrix(0.06172839506172839,0,0,0.06172839506172839,20.864197530864196,0)" xlink:href="#bm"/><use transform="matrix(0.06172839506172839,0,0,0.06172839506172839,33.20987654320987,0)" xlink:href="#aq"/><use transform="matrix(0.06172839506172839,0,0,0.06172839506172839,45.55555555555555,0)" xlink:href="#ar"/></g></defs></g></svg>