<svg xmlns="http://www.w3.org/2000/svg" xmlns:xlink="http://www.w3.org/1999/xlink" xmlns:lucid="lucid" width="1454.89" height="620"><g transform="translate(-640.5546296296898 30.799999999999955)" lucid:page-tab-id="0_0"><path d="M0-1258.84h3677.73v2581.68H0z" fill="#fff"/><path d="M660.55-10.8h1414.9v580H660.55z" stroke="#2e27ad" fill="#fff"/><path d="M837.48 301.88V265.9h106.2v35.98zm0 41.25v-35.81h106.2v35.8zm0 41.42v-35.98h106.2v35.98zm0 41.25v-35.82h106.2v35.82zm6.58-7.36h93.03v-21.26h-93.04zm0-41.25h93.03V355.9h-93.04zm0-82.68h93.03v-21.26h-93.04zm0 41.26h93.03V314.5h-93.04zm-43.5-33.9V265.9h32.05v35.98zm0 82.67v-35.98h32.05v35.98zm0-41.42v-35.81h32.05v35.8zm0 82.67v-35.82h32.05v35.82zm6.58-48.6h19.03V355.9h-19.03zm0 41.24h19.03v-21.26h-19.03zm0-123.92h19.03v-21.26h-19.03zm0 41.26h19.03V314.5h-19.03z" stroke="#000" stroke-opacity="0" fill="#2e27ad"/><path d="M804.18 270.1H940v152.23H804.18V270.1z" stroke="#000" stroke-opacity="0" fill-opacity="0"/><use xlink:href="#a" transform="matrix(1,0,0,1,770.5546296296898,434.79907620011636) translate(27.599999999999994 14.4)"/><use xlink:href="#b" transform="matrix(1,0,0,1,770.5546296296898,434.79907620011636) translate(26.174999999999983 36)"/><use xlink:href="#c" transform="matrix(1,0,0,1,770.5546296296898,434.79907620011636) translate(128.975 36)"/><path d="M1428.16 398.83h-.86l-31.34-8.65c-.86-.3-1.58-.88-2-1.6-.44-.74-.44-1.77-.3-2.5l18.6-70.8c.3-.88.73-1.6 1.6-2.05.7-.44 1.56-.6 2.42-.3l31.34 8.65c1.72.44 2.72 2.35 2.3 4.1l-18.6 70.8c-.15.74-.73 1.47-1.44 1.9-.58.3-1.15.45-1.72.45zm-85.44-6.3h-32.5c-1.85 0-3.28-1.47-3.28-3.37v-73.3c0-1.9 1.43-3.36 3.3-3.36h32.48c1.7 0 3.14 1.46 3.14 3.37v73.3c0 1.9-1.43 3.36-3.14 3.36zm42.22 0h-32.5c-1.85 0-3.28-1.47-3.28-3.37v-73.3c0-1.9 1.43-3.36 3.3-3.36h32.48c1.86 0 3.3 1.46 3.3 3.37v73.3c0 1.9-1.44 3.36-3.3 3.36zm-71.56-6.74h26.04v-66.56h-26.04zm42.36 0h25.9v-66.56h-25.9zm45.08-1.2l25.05 6.9 16.9-64.35-25.06-6.88zm-93.88-98.78v-6.6h142.97v6.6zm0 139.98v-6.6h142.97v6.6z" stroke="#000" stroke-opacity="0" fill="#2e27ad"/><path d="M1310.7 282.44h135.8v140.7h-135.8v-140.7z" stroke="#000" stroke-opacity="0" fill-opacity="0"/><use xlink:href="#d" transform="matrix(1,0,0,1,1276.9365730122154,434.79907620011636) translate(24.625 14.4)"/><use xlink:href="#e" transform="matrix(1,0,0,1,1276.9365730122154,434.79907620011636) translate(121.47500000000001 14.4)"/><path d="M1857.88 375.36h-17.38c-.87 0-1.68-.5-2.03-1.32l-24.34-52.18h-9.82c-1.2 0-2.26-1.02-2.26-2.26v-15.06c0-1.24 1.05-2.26 2.27-2.26H1826c.93 0 1.68.5 2.03 1.3l24.3 52.2h5.58c1.22 0 2.26 1.02 2.26 2.33v15c0 1.23-1.04 2.26-2.26 2.26zm-15.98-4.6h13.65v-10.38h-4.7c-.88 0-1.7-.5-2.04-1.32l-24.2-52.25h-17.97v10.46h8.95c.93 0 1.74.5 2.1 1.3z" stroke="#fff" stroke-opacity="0" fill="#d86613"/><path d="M1810.73 375.36h-18.55c-1.23 0-2.26-1.04-2.26-2.3 0-.37.07-.64.23-.95l19.4-40.6c.4-.82 1.15-1.32 2.05-1.32.9 0 1.66.46 2.06 1.27l9.28 19.2c.3.63.3 1.3 0 1.94l-10.14 21.45c-.4.8-1.17 1.3-2.07 1.3zm-14.9-4.56h13.44l9.14-19.16-6.84-13.9z" stroke="#fff" stroke-opacity="0" fill="#d86613"/><path d="M1825.75 396.78c-29.63 0-53.67-24.04-53.67-53.67 0-29.62 24.04-53.66 53.67-53.66 29.62 0 53.67 24.05 53.67 53.67 0 29.64-24.05 53.68-53.67 53.68zm0-102.72c-27.16 0-49.06 21.9-49.06 49.05 0 27.17 21.9 49.06 49.05 49.06s49.05-21.9 49.05-49.05-21.9-49.04-49.05-49.04z" stroke="#fff" stroke-opacity="0" fill="#d86613"/><path d="M1536.45 353H1447v-1h89.45zm220.07 0h-110.64v-1h110.64z" stroke="#3a414a" stroke-width=".05" fill="#3a414a"/><path d="M1447.02 353h-.5v-1h.5z" fill="#3a414a"/><path d="M1447.05 353.04h-.57V352h.57zm-.52-1v.95h.46v-.96z" stroke="#3a414a" stroke-width=".05" fill="#3a414a"/><path d="M1771.3 352.5l-14.28 4.65v-9.27z" fill="#3a414a"/><path d="M1772.9 352.5l-16.38 5.34V347.2zm-15.38 3.96l12.15-3.95-12.15-3.94z" stroke="#3a414a" stroke-width=".05" fill="#3a414a"/><use xlink:href="#f" transform="matrix(1,0,0,1,1536.448698977195,341.8457853296281) translate(0 14.222222222222223)"/><path d="M1738.53 428.7a6 6 0 0 1 6-6h310.02a6 6 0 0 1 6 6v94.5a6 6 0 0 1-6 6h-310.02a6 6 0 0 1-6-6z" stroke="#000" stroke-opacity="0" fill="#fff" fill-opacity="0"/><use xlink:href="#g" transform="matrix(1,0,0,1,1743.533857662579,427.70318471337583) translate(0 17.77777777777778)"/><use xlink:href="#h" transform="matrix(1,0,0,1,1743.533857662579,427.70318471337583) translate(0 44.44444444444444)"/><use xlink:href="#i" transform="matrix(1,0,0,1,1743.533857662579,427.70318471337583) translate(75.30864197530863 44.44444444444444)"/><use xlink:href="#j" transform="matrix(1,0,0,1,1743.533857662579,427.70318471337583) translate(118.5185185185185 44.44444444444444)"/><path d="M1010.63 346.35H940.5v-1h70.13zm279.92-1.9H1141.3v-1h149.25z" stroke="#3a414a" stroke-width=".05" fill="#3a414a"/><path d="M940.5 346.35h-.5v-1h.5z" fill="#3a414a"/><path d="M940.53 346.38h-.56v-1.06h.56zm-.5-1v.94h.46v-.94z" stroke="#3a414a" stroke-width=".05" fill="#3a414a"/><path d="M1305.32 343.96l-14.27 4.64v-9.27z" fill="#3a414a"/><path d="M1306.94 343.96l-16.4 5.33v-10.66zm-15.4 3.95l12.16-3.94-12.15-3.94z" stroke="#3a414a" stroke-width=".05" fill="#3a414a"/><use xlink:href="#k" transform="matrix(1,0,0,1,1010.6330441527465,335.18336494746234) translate(0 14.222222222222223)"/><use xlink:href="#l" transform="matrix(1,0,0,1,1010.6330441527465,335.18336494746234) translate(120.79012345679013 14.222222222222223)"/><path d="M1820.77 138.78l1 .24.93.4.87.52.78.66.66.78.54.87.4.94.23.98.08 1v127.88h-1V145.22l-.07-.88-.2-.84-.33-.8-.45-.73-.56-.66-.66-.55-.74-.45-.8-.33-.83-.2-.87-.07h-319.17v-1h319.2zm-900.48.92v-1h459.03v1z" stroke="#3a414a" stroke-width=".05" fill="#3a414a"/><path d="M1825.75 287.82l-4.64-14.26h9.28z" fill="#3a414a"/><path d="M1825.75 289.44l-5.33-16.38h10.65zm-3.95-15.38l3.95 12.14 3.94-12.14z" stroke="#3a414a" stroke-width=".05" fill="#3a414a"/><path d="M919.8 143.84l-14.28-4.64 14.27-4.63z" fill="#3a414a"/><path d="M920.3 144.52l-16.4-5.32 16.4-5.32zm-13.16-5.32l12.15 3.95v-7.9z" stroke="#3a414a" stroke-width=".05" fill="#3a414a"/><use xlink:href="#m" transform="matrix(1,0,0,1,1379.3288655857905,128.53333333333336) translate(0 14.222222222222223)"/><use xlink:href="#n" transform="matrix(1,0,0,1,1379.3288655857905,128.53333333333336) translate(74.8641975308642 14.222222222222223)"/><path d="M857.4 137.5V89.2h49.25v48.3zm-52.73 0V89.2h49.26v48.3zm0 51.7v-48.3h49.26v48.3zm52.72 0v-48.3h49.25v48.3zm4.7-56.3h39.86V93.8h-39.88zm0 51.7h39.86v-39.1h-39.88zm-52.74-51.7h39.88V93.8h-39.88zm0 51.7h39.88v-39.1h-39.88zm56.2-71.2c0-9 7.33-16.2 16.4-16.2 9.2 0 16.53 7.2 16.53 16.2 0 8.9-7.35 16.1-16.53 16.1-9.08 0-16.42-7.2-16.42-16.1zm4.58 0c0 6.4 5.3 11.6 11.83 11.6 6.63 0 11.93-5.2 11.93-11.6 0-6.5-5.3-11.7-11.93-11.7-6.53 0-11.83 5.2-11.83 11.7z" stroke="#000" stroke-opacity="0" fill="#2e27ad"/><path d="M807.23 91.9h96.67v94.2h-96.67V91.9z" stroke="#000" stroke-opacity="0" fill-opacity="0"/><g><use xlink:href="#d" transform="matrix(1,0,0,1,774.6736189579585,198.2) translate(15.099999999999994 14.4)"/><use xlink:href="#o" transform="matrix(1,0,0,1,774.6736189579585,198.2) translate(111.95 14.4)"/></g><path d="M660.55-10.8h91.12v80h-91.12v-80z" stroke="#000" stroke-opacity="0" fill="url(#p)"/><path d="M721.9 40.37c0 .28-.04.5-.04.72v7.47c0 4.52-9.3 8.15-20.63 8.15-9.85 0-19.8-2.37-20.62-6.88h-.1V9.4c0-5.02 10.68-7.72 20.74-7.72 5.6 0 10.97.83 14.77 2.2l-1.07 2.3c-3.43-1.25-8.46-1.97-13.7-1.97-11.08 0-17.85 3.04-17.85 5.2 0 2.13 6.77 5.16 17.86 5.16h.81l.1 2.48c-.3.05-.62.05-.92.05-6.88 0-14.06-1.28-17.86-3.7v5.51c0 .67.67 1.44 1.9 2.15 2.87 1.6 7.95 2.7 13.6 2.92l-.1 2.53c-5.9-.22-11.04-1.32-14.37-3.02-.45.38-1.02 1.32-1.02 1.8 0 2.2 6.77 5.2 17.86 5.2 1.02 0 2.05 0 3.07-.07l.22 2.5c-1.08.1-2.2.1-3.28.1-6.88 0-14.06-1.27-17.86-3.64v4.57c0 .72.67 1.5 1.9 2.2 3.23 1.82 9.34 2.98 15.96 2.98h.46v2.54h-.47c-6.82 0-14.05-1.27-17.85-3.2-.3.28-.2.72-.1 1.22.05.27.1.5.1.7 0 2.22 6.77 5.2 17.86 5.2 11.02 0 17.85-2.98 17.85-5.2 0-.7-.88-1.42-1.6-1.9-.57.32-1.18.6-1.95.87l-1.08-2.3c.77-.3 1.44-.62 1.95-.9 1.54-.93 2.57-2.25 2.57-2.75h2.86c0 1.2-.93 2.48-2.06 3.47 1.7 1.32 2.1 2.64 2.1 3.52zm9.5-19.98l-25.65 22.73c-.26.27-.67.38-1.03.38-.25 0-.5-.05-.72-.16-.56-.33-.82-.93-.6-1.48l6.5-17.28h-6.6c-.47 0-.94-.22-1.2-.6-.25-.4-.3-.83-.1-1.22l7.13-13.93c.26-.44.72-.7 1.3-.7h15.7c.45 0 .9.2 1.16.54.25.33.3.77.15 1.16l-3.54 8.42h6.47c.57 0 1.13.27 1.34.77.2.44.1 1-.3 1.37zm-4.46.38h-5.08c-.52 0-.93-.22-1.18-.55-.26-.33-.36-.77-.16-1.16l3.54-8.42h-12.72l-5.8 11.4h6.3c.48 0 .9.16 1.2.5.25.32.3.76.15 1.15L708 37.57zm-7.96 23.72c-3.84 2.37-10.97 3.58-17.75 3.58-6.87 0-14.05-1.27-17.85-3.63v4.73c0 2.1 6.77 5 17.86 5 10.66 0 17.75-3.35 17.75-5.6zm-34-25.15l1.33-2.26c.93.43 2.1.82 3.4 1.2l-.78 2.42c-1.5-.38-2.82-.88-3.95-1.37zm0 30.32l1.33-2.2c.93.44 2.1.83 3.4 1.16l-.78 2.42c-1.5-.38-2.82-.82-3.95-1.38zm3.94-13.8c-1.5-.4-2.82-.84-3.95-1.33l1.34-2.26c.93.44 2.1.83 3.4 1.16z" stroke="#000" stroke-opacity="0" fill="#fff"/><path d="M744.35-4.8a6 6 0 0 1 6-6h236.88a6 6 0 0 1 6 6v51.33a6 6 0 0 1-6 6H750.35a6 6 0 0 1-6-6z" stroke="#000" stroke-opacity="0" fill="#fff" fill-opacity="0"/><g><use xlink:href="#q" transform="matrix(1,0,0,1,749.3453703703026,-5.7999999999999545) translate(19.71604938271605 31.27777777777778)"/><use xlink:href="#r" transform="matrix(1,0,0,1,749.3453703703026,-5.7999999999999545) translate(99.83950617283949 31.27777777777778)"/></g><defs><path d="M96-169c-40 0-48 33-48 73s9 75 48 75c24 0 41-14 43-38l32 2c-6 37-31 61-74 61-59 0-76-41-82-99-10-93 101-131 147-64 4 7 5 14 7 22l-32 3c-4-21-16-35-41-35" id="s"/><path d="M114-163C36-179 61-72 57 0H25l-1-190h30c1 12-1 29 2 39 6-27 23-49 58-41v29" id="t"/><path d="M84 4C-5 8 30-112 23-190h32v120c0 31 7 50 39 49 72-2 45-101 50-169h31l1 190h-30c-1-10 1-25-2-33-11 22-28 36-60 37" id="u"/><path d="M85-194c31 0 48 13 60 33l-1-100h32l1 261h-30c-2-10 0-23-3-31C134-8 116 4 85 4 32 4 16-35 15-94c0-66 23-100 70-100zm9 24c-40 0-46 34-46 75 0 40 6 74 45 74 42 0 51-32 51-76 0-42-9-74-50-73" id="v"/><path d="M16-82v-28h88v28H16" id="w"/><path d="M210-169c-67 3-38 105-44 169h-31v-121c0-29-5-50-35-48C34-165 62-65 56 0H25l-1-190h30c1 10-1 24 2 32 10-44 99-50 107 0 11-21 27-35 58-36 85-2 47 119 55 194h-31v-121c0-29-5-49-35-48" id="x"/><path d="M100-194c63 0 86 42 84 106H49c0 40 14 67 53 68 26 1 43-12 49-29l28 8c-11 28-37 45-77 45C44 4 14-33 15-96c1-61 26-98 85-98zm52 81c6-60-76-77-97-28-3 7-6 17-6 28h103" id="y"/><path d="M135-143c-3-34-86-38-87 0 15 53 115 12 119 90S17 21 10-45l28-5c4 36 97 45 98 0-10-56-113-15-118-90-4-57 82-63 122-42 12 7 21 19 24 35" id="z"/><path d="M141-36C126-15 110 5 73 4 37 3 15-17 15-53c-1-64 63-63 125-63 3-35-9-54-41-54-24 1-41 7-42 31l-33-3c5-37 33-52 76-52 45 0 72 20 72 64v82c-1 20 7 32 28 27v20c-31 9-61-2-59-35zM48-53c0 20 12 33 32 33 41-3 63-29 60-74-43 2-92-5-92 41" id="A"/><path d="M177-190C167-65 218 103 67 71c-23-6-38-20-44-43l32-5c15 47 100 32 89-28v-30C133-14 115 1 83 1 29 1 15-40 15-95c0-56 16-97 71-98 29-1 48 16 59 35 1-10 0-23 2-32h30zM94-22c36 0 50-32 50-73 0-42-14-75-50-75-39 0-46 34-46 75s6 73 46 73" id="B"/><g id="a"><use transform="matrix(0.05,0,0,0.05,0,0)" xlink:href="#s"/><use transform="matrix(0.05,0,0,0.05,9,0)" xlink:href="#t"/><use transform="matrix(0.05,0,0,0.05,14.949999999999998,0)" xlink:href="#u"/><use transform="matrix(0.05,0,0,0.05,24.95,0)" xlink:href="#v"/><use transform="matrix(0.05,0,0,0.05,34.95,0)" xlink:href="#v"/><use transform="matrix(0.05,0,0,0.05,44.95,0)" xlink:href="#u"/><use transform="matrix(0.05,0,0,0.05,54.95,0)" xlink:href="#t"/><use transform="matrix(0.05,0,0,0.05,60.900000000000006,0)" xlink:href="#w"/><use transform="matrix(0.05,0,0,0.05,66.85000000000001,0)" xlink:href="#x"/><use transform="matrix(0.05,0,0,0.05,81.80000000000001,0)" xlink:href="#y"/><use transform="matrix(0.05,0,0,0.05,91.80000000000001,0)" xlink:href="#z"/><use transform="matrix(0.05,0,0,0.05,100.80000000000001,0)" xlink:href="#z"/><use transform="matrix(0.05,0,0,0.05,109.80000000000001,0)" xlink:href="#A"/><use transform="matrix(0.05,0,0,0.05,119.80000000000001,0)" xlink:href="#B"/><use transform="matrix(0.05,0,0,0.05,129.8,0)" xlink:href="#y"/><use transform="matrix(0.05,0,0,0.05,139.8,0)" xlink:href="#z"/></g><path d="M87 75C49 33 22-17 22-94c0-76 28-126 65-167h31c-38 41-64 92-64 168S80 34 118 75H87" id="C"/><path d="M30-248c118-7 216 8 213 122C240-48 200 0 122 0H30v-248zM63-27c89 8 146-16 146-99s-60-101-146-95v194" id="D"/><path d="M179-190L93 31C79 59 56 82 12 73V49c39 6 53-20 64-50L1-190h34L92-34l54-156h33" id="E"/><path d="M117-194c89-4 53 116 60 194h-32v-121c0-31-8-49-39-48C34-167 62-67 57 0H25l-1-190h30c1 10-1 24 2 32 11-22 29-35 61-36" id="F"/><path d="M100-194c62-1 85 37 85 99 1 63-27 99-86 99S16-35 15-95c0-66 28-99 85-99zM99-20c44 1 53-31 53-75 0-43-8-75-51-75s-53 32-53 75 10 74 51 75" id="G"/><path d="M160-131c35 5 61 23 61 61C221 17 115-2 30 0v-248c76 3 177-17 177 60 0 33-19 50-47 57zm-97-11c50-1 110 9 110-42 0-47-63-36-110-37v79zm0 115c55-2 124 14 124-45 0-56-70-42-124-44v89" id="H"/><g id="b"><use transform="matrix(0.05,0,0,0.05,0,0)" xlink:href="#C"/><use transform="matrix(0.05,0,0,0.05,5.95,0)" xlink:href="#D"/><use transform="matrix(0.05,0,0,0.05,18.900000000000002,0)" xlink:href="#E"/><use transform="matrix(0.05,0,0,0.05,27.900000000000002,0)" xlink:href="#F"/><use transform="matrix(0.05,0,0,0.05,37.900000000000006,0)" xlink:href="#A"/><use transform="matrix(0.05,0,0,0.05,47.900000000000006,0)" xlink:href="#x"/><use transform="matrix(0.05,0,0,0.05,62.85,0)" xlink:href="#G"/><use transform="matrix(0.05,0,0,0.05,72.85000000000001,0)" xlink:href="#D"/><use transform="matrix(0.05,0,0,0.05,85.80000000000001,0)" xlink:href="#H"/></g><path d="M127-220V0H93v-220H8v-28h204v28h-85" id="I"/><path d="M115-194c53 0 69 39 70 98 0 66-23 100-70 100C84 3 66-7 56-30L54 0H23l1-261h32v101c10-23 28-34 59-34zm-8 174c40 0 45-34 45-75 0-40-5-75-45-74-42 0-51 32-51 76 0 43 10 73 51 73" id="J"/><path d="M24 0v-261h32V0H24" id="K"/><path d="M33-261c38 41 65 92 65 168S71 34 33 75H2C39 34 66-17 66-93S39-220 2-261h31" id="L"/><g id="c"><use transform="matrix(0.05,0,0,0.05,0,0)" xlink:href="#I"/><use transform="matrix(0.05,0,0,0.05,8.950000000000001,0)" xlink:href="#A"/><use transform="matrix(0.05,0,0,0.05,18.950000000000003,0)" xlink:href="#J"/><use transform="matrix(0.05,0,0,0.05,28.950000000000003,0)" xlink:href="#K"/><use transform="matrix(0.05,0,0,0.05,32.900000000000006,0)" xlink:href="#y"/><use transform="matrix(0.05,0,0,0.05,42.900000000000006,0)" xlink:href="#L"/></g><g id="d"><use transform="matrix(0.05,0,0,0.05,0,0)" xlink:href="#D"/><use transform="matrix(0.05,0,0,0.05,12.950000000000001,0)" xlink:href="#E"/><use transform="matrix(0.05,0,0,0.05,21.950000000000003,0)" xlink:href="#F"/><use transform="matrix(0.05,0,0,0.05,31.950000000000003,0)" xlink:href="#A"/><use transform="matrix(0.05,0,0,0.05,41.95,0)" xlink:href="#x"/><use transform="matrix(0.05,0,0,0.05,56.900000000000006,0)" xlink:href="#G"/><use transform="matrix(0.05,0,0,0.05,66.9,0)" xlink:href="#D"/><use transform="matrix(0.05,0,0,0.05,79.85000000000001,0)" xlink:href="#H"/></g><path d="M185-189c-5-48-123-54-124 2 14 75 158 14 163 119 3 78-121 87-175 55-17-10-28-26-33-46l33-7c5 56 141 63 141-1 0-78-155-14-162-118-5-82 145-84 179-34 5 7 8 16 11 25" id="M"/><path d="M59-47c-2 24 18 29 38 22v24C64 9 27 4 27-40v-127H5v-23h24l9-43h21v43h35v23H59v120" id="N"/><g id="e"><use transform="matrix(0.05,0,0,0.05,0,0)" xlink:href="#M"/><use transform="matrix(0.05,0,0,0.05,12,0)" xlink:href="#N"/><use transform="matrix(0.05,0,0,0.05,17,0)" xlink:href="#t"/><use transform="matrix(0.05,0,0,0.05,22.95,0)" xlink:href="#y"/><use transform="matrix(0.05,0,0,0.05,32.95,0)" xlink:href="#A"/><use transform="matrix(0.05,0,0,0.05,42.95,0)" xlink:href="#x"/></g><path fill="#333" d="M175 0L67-191c6 58 2 128 3 191H24v-248h59L193-55c-6-58-2-129-3-193h46V0h-61" id="O"/><path fill="#333" d="M24 0v-248h195v40H76v63h132v40H76v65h150V0H24" id="P"/><path fill="#333" d="M275 0h-61l-44-196L126 0H64L0-248h53L97-49l45-199h58l43 199 44-199h52" id="Q"/><path fill="#333" d="M-4 44V30h207v14H-4" id="R"/><path fill="#333" d="M24 0v-248h52V0H24" id="S"/><path fill="#333" d="M230 0l2-204L168 0h-37L68-204 70 0H24v-248h70l56 185 57-185h69V0h-46" id="T"/><path fill="#333" d="M199 0l-22-63H83L61 0H9l90-248h61L250 0h-51zm-33-102l-36-108c-10 38-24 72-36 108h72" id="U"/><path fill="#333" d="M67-125c0 54 23 88 75 88 28 0 53-7 68-21v-34h-60v-39h108v91C232-14 192 4 140 4 58 4 20-42 15-125 8-236 126-280 215-234c19 10 29 26 37 47l-47 15c-11-23-29-39-63-39-53 1-75 33-75 86" id="V"/><g id="f"><use transform="matrix(0.04938271604938272,0,0,0.04938271604938272,0,0)" xlink:href="#O"/><use transform="matrix(0.04938271604938272,0,0,0.04938271604938272,12.790123456790125,0)" xlink:href="#P"/><use transform="matrix(0.04938271604938272,0,0,0.04938271604938272,24.641975308641978,0)" xlink:href="#Q"/><use transform="matrix(0.04938271604938272,0,0,0.04938271604938272,41.38271604938272,0)" xlink:href="#R"/><use transform="matrix(0.04938271604938272,0,0,0.04938271604938272,51.25925925925927,0)" xlink:href="#S"/><use transform="matrix(0.04938271604938272,0,0,0.04938271604938272,56.19753086419754,0)" xlink:href="#T"/><use transform="matrix(0.04938271604938272,0,0,0.04938271604938272,70.96296296296298,0)" xlink:href="#U"/><use transform="matrix(0.04938271604938272,0,0,0.04938271604938272,83.7530864197531,0)" xlink:href="#V"/><use transform="matrix(0.04938271604938272,0,0,0.04938271604938272,97.58024691358027,0)" xlink:href="#P"/></g><path fill="#3a414a" d="M212-179c-10-28-35-45-73-45-59 0-87 40-87 99 0 60 29 101 89 101 43 0 62-24 78-52l27 14C228-24 195 4 139 4 59 4 22-46 18-125c-6-104 99-153 187-111 19 9 31 26 39 46" id="W"/><path fill="#3a414a" d="M114-163C36-179 61-72 57 0H25l-1-190h30c1 12-1 29 2 39 6-27 23-49 58-41v29" id="X"/><path fill="#3a414a" d="M84 4C-5 8 30-112 23-190h32v120c0 31 7 50 39 49 72-2 45-101 50-169h31l1 190h-30c-1-10 1-25-2-33-11 22-28 36-60 37" id="Y"/><path fill="#3a414a" d="M85-194c31 0 48 13 60 33l-1-100h32l1 261h-30c-2-10 0-23-3-31C134-8 116 4 85 4 32 4 16-35 15-94c0-66 23-100 70-100zm9 24c-40 0-46 34-46 75 0 40 6 74 45 74 42 0 51-32 51-76 0-42-9-74-50-73" id="Z"/><path fill="#3a414a" d="M185-189c-5-48-123-54-124 2 14 75 158 14 163 119 3 78-121 87-175 55-17-10-28-26-33-46l33-7c5 56 141 63 141-1 0-78-155-14-162-118-5-82 145-84 179-34 5 7 8 16 11 25" id="aa"/><path fill="#3a414a" d="M59-47c-2 24 18 29 38 22v24C64 9 27 4 27-40v-127H5v-23h24l9-43h21v43h35v23H59v120" id="ab"/><path fill="#3a414a" d="M100-194c63 0 86 42 84 106H49c0 40 14 67 53 68 26 1 43-12 49-29l28 8c-11 28-37 45-77 45C44 4 14-33 15-96c1-61 26-98 85-98zm52 81c6-60-76-77-97-28-3 7-6 17-6 28h103" id="ac"/><path fill="#3a414a" d="M141-36C126-15 110 5 73 4 37 3 15-17 15-53c-1-64 63-63 125-63 3-35-9-54-41-54-24 1-41 7-42 31l-33-3c5-37 33-52 76-52 45 0 72 20 72 64v82c-1 20 7 32 28 27v20c-31 9-61-2-59-35zM48-53c0 20 12 33 32 33 41-3 63-29 60-74-43 2-92-5-92 41" id="ad"/><path fill="#3a414a" d="M210-169c-67 3-38 105-44 169h-31v-121c0-29-5-50-35-48C34-165 62-65 56 0H25l-1-190h30c1 10-1 24 2 32 10-44 99-50 107 0 11-21 27-35 58-36 85-2 47 119 55 194h-31v-121c0-29-5-49-35-48" id="ae"/><path fill="#3a414a" d="M240 0l2-218c-23 76-54 145-80 218h-23L58-218 59 0H30v-248h44l77 211c21-75 51-140 76-211h43V0h-30" id="af"/><path fill="#3a414a" d="M135-143c-3-34-86-38-87 0 15 53 115 12 119 90S17 21 10-45l28-5c4 36 97 45 98 0-10-56-113-15-118-90-4-57 82-63 122-42 12 7 21 19 24 35" id="ag"/><path fill="#3a414a" d="M177-190C167-65 218 103 67 71c-23-6-38-20-44-43l32-5c15 47 100 32 89-28v-30C133-14 115 1 83 1 29 1 15-40 15-95c0-56 16-97 71-98 29-1 48 16 59 35 1-10 0-23 2-32h30zM94-22c36 0 50-32 50-73 0-42-14-75-50-75-39 0-46 34-46 75s6 73 46 73" id="ah"/><path fill="#3a414a" d="M24-231v-30h32v30H24zM24 0v-190h32V0H24" id="ai"/><path fill="#3a414a" d="M117-194c89-4 53 116 60 194h-32v-121c0-31-8-49-39-48C34-167 62-67 57 0H25l-1-190h30c1 10-1 24 2 32 11-22 29-35 61-36" id="aj"/><g id="g"><use transform="matrix(0.06172839506172839,0,0,0.06172839506172839,0,0)" xlink:href="#W"/><use transform="matrix(0.06172839506172839,0,0,0.06172839506172839,15.987654320987653,0)" xlink:href="#X"/><use transform="matrix(0.06172839506172839,0,0,0.06172839506172839,23.333333333333332,0)" xlink:href="#Y"/><use transform="matrix(0.06172839506172839,0,0,0.06172839506172839,35.67901234567901,0)" xlink:href="#Z"/><use transform="matrix(0.06172839506172839,0,0,0.06172839506172839,48.02469135802469,0)" xlink:href="#Z"/><use transform="matrix(0.06172839506172839,0,0,0.06172839506172839,60.37037037037037,0)" xlink:href="#Y"/><use transform="matrix(0.06172839506172839,0,0,0.06172839506172839,72.71604938271605,0)" xlink:href="#X"/><use transform="matrix(0.06172839506172839,0,0,0.06172839506172839,80.06172839506173,0)" xlink:href="#aa"/><use transform="matrix(0.06172839506172839,0,0,0.06172839506172839,94.87654320987654,0)" xlink:href="#ab"/><use transform="matrix(0.06172839506172839,0,0,0.06172839506172839,101.04938271604938,0)" xlink:href="#X"/><use transform="matrix(0.06172839506172839,0,0,0.06172839506172839,108.39506172839506,0)" xlink:href="#ac"/><use transform="matrix(0.06172839506172839,0,0,0.06172839506172839,120.74074074074075,0)" xlink:href="#ad"/><use transform="matrix(0.06172839506172839,0,0,0.06172839506172839,133.08641975308643,0)" xlink:href="#ae"/><use transform="matrix(0.06172839506172839,0,0,0.06172839506172839,151.54320987654322,0)" xlink:href="#af"/><use transform="matrix(0.06172839506172839,0,0,0.06172839506172839,170,0)" xlink:href="#ac"/><use transform="matrix(0.06172839506172839,0,0,0.06172839506172839,182.34567901234567,0)" xlink:href="#ag"/><use transform="matrix(0.06172839506172839,0,0,0.06172839506172839,193.45679012345678,0)" xlink:href="#ag"/><use transform="matrix(0.06172839506172839,0,0,0.06172839506172839,204.5679012345679,0)" xlink:href="#ad"/><use transform="matrix(0.06172839506172839,0,0,0.06172839506172839,216.91358024691357,0)" xlink:href="#ah"/><use transform="matrix(0.06172839506172839,0,0,0.06172839506172839,229.25925925925924,0)" xlink:href="#ai"/><use transform="matrix(0.06172839506172839,0,0,0.06172839506172839,234.13580246913577,0)" xlink:href="#aj"/><use transform="matrix(0.06172839506172839,0,0,0.06172839506172839,246.48148148148144,0)" xlink:href="#ah"/></g><path fill="#3a414a" d="M30-248c87 1 191-15 191 75 0 78-77 80-158 76V0H30v-248zm33 125c57 0 124 11 124-50 0-59-68-47-124-48v98" id="ak"/><path fill="#3a414a" d="M179-190L93 31C79 59 56 82 12 73V49c39 6 53-20 64-50L1-190h34L92-34l54-156h33" id="al"/><path fill="#3a414a" d="M106-169C34-169 62-67 57 0H25v-261h32l-1 103c12-21 28-36 61-36 89 0 53 116 60 194h-32v-121c2-32-8-49-39-48" id="am"/><path fill="#3a414a" d="M100-194c62-1 85 37 85 99 1 63-27 99-86 99S16-35 15-95c0-66 28-99 85-99zM99-20c44 1 53-31 53-75 0-43-8-75-51-75s-53 32-53 75 10 74 51 75" id="an"/><g id="h"><use transform="matrix(0.06172839506172839,0,0,0.06172839506172839,0,0)" xlink:href="#ak"/><use transform="matrix(0.06172839506172839,0,0,0.06172839506172839,14.814814814814813,0)" xlink:href="#al"/><use transform="matrix(0.06172839506172839,0,0,0.06172839506172839,25.925925925925924,0)" xlink:href="#ab"/><use transform="matrix(0.06172839506172839,0,0,0.06172839506172839,32.098765432098766,0)" xlink:href="#am"/><use transform="matrix(0.06172839506172839,0,0,0.06172839506172839,44.44444444444444,0)" xlink:href="#an"/><use transform="matrix(0.06172839506172839,0,0,0.06172839506172839,56.79012345679012,0)" xlink:href="#aj"/></g><path fill="#3a414a" d="M126-127c33 6 58 20 58 59 0 88-139 92-164 29-3-8-5-16-6-25l32-3c6 27 21 44 54 44 32 0 52-15 52-46 0-38-36-46-79-43v-28c39 1 72-4 72-42 0-27-17-43-46-43-28 0-47 15-49 41l-32-3c6-42 35-63 81-64 48-1 79 21 79 65 0 36-21 52-52 59" id="ao"/><path fill="#3a414a" d="M33 0v-38h34V0H33" id="ap"/><path fill="#3a414a" d="M99-251c64 0 84 50 84 122C183-37 130 33 47-8c-14-7-20-23-25-40l30-5c6 39 69 39 84 7 9-19 16-44 16-74-10 22-31 35-62 35-49 0-73-33-73-83 0-54 28-83 82-83zm-1 141c31-1 51-18 51-49 0-36-14-67-51-67-34 0-49 23-49 58 0 34 15 58 49 58" id="aq"/><g id="i"><use transform="matrix(0.06172839506172839,0,0,0.06172839506172839,0,0)" xlink:href="#ao"/><use transform="matrix(0.06172839506172839,0,0,0.06172839506172839,12.345679012345679,0)" xlink:href="#ap"/><use transform="matrix(0.06172839506172839,0,0,0.06172839506172839,18.51851851851852,0)" xlink:href="#aq"/></g><path fill="#3a414a" d="M141 0L90-78 38 0H4l68-98-65-92h35l48 74 47-74h35l-64 92 68 98h-35" id="ar"/><path fill="#3a414a" d="M134-131c28 9 52 24 51 62-1 50-34 73-85 73S17-19 16-69c0-36 21-54 49-61-75-25-45-126 34-121 46 3 78 18 79 63 0 33-17 51-44 57zm-34-11c31 1 46-15 46-44 0-28-17-43-47-42-29 0-46 13-45 42 1 28 16 44 46 44zm1 122c35 0 51-18 51-52 0-30-18-46-53-46-33 0-51 17-51 47 0 34 19 51 53 51" id="as"/><path fill="#3a414a" d="M110-160c48 1 74 30 74 79 0 53-28 85-80 85-65 0-83-55-86-122-5-90 50-162 133-122 14 7 22 21 27 39l-31 6c-5-40-67-38-82-6-9 19-15 44-15 74 11-20 30-34 60-33zm-7 138c34 0 49-23 49-58s-16-56-50-56c-29 0-50 16-49 49 1 36 15 65 50 65" id="at"/><path fill="#3a414a" d="M-5 72V49h209v23H-5" id="au"/><path fill="#3a414a" d="M155-56V0h-30v-56H8v-25l114-167h33v167h35v25h-35zm-30-156c-27 46-58 90-88 131h88v-131" id="av"/><g id="j"><use transform="matrix(0.06172839506172839,0,0,0.06172839506172839,0,0)" xlink:href="#ar"/><use transform="matrix(0.06172839506172839,0,0,0.06172839506172839,11.11111111111111,0)" xlink:href="#as"/><use transform="matrix(0.06172839506172839,0,0,0.06172839506172839,23.45679012345679,0)" xlink:href="#at"/><use transform="matrix(0.06172839506172839,0,0,0.06172839506172839,35.80246913580247,0)" xlink:href="#au"/><use transform="matrix(0.06172839506172839,0,0,0.06172839506172839,48.148148148148145,0)" xlink:href="#at"/><use transform="matrix(0.06172839506172839,0,0,0.06172839506172839,60.49382716049382,0)" xlink:href="#av"/></g><path fill="#333" d="M182-130c37 4 62 22 62 59C244 23 116-4 24 0v-248c84 5 203-23 205 63 0 31-19 50-47 55zM76-148c40-3 101 13 101-30 0-44-60-28-101-31v61zm0 110c48-3 116 14 116-37 0-48-69-32-116-35v72" id="aw"/><path fill="#333" d="M136-208V0H84v-208H4v-40h212v40h-80" id="ax"/><path fill="#333" d="M67-125c0 53 21 87 73 88 37 1 54-22 65-47l45 17C233-25 199 4 140 4 58 4 20-42 15-125 8-235 124-281 211-232c18 10 29 29 36 50l-46 12c-8-25-30-41-62-41-52 0-71 34-72 86" id="ay"/><path fill="#333" d="M186 0v-106H76V0H24v-248h52v99h110v-99h50V0h-50" id="az"/><path fill="#333" d="M169-182c-1-43-94-46-97-3 18 66 151 10 154 114 3 95-165 93-204 36-6-8-10-19-12-30l50-8c3 46 112 56 116 5-17-69-150-10-154-114-4-87 153-88 188-35 5 8 8 18 10 28" id="aA"/><path fill="#333" d="M210 0H11v-37l134-170H24v-41h178v36L68-41h142V0" id="aB"/><path fill="#333" d="M35-132v-50h50v50H35zM35 0v-49h50V0H35" id="aC"/><g id="k"><use transform="matrix(0.04938271604938272,0,0,0.04938271604938272,0,0)" xlink:href="#aw"/><use transform="matrix(0.04938271604938272,0,0,0.04938271604938272,12.790123456790125,0)" xlink:href="#U"/><use transform="matrix(0.04938271604938272,0,0,0.04938271604938272,24.24691358024692,0)" xlink:href="#ax"/><use transform="matrix(0.04938271604938272,0,0,0.04938271604938272,35.061728395061735,0)" xlink:href="#ay"/><use transform="matrix(0.04938271604938272,0,0,0.04938271604938272,47.85185185185186,0)" xlink:href="#az"/><use transform="matrix(0.04938271604938272,0,0,0.04938271604938272,60.64197530864199,0)" xlink:href="#R"/><use transform="matrix(0.04938271604938272,0,0,0.04938271604938272,70.51851851851853,0)" xlink:href="#aA"/><use transform="matrix(0.04938271604938272,0,0,0.04938271604938272,82.37037037037038,0)" xlink:href="#S"/><use transform="matrix(0.04938271604938272,0,0,0.04938271604938272,87.30864197530866,0)" xlink:href="#aB"/><use transform="matrix(0.04938271604938272,0,0,0.04938271604938272,98.12345679012347,0)" xlink:href="#P"/><use transform="matrix(0.04938271604938272,0,0,0.04938271604938272,109.97530864197532,0)" xlink:href="#aC"/></g><path fill="#333" d="M23 0v-37h61v-169l-59 37v-38l62-41h46v211h57V0H23" id="aD"/><use transform="matrix(0.04938271604938272,0,0,0.04938271604938272,0,0)" xlink:href="#aD" id="l"/><path fill="#333" d="M238-95c0 69-44 99-111 99C63 4 22-25 22-93v-155h51v151c-1 38 19 59 55 60 90 1 49-130 58-211h52v153" id="aE"/><path fill="#333" d="M135-194c53 0 70 44 70 98 0 56-19 98-73 100-31 1-45-17-59-34 3 33 2 69 2 105H25l-1-265h48c2 10 0 23 3 31 11-24 29-35 60-35zM114-30c33 0 39-31 40-66 0-38-9-64-40-64-56 0-55 130 0 130" id="aF"/><path fill="#333" d="M88-194c31-1 46 15 58 34l-1-101h50l1 261h-48c-2-10 0-23-3-31C134-8 116 4 84 4 32 4 16-41 15-95c0-56 19-97 73-99zm17 164c33 0 40-30 41-66 1-37-9-64-41-64s-38 30-39 65c0 43 13 65 39 65" id="aG"/><path fill="#333" d="M133-34C117-15 103 5 69 4 32 3 11-16 11-54c-1-60 55-63 116-61 1-26-3-47-28-47-18 1-26 9-28 27l-52-2c7-38 36-58 82-57s74 22 75 68l1 82c-1 14 12 18 25 15v27c-30 8-71 5-69-32zm-48 3c29 0 43-24 42-57-32 0-66-3-65 30 0 17 8 27 23 27" id="aH"/><path fill="#333" d="M115-3C79 11 28 4 28-45v-112H4v-33h27l15-45h31v45h36v33H77v99c-1 23 16 31 38 25v30" id="aI"/><path fill="#333" d="M185-48c-13 30-37 53-82 52C43 2 14-33 14-96s30-98 90-98c62 0 83 45 84 108H66c0 31 8 55 39 56 18 0 30-7 34-22zm-45-69c5-46-57-63-70-21-2 6-4 13-4 21h74" id="aJ"/><path fill="#333" d="M137-138c1-29-70-34-71-4 15 46 118 7 119 86 1 83-164 76-172 9l43-7c4 19 20 25 44 25 33 8 57-30 24-41C81-84 22-81 20-136c-2-80 154-74 161-7" id="aK"/><g id="m"><use transform="matrix(0.04938271604938272,0,0,0.04938271604938272,0,0)" xlink:href="#aE"/><use transform="matrix(0.04938271604938272,0,0,0.04938271604938272,12.790123456790125,0)" xlink:href="#aF"/><use transform="matrix(0.04938271604938272,0,0,0.04938271604938272,23.60493827160494,0)" xlink:href="#aG"/><use transform="matrix(0.04938271604938272,0,0,0.04938271604938272,34.41975308641975,0)" xlink:href="#aH"/><use transform="matrix(0.04938271604938272,0,0,0.04938271604938272,44.2962962962963,0)" xlink:href="#aI"/><use transform="matrix(0.04938271604938272,0,0,0.04938271604938272,50.17283950617284,0)" xlink:href="#aJ"/><use transform="matrix(0.04938271604938272,0,0,0.04938271604938272,60.04938271604939,0)" xlink:href="#aK"/></g><path fill="#333" d="M220-157c-53 9-28 100-34 157h-49v-107c1-27-5-49-29-50C55-147 81-57 75 0H25l-1-190h47c2 12-1 28 3 38 10-53 101-56 108 0 13-22 24-43 59-42 82 1 51 116 57 194h-49v-107c-1-25-5-48-29-50" id="aL"/><g id="n"><use transform="matrix(0.04938271604938272,0,0,0.04938271604938272,0,0)" xlink:href="#S"/><use transform="matrix(0.04938271604938272,0,0,0.04938271604938272,4.938271604938272,0)" xlink:href="#aI"/><use transform="matrix(0.04938271604938272,0,0,0.04938271604938272,10.814814814814817,0)" xlink:href="#aJ"/><use transform="matrix(0.04938271604938272,0,0,0.04938271604938272,20.69135802469136,0)" xlink:href="#aL"/><use transform="matrix(0.04938271604938272,0,0,0.04938271604938272,36.49382716049383,0)" xlink:href="#aK"/></g><path d="M33 0v-248h34V0H33" id="aM"/><g id="o"><use transform="matrix(0.05,0,0,0.05,0,0)" xlink:href="#aM"/><use transform="matrix(0.05,0,0,0.05,5,0)" xlink:href="#N"/><use transform="matrix(0.05,0,0,0.05,10,0)" xlink:href="#y"/><use transform="matrix(0.05,0,0,0.05,20,0)" xlink:href="#x"/></g><linearGradient gradientUnits="userSpaceOnUse" id="p" x1="660.55" y1="69.2" x2="751.67" y2="-10.8"><stop offset="0%" stop-color="#2e27ad"/><stop offset="100%" stop-color="#527fff"/></linearGradient><path fill="#3a414a" d="M146-102V0H94v-102L6-248h54l60 105 60-105h54" id="aN"/><path fill="#3a414a" d="M133-34C117-15 103 5 69 4 32 3 11-16 11-54c-1-60 55-63 116-61 1-26-3-47-28-47-18 1-26 9-28 27l-52-2c7-38 36-58 82-57s74 22 75 68l1 82c-1 14 12 18 25 15v27c-30 8-71 5-69-32zm-48 3c29 0 43-24 42-57-32 0-66-3-65 30 0 17 8 27 23 27" id="aO"/><path fill="#3a414a" d="M190-63c-7 42-38 67-86 67-59 0-84-38-90-98-12-110 154-137 174-36l-49 2c-2-19-15-32-35-32-30 0-35 28-38 64-6 74 65 87 74 30" id="aP"/><path fill="#3a414a" d="M135-150c-39-12-60 13-60 57V0H25l-1-190h47c2 13-1 29 3 40 6-28 27-53 61-41v41" id="aQ"/><path fill="#3a414a" d="M85 4C-2 5 27-109 22-190h50c7 57-23 150 33 157 60-5 35-97 40-157h50l1 190h-47c-2-12 1-28-3-38-12 25-28 42-61 42" id="aR"/><path fill="#3a414a" d="M88-194c31-1 46 15 58 34l-1-101h50l1 261h-48c-2-10 0-23-3-31C134-8 116 4 84 4 32 4 16-41 15-95c0-56 19-97 73-99zm17 164c33 0 40-30 41-66 1-37-9-64-41-64s-38 30-39 65c0 43 13 65 39 65" id="aS"/><g id="q"><use transform="matrix(0.06172839506172839,0,0,0.06172839506172839,0,0)" xlink:href="#aN"/><use transform="matrix(0.06172839506172839,0,0,0.06172839506172839,13.580246913580245,0)" xlink:href="#aO"/><use transform="matrix(0.06172839506172839,0,0,0.06172839506172839,25.925925925925924,0)" xlink:href="#aP"/><use transform="matrix(0.06172839506172839,0,0,0.06172839506172839,38.2716049382716,0)" xlink:href="#aQ"/><use transform="matrix(0.06172839506172839,0,0,0.06172839506172839,46.913580246913575,0)" xlink:href="#aR"/><use transform="matrix(0.06172839506172839,0,0,0.06172839506172839,60.432098765432094,0)" xlink:href="#aS"/></g><path fill="#3a414a" d="M24-248c120-7 223 5 221 122C244-46 201 0 124 0H24v-248zM76-40c74 7 117-18 117-86 0-67-45-88-117-82v168" id="aT"/><path fill="#3a414a" d="M123 10C108 53 80 86 19 72V37c35 8 53-11 59-39L3-190h52l48 148c12-52 28-100 44-148h51" id="aU"/><path fill="#3a414a" d="M135-194c87-1 58 113 63 194h-50c-7-57 23-157-34-157-59 0-34 97-39 157H25l-1-190h47c2 12-1 28 3 38 12-26 28-41 61-42" id="aV"/><path fill="#3a414a" d="M220-157c-53 9-28 100-34 157h-49v-107c1-27-5-49-29-50C55-147 81-57 75 0H25l-1-190h47c2 12-1 28 3 38 10-53 101-56 108 0 13-22 24-43 59-42 82 1 51 116 57 194h-49v-107c-1-25-5-48-29-50" id="aW"/><path fill="#3a414a" d="M110-194c64 0 96 36 96 99 0 64-35 99-97 99-61 0-95-36-95-99 0-62 34-99 96-99zm-1 164c35 0 45-28 45-65 0-40-10-65-43-65-34 0-45 26-45 65 0 36 10 65 43 65" id="aX"/><path fill="#3a414a" d="M182-130c37 4 62 22 62 59C244 23 116-4 24 0v-248c84 5 203-23 205 63 0 31-19 50-47 55zM76-148c40-3 101 13 101-30 0-44-60-28-101-31v61zm0 110c48-3 116 14 116-37 0-48-69-32-116-35v72" id="aY"/><g id="r"><use transform="matrix(0.06172839506172839,0,0,0.06172839506172839,0,0)" xlink:href="#aT"/><use transform="matrix(0.06172839506172839,0,0,0.06172839506172839,15.987654320987653,0)" xlink:href="#aU"/><use transform="matrix(0.06172839506172839,0,0,0.06172839506172839,28.333333333333332,0)" xlink:href="#aV"/><use transform="matrix(0.06172839506172839,0,0,0.06172839506172839,41.85185185185185,0)" xlink:href="#aO"/><use transform="matrix(0.06172839506172839,0,0,0.06172839506172839,54.197530864197525,0)" xlink:href="#aW"/><use transform="matrix(0.06172839506172839,0,0,0.06172839506172839,73.9506172839506,0)" xlink:href="#aX"/><use transform="matrix(0.06172839506172839,0,0,0.06172839506172839,87.46913580246913,0)" xlink:href="#aT"/><use transform="matrix(0.06172839506172839,0,0,0.06172839506172839,103.45679012345678,0)" xlink:href="#aY"/></g></defs></g></svg>