<svg xmlns="http://www.w3.org/2000/svg" xmlns:xlink="http://www.w3.org/1999/xlink" xmlns:lucid="lucid" width="1210.36" height="658"><g transform="translate(-453.48587570621476 146.33333333333326)" lucid:page-tab-id="0_0"><path d="M0-1258.84h1870.87v2581.68H0z" fill="#fff"/><path d="M841.58-46.33h760.8v320h-760.8z" stroke="#3b48cc" fill-opacity="0"/><path d="M1200.7 106.47h76v76h-76v-76z" stroke="#fff" stroke-opacity="0" stroke-width="2" fill="#3b48cc"/><path d="M1244.2 155.36l1.4-1.45-2.9-2.84 3.24-2.43-1.22-1.63-4.2 3.14-.12.1c-.38.4-.37 1.05.03 1.44zM1255.46 151.9l-3.24 2.44 1.22 1.63 4.2-3.14c.24-.2.38-.44.4-.75.02-.3-.1-.58-.3-.8l-3.77-3.64-1.4 1.45z" stroke="#fff" stroke-opacity="0" stroke-width="2" fill="#fff"/><path d="M1245.44 157.74l5.36-12.16 1.85.82-5.35 12.15-1.86-.8z" stroke="#fff" stroke-opacity="0" stroke-width=".81" fill="#fff"/><path d="M1264.92 127.5l-2.8-2.4-4.54-3.7-1.17-1c-.2-.2-.4-.25-.62-.25h-37.6c0-.56-.44-1.02-1.02-1.02h-4.05.02c-.54 0-1.02.46-1.02 1.02v10.13c0 .56.48 1 1.02 1h4.04v37.5c0 .56.48 1.02 1 1.02h11.18c.53 0 1-.46 1-1v-39.53h18.26v7.44l-11.4 4.73h-.8c-.57 0-1 .45-1 1v18.25c0 .56.43 1 1 1h26.34c.6 0 1.02-.44 1.02-1v-18.24c0-.56-.43-1-1.02-1h-.8l-11.32-4.72v-7.45h13.67c.4 0 .78-.26.94-.66.16-.4 0-.85-.32-1.1zm-9.52-5.28l-5.2 4.72-6.3-4.77h11.5zm-26.06 5.07h-8.1l5-3.8 4.96 3.74zm-9.63 20.7l8.63-7.64v15.3zm8.1 9.9l-8.57 7.64v-15.3zm-8.57-12.17v-15.25l8.57 7.65zm8.67-23.56h12.66l-6.33 4.77zm14.37 1.27l5 3.8h-10.06zm-17.77-1.27l-6.33 4.82v-4.83zm-8.35 7.1h-2.02v-8.1h2.02v8.1zm3.56 38.5l8.63-7.6v7.6zm8.63-31.92l-7.5-6.58h7.5zm33.4 23.77h-24.3V143.4h24.3zm-19.25-18.24l7.13-2.94 7.08 2.94zm10.37-14.2l4.1-3.7 4.57 3.76z" stroke="#fff" stroke-opacity="0" stroke-width="2" fill="#fff"/><path d="M945.98 96.87c-26.27 0-47.6 21.32-47.6 47.6 0 26.37 21.33 47.6 47.6 47.6 26.37 0 47.6-21.33 47.6-47.6 0-26.37-21.23-47.6-47.6-47.6zm12.57 88.9v-7.98c0-3.25-1.8-6-4.3-7.82h.5c4.56-.48 8.46-1.9 8.46-1.9s5.82-1.8 9.06-5.53c3.33-4.1 4.28-9.8 4.28-9.8s.95-6.28 0-11.33c-.95-4.66-4.76-8.2-4.76-8.2s1.24-3.32 1.05-6.56c0-3.23-1.53-6.47-1.53-6.47s-2.76-.3-5.8.94c-3.53 1.53-7.52 4.3-7.52 4.3s-2.76-.97-6-1.25c-2.95-.58-6.48-.58-6.48-.58s-3.52 0-6.56.57c-3.24.47-6 1.23-6 1.23s-4-2.76-7.52-4.3c-2.95-1.22-5.7-.94-5.7-.94s-1.54 3.23-1.54 6.46c0 3.34.95 6.57.95 6.57s-3.42 3.24-4.66 8.2c-1.33 5.04 0 11.32 0 11.32s.67 5.7 4.2 9.8c3.32 3.72 9.03 5.53 9.03 5.53s4 1.42 8.47 1.9h.77c-1.72 1.8-3.53 4.57-3.53 7.8v8c-17.7-5.23-30.54-21.8-30.54-41.3 0-23.8 19.32-43.04 43.12-43.04 23.8 0 43.4 19.23 43.4 43.03 0 19.5-13.03 36.08-30.83 41.3z" stroke="#000" stroke-opacity="0" fill="#0078d7"/><use xlink:href="#a" transform="matrix(1,0,0,1,868.3807909604525,201.0666666666666) translate(50.05 14.4)"/><path d="M841.58-46.33h56.8v56.8h-56.8v-56.8z" stroke="#fff" stroke-opacity="0" stroke-width="2" fill="#3b48cc"/><path d="M884.75-36.87H855.2h-.03c-2.3 0-4.12 1.9-4.12 4.17v8.37c0 2.3 1.9 4.13 4.16 4.13h1.15V.24c0 .42.34.76.76.76h25.76c.4 0 .75-.34.75-.76V-20.2h1.19c2.3 0 4.1-1.9 4.1-4.17v-8.33-.04c0-2.3-1.88-4.13-4.15-4.13zm-2.7 36.35h-24.22V-20.2h24.23zm2.7-21.2H855.2c-1.3 0-2.4-.95-2.56-2.27h12.87v-1.5h-12.86v-7.2c-.04-1.44 1.13-2.6 2.57-2.65h29.55c1.44 0 2.65 1.13 2.65 2.57v7.28H873v1.5h14.4c-.2 1.33-1.33 2.32-2.65 2.28z" stroke="#fff" stroke-opacity="0" stroke-width="2" fill="#fff"/><path d="M860.57-10.47l4.34 3.73 1-1.14-3.68-3.17 3.7-3.27-1-1.14-4.35 3.85c-.17.13-.26.34-.26.56 0 .23.1.42.27.57zM875.1-6.7l4.35-3.8c.18-.15.26-.34.26-.57 0-.22-.08-.42-.25-.57l-4.36-3.8-1 1.15 3.7 3.23-3.7 3.25z" stroke="#fff" stroke-opacity="0" stroke-width="2" fill="#fff"/><path d="M867.04-4.64l5.2-12.7 1.4.56-5.2 12.7-1.4-.56z" stroke="#fff" stroke-opacity="0" stroke-width=".76" fill="#fff"/><path d="M867.7-25.5h3.04v1.5h-3.03v-1.5z" stroke="#fff" stroke-opacity="0" stroke-width="2" fill="#fff"/><path d="M909.58-3.7a6 6 0 0 1 6-6h155a6 6 0 0 1 6 6v19.87a6 6 0 0 1-6 6h-155a6 6 0 0 1-6-6z" stroke="#000" stroke-opacity="0" fill="#fff" fill-opacity="0"/><use xlink:href="#b" transform="matrix(1,0,0,1,914.5807909604521,-4.699999999961392) translate(0 17.77777777777778)"/><path d="M871.86 43.92a6 6 0 0 1 6-6H1014a6 6 0 0 1 6 6v31.2a6 6 0 0 1-6 6H877.85a6 6 0 0 1-6-6z" stroke="#3a414a" fill="#fff"/><use xlink:href="#c" transform="matrix(1,0,0,1,883.8599497802456,49.91666666668607) translate(1.4197530864197603 17.77777777777778)"/><use xlink:href="#d" transform="matrix(1,0,0,1,883.8599497802456,49.91666666668607) translate(77.90123456790124 17.77777777777778)"/><path d="M1176.9 43.92a6 6 0 0 1 6-6h136.15a6 6 0 0 1 6 6v31.2a6 6 0 0 1-6 6H1182.9a6 6 0 0 1-6-6z" stroke="#3a414a" fill="#fff"/><use xlink:href="#e" transform="matrix(1,0,0,1,1188.914124293785,49.91666666668607) translate(11.944444444444443 17.77777777777778)"/><use xlink:href="#d" transform="matrix(1,0,0,1,1188.914124293785,49.91666666668607) translate(67.37654320987654 17.77777777777778)"/><path d="M1390.78 43.92a6 6 0 0 1 6-6h136.13a6 6 0 0 1 6 6v31.2a6 6 0 0 1-6 6H1396.8a6 6 0 0 1-6-6z" stroke="#3a414a" fill="#fff"/><use xlink:href="#f" transform="matrix(1,0,0,1,1402.7807909604526,49.91666666668607) translate(2.0679012345679126 17.77777777777778)"/><use xlink:href="#d" transform="matrix(1,0,0,1,1402.7807909604526,49.91666666668607) translate(77.25308641975309 17.77777777777778)"/><path d="M1415.64 102.16a10 10 0 0 1 8.82-5.3h71.04a10 10 0 0 1 8.82 5.3l22.04 41.3a11.25 11.25 0 0 1 0 10.6l-22.04 41.3a10 10 0 0 1-8.82 5.3h-71.04a10 10 0 0 1-8.82-5.3l-22.04-41.3a11.25 11.25 0 0 1 0-10.6z" stroke="#fff" fill="#2e27ad"/><use xlink:href="#g" transform="matrix(1,0,0,1,1395.7807909604526,101.86666666666679) translate(20.012345679012356 50.63194444444444)"/><use xlink:href="#h" transform="matrix(1,0,0,1,1395.7807909604526,101.86666666666679) translate(56.26543209876544 50.63194444444444)"/><path d="M994.04 143.7h190.27" stroke="#3a414a" fill="none"/><path d="M994.05 144.2h-.48l-.06-1h.55z" stroke="#3a414a" stroke-width=".05" fill="#3a414a"/><path d="M1199.08 143.7l-14.27 4.64v-9.27z" stroke="#3a414a" fill="#3a414a"/><path d="M1277.2 144.47h99.02" stroke="#3a414a" fill="none"/><path d="M1277.2 144.97h-.5v-1h.5z" stroke="#3a414a" stroke-width=".05" fill="#3a414a"/><path d="M1391 144.47l-14.28 4.63v-9.27z" stroke="#3a414a" fill="#3a414a"/><path d="M704.83-17.8c.6.56.96 1.33.96 2.1v6.53c0 1.5-1.2 2.76-2.67 2.85-.44.04-.8.08-1.18.08-.9.1-1.78.18-2.67.26l-.3.05c-3.47.34-6.73.7-8.72.43-1.4-.22-3.26-1.04-5.63-2.08-3.03-1.33-6.88-3.02-10.06-3.23-5.25-.44-15.46.77-19.9 4.1-2.9 2.1-7.1 2.92-9.33 3.23-1.33.17-2.73.3-4.14.3-3.4 0-6.73-.65-8.5-2.38-.97-1.03-.97-2.03-.82-2.6.37-2.06 2.96-3.18 6.5-4.78 1.2-.52 2.38-1.08 3.5-1.64v-.2c0-9.5 4.2-18.44 11.53-24.48 5.48-4.58 12.5-7.08 19.7-7.08 15.82 0 29.14 12.2 30.92 28 .3.14.6.3.8.53zm-2.37 8.15v-5.44l-.37.06-2.67.26-.6.04c0 1.6-1.32 2.9-2.88 2.9h-6.14c-1.54 0-2.8-1.3-2.8-2.9v-.35c-.6-.2-1.18-.42-1.85-.68-3.1-1.2-7.4-2.9-12.06-2.58-7.63.43-11.33.9-14.14 1.68l-.96-3.24c3.1-.9 6.95-1.38 14.87-1.85 5.4-.3 10.06 1.5 13.47 2.8.3.13.44.22.74.3.22-1.3 1.4-2.28 2.73-2.28h1.42c-3.55-9.07-12.73-15.2-22.94-15.2-4.6 0-9.03 1.2-12.87 3.5-5.7 4.44-8.95 11.05-8.95 18.08v1.08c2.37 1.52 5.48 2.43 8.73 2.56 5.7-2.72 14.58-3.67 19.7-3.28 3.7.3 7.75 2.1 11.1 3.54 1.9.86 3.76 1.68 4.8 1.8 1.55.23 4.95-.12 7.9-.42l.23-.04 2.75-.26c.3-.05.52-.05.82-.05zM673.1-42.92c-6.45 0-12.66 2.24-17.62 6.3 0 .04 0 .04-.07.08 4-1.98 8.37-3.02 12.88-3.02 12.06 0 22.8 7.6 26.5 18.6h1.17c1.56 0 2.8 1.26 2.9 2.8h.28c.52-.07 1.04-.12 1.5-.16-1.72-13.9-13.48-24.6-27.54-24.6zM644.9-6.84c2-.26 3.92-.78 5.48-1.38-2.67-.7-5.04-1.8-7.03-3.28-1.2.6-2.37 1.16-3.63 1.68-1.4.65-3.33 1.5-4.22 2.16 1.4.9 4.96 1.42 9.4.82zm45.43-8.42h5.1v-2.3h-5.1z" stroke="#000" stroke-opacity="0" fill="#bf0816"/><path d="M568.8 29.35a6 6 0 0 1 6-6h188a6 6 0 0 1 6 6v13a6 6 0 0 1-6 6h-188a6 6 0 0 1-6-6z" stroke="#000" stroke-opacity="0" fill="#fff" fill-opacity="0"/><use xlink:href="#i" transform="matrix(1,0,0,1,573.7990740740315,28.348314929787193) translate(5.409259259259258 17.955555555555552)"/><path d="M703.02-24.75h5.74m5.73 0h22.9m5.74 0h11.47m5.74 0h22.92m5.74 0h11.46m5.73 0h22.92m5.73 0h5.73" stroke="#3a414a" fill="none"/><path d="M703.04-24.25h-.33l-.36-1h.7zM841.08-24.25h-.5v-1h.5z" stroke="#3a414a" stroke-width=".05" fill="#3a414a"/><path d="M938.8 372.67c5.5 0 10 4.48 10 10v48c0 5.5-4.5 10-10 10h-48c-5.5 0-10-4.5-10-10v-48c0-5.52 4.5-10 10-10zm6.87 58v-48c0-3.8-3.06-6.88-6.87-6.88h-48c-3.8 0-6.87 3.06-6.87 6.86v48c0 3.82 3.06 6.88 6.87 6.88h48c3.8 0 6.87-3.06 6.87-6.87zm-6.53-13.4c.9 0 1.57.7 1.57 1.57v13.53c0 .82-.67 1.56-1.56 1.56h-21.62c-.88 0-1.56-.74-1.56-1.56v-13.53c0-.88.67-1.56 1.56-1.56zm0-37.87c.9 0 1.57.75 1.57 1.56v13.54c0 .88-.67 1.56-1.56 1.56h-21.62c-.88 0-1.56-.68-1.56-1.56v-13.54c0-.8.67-1.56 1.56-1.56zm-27.06 37.88c.88 0 1.56.68 1.56 1.56v13.53c0 .82-.68 1.56-1.56 1.56h-21.63c-.88 0-1.56-.74-1.56-1.56v-13.53c0-.88.67-1.56 1.56-1.56zm0-37.88c.88 0 1.56.75 1.56 1.56v13.54c0 .88-.68 1.56-1.56 1.56h-21.63c-.88 0-1.56-.68-1.56-1.56v-13.54c0-.8.67-1.56 1.56-1.56zm27.06 18.97c.9 0 1.57.68 1.57 1.56v13.47c0 .88-.67 1.56-1.56 1.56h-21.62c-.88 0-1.56-.68-1.56-1.56v-13.46c0-.9.67-1.57 1.56-1.57zm-27.06 0c.88 0 1.56.68 1.56 1.56v13.47c0 .88-.68 1.56-1.56 1.56h-21.63c-.88 0-1.56-.68-1.56-1.56v-13.46c0-.9.67-1.57 1.56-1.57zm-20.06 32.44h18.5v-10.4H892zm0-37.87h18.5v-10.4H892zm27.06 0h18.5v-10.4h-18.5zm0 37.88h18.5v-10.4h-18.5zm-27.06-18.9h18.5v-10.47H892zm27.06 0h18.5v-10.47h-18.5zm-24.75-2.5v-5.45h3.06v5.44zm5.37 0v-5.45h3.13v5.44zm5.44 0v-5.45h3.06v5.44zm16.25 0v-5.45h3.06v5.44zm10.8 0v-5.45h3.07v5.44zm-5.43 0v-5.45h3.13v5.44zm-32.44-18.98v-5.38h3.06v5.38zm10.8 0v-5.38h3.07v5.38zm16.26 0v-5.38h3.06v5.38zm10.8 0v-5.38h3.07v5.38zm-37.87 37.87v-5.38h3.06v5.37zm10.8 0v-5.38h3.07v5.37zm16.26 0v-5.38h3.06v5.37zm5.37 0v-5.38h3.13v5.37zm5.44 0v-5.38h3.07v5.37zm-32.5-37.88v-5.38h3.13v5.38zm27.07 0v-5.38h3.13v5.38zM899.7 428.3v-5.38h3.13v5.37z" stroke="#000" stroke-opacity="0" fill="#d45b07"/><path d="M762.47 387.67a6 6 0 0 1 6-6H874.8a6 6 0 0 1 6 6v38a6 6 0 0 1-6 6H768.47a6 6 0 0 1-6-6z" stroke="#000" stroke-opacity="0" fill="#fff" fill-opacity="0"/><use xlink:href="#j" transform="matrix(1,0,0,1,767.4657407406985,386.66666666666674) translate(0 14.4)"/><use xlink:href="#k" transform="matrix(1,0,0,1,767.4657407406985,386.66666666666674) translate(0 36)"/><use xlink:href="#l" transform="matrix(1,0,0,1,767.4657407406985,386.66666666666674) translate(48.85 36)"/><path d="M1433.5 353.67h57v57h-57v-57z" stroke="#fff" stroke-opacity="0" stroke-width="2" fill="#d86613"/><path d="M1461.82 402.64c-.14 0-.28-.04-.38-.12l-17.3-9.96c-.28-.16-.42-.4-.42-.7v-20.2c0-.3.14-.53.42-.7l15.9-9.18c.32-.24.8-.12 1.05.2.1.17.13.34.13.5v8.77c0 .25-.14.5-.38.66l-7.98 4.56v10.6l8.98 5.17 7.84-4.55c.23-.16.5-.16.75 0l7.52 4.35c.28.12.42.37.42.7 0 .28-.15.53-.43.65l-15.77 9.14c-.1.08-.24.12-.38.12zm-16.54-11.3l16.95 9.8 14.56-8.46-6.07-3.48-8.08 4.67c-.28.12-.56.12-.83 0l-10.1-5.82c-.27-.16-.4-.4-.4-.7v-11.3c0-.3.13-.54.4-.7l7.95-4.55v-6.97l-14.42 8.36z" stroke="#fff" stroke-opacity="0" stroke-width="2" fill="#fff"/><path d="M1479.42 390.9c-.15 0-.28-.02-.4-.1l-7.53-4.36c-.28-.14-.42-.38-.42-.7v-9.2l-7.95-4.57c-.27-.14-.4-.4-.4-.7v-8.75c0-.3.13-.56.4-.67.22-.15.5-.15.75 0l15.97 9.16c.26.15.4.42.4.7v18.36c0 .32-.14.56-.4.7-.14.1-.27.15-.42.15zm-6.8-5.65l6.1 3.5V372.2l-14.45-8.34v6.92l7.97 4.64c.26.14.42.37.4.7z" stroke="#fff" stroke-opacity="0" stroke-width="2" fill="#fff"/><path d="M1425.13 424.67a6 6 0 0 1 6-6h67.44a6 6 0 0 1 6 6v20a6 6 0 0 1-6 6h-67.44a6 6 0 0 1-6-6z" stroke="#000" stroke-opacity="0" fill="#fff" fill-opacity="0"/><use xlink:href="#m" transform="matrix(1,0,0,1,1430.1270872567898,423.66666666666674) translate(0 14.222222222222221)"/><path d="M473.5-120.33a6 6 0 0 1 6-6h1158.35a6 6 0 0 1 6 6v606a6 6 0 0 1-6 6H479.5a6 6 0 0 1-6-6z" stroke="#232f3e" fill="#fff" fill-opacity="0"/><path d="M473.5-126.33h56v56h-56v-56z" stroke="#fff" stroke-opacity="0" fill="#232f3e"/><path d="M491.7-100.46c-.03.48.05.87.17 1.33.13.38.3.7.5 1.07.04.1.08.2.08.34 0 .2-.12.35-.3.45l-.93.62c-.13.08-.25.12-.37.12-.17 0-.33-.07-.45-.2-.2-.22-.37-.43-.54-.7-.16-.25-.3-.53-.45-.87-1.1 1.38-2.62 2.1-4.38 2.07-1.15.06-2.14-.3-2.96-1.08-.78-.8-1.15-1.77-1.1-2.87-.05-1.22.4-2.27 1.35-3.08 1.07-.84 2.3-1.22 3.66-1.15.58 0 1.03.03 1.6.12.58.08 1.1.2 1.73.32v-1.1c.07-.88-.18-1.67-.7-2.37-.75-.57-1.57-.8-2.48-.7-.53 0-1.02.06-1.6.2-.57.13-1.02.3-1.6.5l-.5.2h-.24c-.2 0-.32-.16-.32-.46v-.73c0-.18.04-.34.12-.5.12-.16.24-.26.4-.33.67-.3 1.2-.5 1.9-.67.78-.2 1.48-.3 2.3-.3 1.48-.1 2.8.28 3.9 1.22.94 1.03 1.35 2.27 1.23 3.66zm-6.07 2.27v.02c.58 0 1.07-.1 1.6-.3.58-.18 1.03-.48 1.44-.94.25-.28.4-.58.5-.94.12-.45.16-.85.16-1.3v-.67c-.54-.1-.95-.17-1.44-.2h-1.4c-.83-.08-1.56.1-2.22.58-.54.45-.78 1.04-.74 1.73-.04.6.12 1.15.53 1.6.45.37 1 .5 1.56.44zm12 1.62c-.2 0-.42-.03-.58-.16-.17-.17-.25-.35-.33-.6l-3.5-11.5-.1-.62c0-.24.1-.36.36-.36h1.47c.2-.02.37.02.58.14.16.18.25.36.3.6l2.5 9.95 2.37-9.93c0-.24.1-.44.3-.6.15-.12.36-.16.56-.15h1.2c.24-.02.4.02.6.13.18.2.26.37.3.6l2.34 9.94 2.55-10c.04-.22.16-.4.32-.58.17-.12.37-.18.58-.15h1.4c.16-.02.32.1.36.3v.31s0 .2-.1.37l-3.62 11.52c-.04.23-.13.43-.3.6-.2.1-.36.15-.56.14h-1.28c-.24.02-.45-.03-.6-.16-.18-.17-.26-.36-.3-.6l-2.3-9.6-2.3 9.6c-.04.23-.12.43-.3.6-.2.13-.4.18-.6.16zm19.2.38c-.8 0-1.5-.07-2.3-.26-.65-.12-1.14-.3-1.7-.6-.22-.08-.38-.23-.47-.4-.08-.15-.12-.3-.12-.44v-.75c0-.3.13-.46.33-.46.12-.03.2-.03.3 0l.36.14c.57.24 1.02.4 1.6.5.6.15 1.15.2 1.8.2.78.06 1.48-.1 2.18-.5.5-.3.8-.8.75-1.4.04-.4-.12-.75-.37-1.03-.45-.4-.94-.64-1.52-.78l-2.17-.7c-.96-.24-1.74-.72-2.4-1.5-.5-.64-.74-1.34-.74-2.17 0-.6.13-1.08.4-1.6.3-.5.63-.9 1.08-1.23.5-.38 1-.6 1.6-.77.66-.18 1.2-.27 1.9-.25.32-.03.6-.03.98 0l.98.15.83.24.65.24c.17.12.3.23.45.38.1.16.13.3.13.5v.7c0 .32-.13.48-.37.48-.22-.03-.38-.1-.6-.2-.93-.4-1.8-.6-2.86-.56-.7-.05-1.3.08-1.97.4-.5.3-.74.8-.7 1.35 0 .4.12.75.45 1.05.5.4 1 .64 1.6.8l2.1.7c.94.23 1.68.7 2.3 1.42.5.63.7 1.3.7 2.1 0 .63-.13 1.16-.38 1.73-.28.54-.6.95-1.1 1.32-.5.4-1 .66-1.6.84-.74.24-1.4.34-2.14.35zM519.6-88.85c-5.6 3.82-11.38 5.58-18.16 5.56-8.55.05-15.83-2.73-22.17-8.44-.48-.42 0-1 .5-.67 7.07 4.04 14.02 5.88 22.2 5.87 6.1-.02 11.28-1.08 16.93-3.45.82-.35 1.5.54.7 1.13z" stroke="#fff" stroke-opacity="0" fill="#fff"/><path d="M521.65-91.14c-.64-.8-4.16-.38-5.75-.2-.48 0-.54-.35-.1-.66 2.8-1.97 7.4-1.4 8-.73.58.67-.16 5.28-2.8 7.48-.4.34-.77.15-.6-.28.55-1.52 1.87-4.84 1.25-5.6z" stroke="#fff" stroke-opacity="0" fill="#fff"/><use xlink:href="#n" transform="matrix(1,0,0,1,544.4858757062148,-106.33333333333326) translate(0 17.77777777777778)"/><use xlink:href="#o" transform="matrix(1,0,0,1,544.4858757062148,-106.33333333333326) translate(80.12345679012344 17.77777777777778)"/><path d="M691.77 223.63h4.88m4.88 0h19.5m4.9 0h9.75m4.88 0h19.5m4.9 0h9.75m4.9 0h19.5m4.88 0h9.76m4.88 0h19.5m4.9 0h9.75m4.88 0h19.5m4.9 0h9.75m4.88 0h19.5m4.9 0h9.75m4.88 0h19.52m4.88 0h9.76m4.88 0h19.5m4.9 0h9.75m4.87 0h19.5m4.9 0h9.75m4.88 0h19.52m4.87 0h9.75m4.88 0h19.52m4.87 0h9.76m4.88 0h19.52m4.88 0h9.75m4.9 0h19.5m4.88 0h9.76m4.88 0h19.52m4.88 0h4.87" stroke="#3a414a" fill="none"/><path d="M691.78 224.13h-.5v-1h.5z" stroke="#3a414a" stroke-width=".05" fill="#3a414a"/><path d="M1238.18 223.63h.5" stroke="#3a414a" fill="none"/><path d="M690.3 220.6c.6.56.97 1.33.97 2.1v6.53c0 1.5-1.2 2.76-2.67 2.85-.44.04-.8.08-1.18.08-.9.1-1.78.18-2.66.26l-.3.05c-3.48.34-6.73.7-8.73.43-1.4-.22-3.26-1.04-5.62-2.08-3.03-1.33-6.88-3.02-10.06-3.23-5.25-.44-15.46.77-19.9 4.1-2.9 2.1-7.1 2.92-9.32 3.23-1.34.17-2.74.3-4.15.3-3.4 0-6.73-.65-8.5-2.38-.97-1.03-.97-2.03-.82-2.6.37-2.06 2.96-3.18 6.5-4.78 1.2-.5 2.38-1.08 3.5-1.64v-.2c0-9.5 4.2-18.44 11.53-24.48 5.48-4.58 12.5-7.08 19.68-7.08 15.84 0 29.16 12.2 30.93 28 .3.14.58.3.8.53zm-2.36 8.15v-5.44l-.37.06-2.67.26-.6.04c0 1.6-1.32 2.9-2.87 2.9h-6.14c-1.57 0-2.83-1.3-2.83-2.9v-.34l-1.85-.7c-3.1-1.2-7.4-2.9-12.06-2.6-7.62.45-11.32.92-14.13 1.7l-.96-3.24c3.1-.9 6.95-1.38 14.87-1.85 5.4-.3 10.06 1.5 13.47 2.8.3.13.45.22.75.3.22-1.3 1.4-2.28 2.74-2.28h1.4c-3.56-9.07-12.74-15.2-22.95-15.2-4.58 0-9.02 1.2-12.87 3.5-5.7 4.44-8.95 11.05-8.95 18.08v1.08c2.36 1.52 5.47 2.43 8.73 2.56 5.7-2.72 14.57-3.67 19.68-3.28 3.7.3 7.77 2.1 11.1 3.54 1.92.86 3.77 1.68 4.8 1.8 1.56.23 4.97-.12 7.92-.42l.23-.04 2.72-.26c.3-.05.52-.05.82-.05zm-29.38-33.27c-6.43 0-12.65 2.24-17.6 6.3 0 .04 0 .04-.08.08 4-1.98 8.36-3.02 12.87-3.02 12.06 0 22.8 7.6 26.5 18.6h1.18c1.55 0 2.8 1.26 2.88 2.8h.3c.53-.08 1.04-.12 1.5-.16-1.7-13.9-13.48-24.6-27.54-24.6zm-28.2 36.08c2-.26 3.93-.78 5.5-1.38-2.68-.7-5.04-1.8-7.04-3.28-1.2.6-2.37 1.16-3.63 1.68-1.4.65-3.34 1.5-4.22 2.16 1.4.9 4.95 1.42 9.4.82zm45.44-8.42h5.1v-2.28h-5.1z" stroke="#000" stroke-opacity="0" fill="#bf0816"/><path d="M554.27 241.23a6 6 0 0 1 6-6h188a6 6 0 0 1 6 6v13a6 6 0 0 1-6 6h-188a6 6 0 0 1-6-6z" stroke="#000" stroke-opacity="0" fill="#fff" fill-opacity="0"/><use xlink:href="#p" transform="matrix(1,0,0,1,559.2719216111468,240.22785602503905) translate(20.34104938271605 17.955555555555552)"/><path d="M1008.25 334.17h-87.43l-.88.07-.84.2-.8.33-.73.45-.66.56-.55.66-.45.73-.33.8-.2.84-.07.9v16.58h-1v-16.63l.08-1 .24-1 .4-.94.52-.85.66-.78.78-.66.87-.53.94-.4.98-.23 1-.07h87.47zm230.94-6.48l-.08.98-.24 1-.4.94-.53.87-.66.76-.78.67-.87.53-.95.4-1 .23-1 .07h-66.78v-1h66.75l.88-.07.84-.2.8-.33.73-.45.65-.56.56-.66.45-.74.32-.8.2-.83.07-.88V182.97h1z" stroke="#3a414a" stroke-width=".05" fill="#3a414a"/><path d="M1239.2 182.98h-1v-.5h1z" fill="#3a414a"/><path d="M1239.22 183h-1.05v-.56h1.05zm-1-.5v.45h.95v-.46z" stroke="#3a414a" stroke-width=".05" fill="#3a414a"/><path d="M914.8 371.05l-4.64-14.27h9.27z" fill="#3a414a"/><path d="M914.8 372.67l-5.32-16.4h10.64zm-3.95-15.4l3.95 12.16 3.95-12.15z" stroke="#3a414a" stroke-width=".05" fill="#3a414a"/><use xlink:href="#q" transform="matrix(1,0,0,1,1008.2463695333752,323.00000000000006) translate(0 14.222222222222223)"/><use xlink:href="#r" transform="matrix(1,0,0,1,1008.2463695333752,323.00000000000006) translate(48.296296296296305 14.222222222222223)"/><use xlink:href="#s" transform="matrix(1,0,0,1,1008.2463695333752,323.00000000000006) translate(105.4814814814815 14.222222222222223)"/><path d="M1244.9 191a6 6 0 0 1 6-6h103.6a6 6 0 0 1 6 6v9.6a6 6 0 0 1-6 6h-103.6a6 6 0 0 1-6-6z" stroke="#000" stroke-opacity="0" fill="#fff" fill-opacity="0"/><g><use xlink:href="#t" transform="matrix(1,0,0,1,1249.914124293785,189.99166666667634) translate(0 17.77777777777778)"/><use xlink:href="#u" transform="matrix(1,0,0,1,1249.914124293785,189.99166666667634) translate(56.79012345679013 17.77777777777778)"/></g><path d="M1462.5 337.28h-1V265.5h1zm0-93.1l-1-.02v-26.6h1z" stroke="#3a414a" stroke-width=".05" fill="#3a414a"/><path d="M1462 352.05l-4.65-14.27h9.27z" fill="#3a414a"/><path d="M1462 353.67l-5.34-16.4h10.65zm-3.96-15.4l3.95 12.16 3.93-12.15z" stroke="#3a414a" stroke-width=".05" fill="#3a414a"/><path d="M1466.62 217.05h-9.27l4.64-14.27z" fill="#3a414a"/><path d="M1467.3 217.55h-10.64l5.33-16.38zm-9.26-1h7.9l-3.95-12.15z" stroke="#3a414a" stroke-width=".05" fill="#3a414a"/><g><use xlink:href="#v" transform="matrix(1,0,0,1,1399.9118016321406,244.16535433070888) translate(0 14.222222222222223)"/><use xlink:href="#w" transform="matrix(1,0,0,1,1399.9118016321406,244.16535433070888) translate(65.03703703703704 14.222222222222223)"/></g><defs><path d="M143 4C61 4 22-44 18-125c-5-107 100-154 193-111 17 8 29 25 37 43l-32 9c-13-25-37-40-76-40-61 0-88 39-88 99 0 61 29 100 91 101 35 0 62-11 79-27v-45h-74v-28h105v86C228-13 192 4 143 4" id="x"/><path d="M24-231v-30h32v30H24zM24 0v-190h32V0H24" id="y"/><path d="M59-47c-2 24 18 29 38 22v24C64 9 27 4 27-40v-127H5v-23h24l9-43h21v43h35v23H59v120" id="z"/><path d="M197 0v-115H63V0H30v-248h33v105h134v-105h34V0h-34" id="A"/><path d="M84 4C-5 8 30-112 23-190h32v120c0 31 7 50 39 49 72-2 45-101 50-169h31l1 190h-30c-1-10 1-25-2-33-11 22-28 36-60 37" id="B"/><path d="M115-194c53 0 69 39 70 98 0 66-23 100-70 100C84 3 66-7 56-30L54 0H23l1-261h32v101c10-23 28-34 59-34zm-8 174c40 0 45-34 45-75 0-40-5-75-45-74-42 0-51 32-51 76 0 43 10 73 51 73" id="C"/><g id="a"><use transform="matrix(0.05,0,0,0.05,0,0)" xlink:href="#x"/><use transform="matrix(0.05,0,0,0.05,14,0)" xlink:href="#y"/><use transform="matrix(0.05,0,0,0.05,17.95,0)" xlink:href="#z"/><use transform="matrix(0.05,0,0,0.05,22.95,0)" xlink:href="#A"/><use transform="matrix(0.05,0,0,0.05,35.9,0)" xlink:href="#B"/><use transform="matrix(0.05,0,0,0.05,45.9,0)" xlink:href="#C"/></g><path fill="#3a414a" d="M212-179c-10-28-35-45-73-45-59 0-87 40-87 99 0 60 29 101 89 101 43 0 62-24 78-52l27 14C228-24 195 4 139 4 59 4 22-46 18-125c-6-104 99-153 187-111 19 9 31 26 39 46" id="D"/><path fill="#3a414a" d="M100-194c62-1 85 37 85 99 1 63-27 99-86 99S16-35 15-95c0-66 28-99 85-99zM99-20c44 1 53-31 53-75 0-43-8-75-51-75s-53 32-53 75 10 74 51 75" id="E"/><path fill="#3a414a" d="M85-194c31 0 48 13 60 33l-1-100h32l1 261h-30c-2-10 0-23-3-31C134-8 116 4 85 4 32 4 16-35 15-94c0-66 23-100 70-100zm9 24c-40 0-46 34-46 75 0 40 6 74 45 74 42 0 51-32 51-76 0-42-9-74-50-73" id="F"/><path fill="#3a414a" d="M100-194c63 0 86 42 84 106H49c0 40 14 67 53 68 26 1 43-12 49-29l28 8c-11 28-37 45-77 45C44 4 14-33 15-96c1-61 26-98 85-98zm52 81c6-60-76-77-97-28-3 7-6 17-6 28h103" id="G"/><path fill="#3a414a" d="M30-248c87 1 191-15 191 75 0 78-77 80-158 76V0H30v-248zm33 125c57 0 124 11 124-50 0-59-68-47-124-48v98" id="H"/><path fill="#3a414a" d="M24-231v-30h32v30H24zM24 0v-190h32V0H24" id="I"/><path fill="#3a414a" d="M115-194c55 1 70 41 70 98S169 2 115 4C84 4 66-9 55-30l1 105H24l-1-265h31l2 30c10-21 28-34 59-34zm-8 174c40 0 45-34 45-75s-6-73-45-74c-42 0-51 32-51 76 0 43 10 73 51 73" id="J"/><path fill="#3a414a" d="M24 0v-261h32V0H24" id="K"/><path fill="#3a414a" d="M117-194c89-4 53 116 60 194h-32v-121c0-31-8-49-39-48C34-167 62-67 57 0H25l-1-190h30c1 10-1 24 2 32 11-22 29-35 61-36" id="L"/><g id="b"><use transform="matrix(0.06172839506172839,0,0,0.06172839506172839,0,0)" xlink:href="#D"/><use transform="matrix(0.06172839506172839,0,0,0.06172839506172839,15.987654320987653,0)" xlink:href="#E"/><use transform="matrix(0.06172839506172839,0,0,0.06172839506172839,28.333333333333332,0)" xlink:href="#F"/><use transform="matrix(0.06172839506172839,0,0,0.06172839506172839,40.67901234567901,0)" xlink:href="#G"/><use transform="matrix(0.06172839506172839,0,0,0.06172839506172839,53.02469135802469,0)" xlink:href="#H"/><use transform="matrix(0.06172839506172839,0,0,0.06172839506172839,67.8395061728395,0)" xlink:href="#I"/><use transform="matrix(0.06172839506172839,0,0,0.06172839506172839,72.71604938271605,0)" xlink:href="#J"/><use transform="matrix(0.06172839506172839,0,0,0.06172839506172839,85.06172839506173,0)" xlink:href="#G"/><use transform="matrix(0.06172839506172839,0,0,0.06172839506172839,97.40740740740742,0)" xlink:href="#K"/><use transform="matrix(0.06172839506172839,0,0,0.06172839506172839,102.28395061728396,0)" xlink:href="#I"/><use transform="matrix(0.06172839506172839,0,0,0.06172839506172839,107.16049382716051,0)" xlink:href="#L"/><use transform="matrix(0.06172839506172839,0,0,0.06172839506172839,119.50617283950619,0)" xlink:href="#G"/></g><path fill="#3a414a" d="M185-189c-5-48-123-54-124 2 14 75 158 14 163 119 3 78-121 87-175 55-17-10-28-26-33-46l33-7c5 56 141 63 141-1 0-78-155-14-162-118-5-82 145-84 179-34 5 7 8 16 11 25" id="M"/><path fill="#3a414a" d="M84 4C-5 8 30-112 23-190h32v120c0 31 7 50 39 49 72-2 45-101 50-169h31l1 190h-30c-1-10 1-25-2-33-11 22-28 36-60 37" id="N"/><path fill="#3a414a" d="M114-163C36-179 61-72 57 0H25l-1-190h30c1 12-1 29 2 39 6-27 23-49 58-41v29" id="O"/><path fill="#3a414a" d="M96-169c-40 0-48 33-48 73s9 75 48 75c24 0 41-14 43-38l32 2c-6 37-31 61-74 61-59 0-76-41-82-99-10-93 101-131 147-64 4 7 5 14 7 22l-32 3c-4-21-16-35-41-35" id="P"/><g id="c"><use transform="matrix(0.06172839506172839,0,0,0.06172839506172839,0,0)" xlink:href="#M"/><use transform="matrix(0.06172839506172839,0,0,0.06172839506172839,14.814814814814813,0)" xlink:href="#E"/><use transform="matrix(0.06172839506172839,0,0,0.06172839506172839,27.160493827160494,0)" xlink:href="#N"/><use transform="matrix(0.06172839506172839,0,0,0.06172839506172839,39.50617283950617,0)" xlink:href="#O"/><use transform="matrix(0.06172839506172839,0,0,0.06172839506172839,46.85185185185185,0)" xlink:href="#P"/><use transform="matrix(0.06172839506172839,0,0,0.06172839506172839,57.96296296296296,0)" xlink:href="#G"/></g><path fill="#3a414a" d="M59-47c-2 24 18 29 38 22v24C64 9 27 4 27-40v-127H5v-23h24l9-43h21v43h35v23H59v120" id="Q"/><g id="d"><use transform="matrix(0.06172839506172839,0,0,0.06172839506172839,0,0)" xlink:href="#M"/><use transform="matrix(0.06172839506172839,0,0,0.06172839506172839,14.814814814814813,0)" xlink:href="#Q"/><use transform="matrix(0.06172839506172839,0,0,0.06172839506172839,20.98765432098765,0)" xlink:href="#G"/><use transform="matrix(0.06172839506172839,0,0,0.06172839506172839,33.33333333333333,0)" xlink:href="#J"/></g><path fill="#3a414a" d="M160-131c35 5 61 23 61 61C221 17 115-2 30 0v-248c76 3 177-17 177 60 0 33-19 50-47 57zm-97-11c50-1 110 9 110-42 0-47-63-36-110-37v79zm0 115c55-2 124 14 124-45 0-56-70-42-124-44v89" id="R"/><g id="e"><use transform="matrix(0.06172839506172839,0,0,0.06172839506172839,0,0)" xlink:href="#R"/><use transform="matrix(0.06172839506172839,0,0,0.06172839506172839,14.814814814814813,0)" xlink:href="#N"/><use transform="matrix(0.06172839506172839,0,0,0.06172839506172839,27.160493827160494,0)" xlink:href="#I"/><use transform="matrix(0.06172839506172839,0,0,0.06172839506172839,32.03703703703704,0)" xlink:href="#K"/><use transform="matrix(0.06172839506172839,0,0,0.06172839506172839,36.91358024691358,0)" xlink:href="#F"/></g><path fill="#3a414a" d="M30-248c118-7 216 8 213 122C240-48 200 0 122 0H30v-248zM63-27c89 8 146-16 146-99s-60-101-146-95v194" id="S"/><path fill="#3a414a" d="M179-190L93 31C79 59 56 82 12 73V49c39 6 53-20 64-50L1-190h34L92-34l54-156h33" id="T"/><g id="f"><use transform="matrix(0.06172839506172839,0,0,0.06172839506172839,0,0)" xlink:href="#S"/><use transform="matrix(0.06172839506172839,0,0,0.06172839506172839,15.987654320987653,0)" xlink:href="#G"/><use transform="matrix(0.06172839506172839,0,0,0.06172839506172839,28.333333333333332,0)" xlink:href="#J"/><use transform="matrix(0.06172839506172839,0,0,0.06172839506172839,40.67901234567901,0)" xlink:href="#K"/><use transform="matrix(0.06172839506172839,0,0,0.06172839506172839,45.55555555555556,0)" xlink:href="#E"/><use transform="matrix(0.06172839506172839,0,0,0.06172839506172839,57.901234567901234,0)" xlink:href="#T"/></g><path fill="#fff" d="M24 0v-248h195v40H76v63h132v40H76v65h150V0H24" id="U"/><path fill="#fff" d="M67-125c0 53 21 87 73 88 37 1 54-22 65-47l45 17C233-25 199 4 140 4 58 4 20-42 15-125 8-235 124-281 211-232c18 10 29 29 36 50l-46 12c-8-25-30-41-62-41-52 0-71 34-72 86" id="V"/><path fill="#fff" d="M169-182c-1-43-94-46-97-3 18 66 151 10 154 114 3 95-165 93-204 36-6-8-10-19-12-30l50-8c3 46 112 56 116 5-17-69-150-10-154-114-4-87 153-88 188-35 5 8 8 18 10 28" id="W"/><g id="g"><use transform="matrix(0.04320987654320987,0,0,0.04320987654320987,0,0)" xlink:href="#U"/><use transform="matrix(0.04320987654320987,0,0,0.04320987654320987,10.370370370370368,0)" xlink:href="#V"/><use transform="matrix(0.04320987654320987,0,0,0.04320987654320987,21.561728395061724,0)" xlink:href="#W"/></g><path fill="#fff" d="M24-248c120-7 223 5 221 122C244-46 201 0 124 0H24v-248zM76-40c74 7 117-18 117-86 0-67-45-88-117-82v168" id="X"/><path fill="#fff" d="M185-48c-13 30-37 53-82 52C43 2 14-33 14-96s30-98 90-98c62 0 83 45 84 108H66c0 31 8 55 39 56 18 0 30-7 34-22zm-45-69c5-46-57-63-70-21-2 6-4 13-4 21h74" id="Y"/><path fill="#fff" d="M135-194c53 0 70 44 70 98 0 56-19 98-73 100-31 1-45-17-59-34 3 33 2 69 2 105H25l-1-265h48c2 10 0 23 3 31 11-24 29-35 60-35zM114-30c33 0 39-31 40-66 0-38-9-64-40-64-56 0-55 130 0 130" id="Z"/><path fill="#fff" d="M25 0v-261h50V0H25" id="aa"/><path fill="#fff" d="M110-194c64 0 96 36 96 99 0 64-35 99-97 99-61 0-95-36-95-99 0-62 34-99 96-99zm-1 164c35 0 45-28 45-65 0-40-10-65-43-65-34 0-45 26-45 65 0 36 10 65 43 65" id="ab"/><path fill="#fff" d="M123 10C108 53 80 86 19 72V37c35 8 53-11 59-39L3-190h52l48 148c12-52 28-100 44-148h51" id="ac"/><g id="h"><use transform="matrix(0.04320987654320987,0,0,0.04320987654320987,0,0)" xlink:href="#X"/><use transform="matrix(0.04320987654320987,0,0,0.04320987654320987,11.191358024691356,0)" xlink:href="#Y"/><use transform="matrix(0.04320987654320987,0,0,0.04320987654320987,19.83333333333333,0)" xlink:href="#Z"/><use transform="matrix(0.04320987654320987,0,0,0.04320987654320987,29.29629629629629,0)" xlink:href="#aa"/><use transform="matrix(0.04320987654320987,0,0,0.04320987654320987,33.61728395061728,0)" xlink:href="#ab"/><use transform="matrix(0.04320987654320987,0,0,0.04320987654320987,43.08024691358024,0)" xlink:href="#ac"/></g><path d="M212-179c-10-28-35-45-73-45-59 0-87 40-87 99 0 60 29 101 89 101 43 0 62-24 78-52l27 14C228-24 195 4 139 4 59 4 22-46 18-125c-6-104 99-153 187-111 19 9 31 26 39 46" id="ad"/><path d="M100-194c62-1 85 37 85 99 1 63-27 99-86 99S16-35 15-95c0-66 28-99 85-99zM99-20c44 1 53-31 53-75 0-43-8-75-51-75s-53 32-53 75 10 74 51 75" id="ae"/><path d="M85-194c31 0 48 13 60 33l-1-100h32l1 261h-30c-2-10 0-23-3-31C134-8 116 4 85 4 32 4 16-35 15-94c0-66 23-100 70-100zm9 24c-40 0-46 34-46 75 0 40 6 74 45 74 42 0 51-32 51-76 0-42-9-74-50-73" id="af"/><path d="M100-194c63 0 86 42 84 106H49c0 40 14 67 53 68 26 1 43-12 49-29l28 8c-11 28-37 45-77 45C44 4 14-33 15-96c1-61 26-98 85-98zm52 81c6-60-76-77-97-28-3 7-6 17-6 28h103" id="ag"/><path d="M30-248c87 1 191-15 191 75 0 78-77 80-158 76V0H30v-248zm33 125c57 0 124 11 124-50 0-59-68-47-124-48v98" id="ah"/><path d="M115-194c55 1 70 41 70 98S169 2 115 4C84 4 66-9 55-30l1 105H24l-1-265h31l2 30c10-21 28-34 59-34zm-8 174c40 0 45-34 45-75s-6-73-45-74c-42 0-51 32-51 76 0 43 10 73 51 73" id="ai"/><path d="M24 0v-261h32V0H24" id="aj"/><path d="M117-194c89-4 53 116 60 194h-32v-121c0-31-8-49-39-48C34-167 62-67 57 0H25l-1-190h30c1 10-1 24 2 32 11-22 29-35 61-36" id="ak"/><path d="M233-177c-1 41-23 64-60 70L243 0h-38l-65-103H63V0H30v-248c88 3 205-21 203 71zM63-129c60-2 137 13 137-47 0-61-80-42-137-45v92" id="al"/><g id="i"><use transform="matrix(0.06234567901234567,0,0,0.06234567901234567,0,0)" xlink:href="#ad"/><use transform="matrix(0.06234567901234567,0,0,0.06234567901234567,16.147530864197527,0)" xlink:href="#ae"/><use transform="matrix(0.06234567901234567,0,0,0.06234567901234567,28.61666666666666,0)" xlink:href="#af"/><use transform="matrix(0.06234567901234567,0,0,0.06234567901234567,41.08580246913579,0)" xlink:href="#ag"/><use transform="matrix(0.06234567901234567,0,0,0.06234567901234567,53.554938271604925,0)" xlink:href="#ah"/><use transform="matrix(0.06234567901234567,0,0,0.06234567901234567,68.51790123456789,0)" xlink:href="#y"/><use transform="matrix(0.06234567901234567,0,0,0.06234567901234567,73.4432098765432,0)" xlink:href="#ai"/><use transform="matrix(0.06234567901234567,0,0,0.06234567901234567,85.91234567901233,0)" xlink:href="#ag"/><use transform="matrix(0.06234567901234567,0,0,0.06234567901234567,98.38148148148147,0)" xlink:href="#aj"/><use transform="matrix(0.06234567901234567,0,0,0.06234567901234567,103.30679012345678,0)" xlink:href="#y"/><use transform="matrix(0.06234567901234567,0,0,0.06234567901234567,108.23209876543208,0)" xlink:href="#ak"/><use transform="matrix(0.06234567901234567,0,0,0.06234567901234567,120.70123456790122,0)" xlink:href="#ag"/><use transform="matrix(0.06234567901234567,0,0,0.06234567901234567,133.17037037037036,0)" xlink:href="#al"/><use transform="matrix(0.06234567901234567,0,0,0.06234567901234567,149.3179012345679,0)" xlink:href="#ae"/><use transform="matrix(0.06234567901234567,0,0,0.06234567901234567,161.78703703703704,0)" xlink:href="#aj"/><use transform="matrix(0.06234567901234567,0,0,0.06234567901234567,166.71234567901234,0)" xlink:href="#ag"/></g><path d="M141-36C126-15 110 5 73 4 37 3 15-17 15-53c-1-64 63-63 125-63 3-35-9-54-41-54-24 1-41 7-42 31l-33-3c5-37 33-52 76-52 45 0 72 20 72 64v82c-1 20 7 32 28 27v20c-31 9-61-2-59-35zM48-53c0 20 12 33 32 33 41-3 63-29 60-74-43 2-92-5-92 41" id="am"/><path d="M96-169c-40 0-48 33-48 73s9 75 48 75c24 0 41-14 43-38l32 2c-6 37-31 61-74 61-59 0-76-41-82-99-10-93 101-131 147-64 4 7 5 14 7 22l-32 3c-4-21-16-35-41-35" id="an"/><path d="M143 0L79-87 56-68V0H24v-261h32v163l83-92h37l-77 82L181 0h-38" id="ao"/><path d="M16-82v-28h88v28H16" id="ap"/><path d="M101-234c-31-9-42 10-38 44h38v23H63V0H32v-167H5v-23h27c-7-52 17-82 69-68v24" id="aq"/><path d="M135-143c-3-34-86-38-87 0 15 53 115 12 119 90S17 21 10-45l28-5c4 36 97 45 98 0-10-56-113-15-118-90-4-57 82-63 122-42 12 7 21 19 24 35" id="ar"/><g id="j"><use transform="matrix(0.05,0,0,0.05,0,0)" xlink:href="#C"/><use transform="matrix(0.05,0,0,0.05,10,0)" xlink:href="#am"/><use transform="matrix(0.05,0,0,0.05,20,0)" xlink:href="#an"/><use transform="matrix(0.05,0,0,0.05,29,0)" xlink:href="#ao"/><use transform="matrix(0.05,0,0,0.05,38,0)" xlink:href="#ag"/><use transform="matrix(0.05,0,0,0.05,48,0)" xlink:href="#af"/><use transform="matrix(0.05,0,0,0.05,58,0)" xlink:href="#ap"/><use transform="matrix(0.05,0,0,0.05,63.95,0)" xlink:href="#aq"/><use transform="matrix(0.05,0,0,0.05,68.95,0)" xlink:href="#aj"/><use transform="matrix(0.05,0,0,0.05,72.9,0)" xlink:href="#am"/><use transform="matrix(0.05,0,0,0.05,82.9,0)" xlink:href="#ar"/><use transform="matrix(0.05,0,0,0.05,91.9,0)" xlink:href="#ao"/></g><path d="M87 75C49 33 22-17 22-94c0-76 28-126 65-167h31c-38 41-64 92-64 168S80 34 118 75H87" id="as"/><path d="M30 0v-248h187v28H63v79h144v27H63v87h162V0H30" id="at"/><g id="k"><use transform="matrix(0.05,0,0,0.05,0,0)" xlink:href="#as"/><use transform="matrix(0.05,0,0,0.05,5.95,0)" xlink:href="#at"/><use transform="matrix(0.05,0,0,0.05,17.95,0)" xlink:href="#ad"/><use transform="matrix(0.05,0,0,0.05,30.899999999999995,0)" xlink:href="#al"/></g><path d="M33-261c38 41 65 92 65 168S71 34 33 75H2C39 34 66-17 66-93S39-220 2-261h31" id="au"/><g id="l"><use transform="matrix(0.05,0,0,0.05,0,0)" xlink:href="#al"/><use transform="matrix(0.05,0,0,0.05,12.950000000000001,0)" xlink:href="#ag"/><use transform="matrix(0.05,0,0,0.05,22.950000000000003,0)" xlink:href="#ai"/><use transform="matrix(0.05,0,0,0.05,32.95,0)" xlink:href="#ae"/><use transform="matrix(0.05,0,0,0.05,42.95,0)" xlink:href="#au"/></g><path fill="#d45b07" d="M76-208v77h127v40H76V0H24v-248h183v40H76" id="av"/><path fill="#d45b07" d="M133-34C117-15 103 5 69 4 32 3 11-16 11-54c-1-60 55-63 116-61 1-26-3-47-28-47-18 1-26 9-28 27l-52-2c7-38 36-58 82-57s74 22 75 68l1 82c-1 14 12 18 25 15v27c-30 8-71 5-69-32zm-48 3c29 0 43-24 42-57-32 0-66-3-65 30 0 17 8 27 23 27" id="aw"/><path fill="#d45b07" d="M135-150c-39-12-60 13-60 57V0H25l-1-190h47c2 13-1 29 3 40 6-28 27-53 61-41v41" id="ax"/><path fill="#d45b07" d="M195-6C206 82 75 100 31 46c-4-6-6-13-8-21l49-6c3 16 16 24 34 25 40 0 42-37 40-79-11 22-30 35-61 35-53 0-70-43-70-97 0-56 18-96 73-97 30 0 46 14 59 34l2-30h47zm-90-29c32 0 41-27 41-63 0-35-9-62-40-62-32 0-39 29-40 63 0 36 9 62 39 62" id="ay"/><path fill="#d45b07" d="M115-3C79 11 28 4 28-45v-112H4v-33h27l15-45h31v45h36v33H77v99c-1 23 16 31 38 25v30" id="az"/><path fill="#d45b07" d="M185-48c-13 30-37 53-82 52C43 2 14-33 14-96s30-98 90-98c62 0 83 45 84 108H66c0 31 8 55 39 56 18 0 30-7 34-22zm-45-69c5-46-57-63-70-21-2 6-4 13-4 21h74" id="aA"/><g id="m"><use transform="matrix(0.049382716049382706,0,0,0.049382716049382706,0,0)" xlink:href="#av"/><use transform="matrix(0.049382716049382706,0,0,0.049382716049382706,10.814814814814813,0)" xlink:href="#aw"/><use transform="matrix(0.049382716049382706,0,0,0.049382716049382706,20.691358024691354,0)" xlink:href="#ax"/><use transform="matrix(0.049382716049382706,0,0,0.049382716049382706,27.604938271604933,0)" xlink:href="#ay"/><use transform="matrix(0.049382716049382706,0,0,0.049382716049382706,38.419753086419746,0)" xlink:href="#aw"/><use transform="matrix(0.049382716049382706,0,0,0.049382716049382706,48.29629629629629,0)" xlink:href="#az"/><use transform="matrix(0.049382716049382706,0,0,0.049382716049382706,54.17283950617284,0)" xlink:href="#aA"/></g><path fill="#3a414a" d="M146-102V0H94v-102L6-248h54l60 105 60-105h54" id="aB"/><path fill="#3a414a" d="M133-34C117-15 103 5 69 4 32 3 11-16 11-54c-1-60 55-63 116-61 1-26-3-47-28-47-18 1-26 9-28 27l-52-2c7-38 36-58 82-57s74 22 75 68l1 82c-1 14 12 18 25 15v27c-30 8-71 5-69-32zm-48 3c29 0 43-24 42-57-32 0-66-3-65 30 0 17 8 27 23 27" id="aC"/><path fill="#3a414a" d="M190-63c-7 42-38 67-86 67-59 0-84-38-90-98-12-110 154-137 174-36l-49 2c-2-19-15-32-35-32-30 0-35 28-38 64-6 74 65 87 74 30" id="aD"/><path fill="#3a414a" d="M135-150c-39-12-60 13-60 57V0H25l-1-190h47c2 13-1 29 3 40 6-28 27-53 61-41v41" id="aE"/><path fill="#3a414a" d="M85 4C-2 5 27-109 22-190h50c7 57-23 150 33 157 60-5 35-97 40-157h50l1 190h-47c-2-12 1-28-3-38-12 25-28 42-61 42" id="aF"/><path fill="#3a414a" d="M88-194c31-1 46 15 58 34l-1-101h50l1 261h-48c-2-10 0-23-3-31C134-8 116 4 84 4 32 4 16-41 15-95c0-56 19-97 73-99zm17 164c33 0 40-30 41-66 1-37-9-64-41-64s-38 30-39 65c0 43 13 65 39 65" id="aG"/><g id="n"><use transform="matrix(0.06172839506172839,0,0,0.06172839506172839,0,0)" xlink:href="#aB"/><use transform="matrix(0.06172839506172839,0,0,0.06172839506172839,13.580246913580245,0)" xlink:href="#aC"/><use transform="matrix(0.06172839506172839,0,0,0.06172839506172839,25.925925925925924,0)" xlink:href="#aD"/><use transform="matrix(0.06172839506172839,0,0,0.06172839506172839,38.2716049382716,0)" xlink:href="#aE"/><use transform="matrix(0.06172839506172839,0,0,0.06172839506172839,46.913580246913575,0)" xlink:href="#aF"/><use transform="matrix(0.06172839506172839,0,0,0.06172839506172839,60.432098765432094,0)" xlink:href="#aG"/></g><path fill="#3a414a" d="M67-125c0 53 21 87 73 88 37 1 54-22 65-47l45 17C233-25 199 4 140 4 58 4 20-42 15-125 8-235 124-281 211-232c18 10 29 29 36 50l-46 12c-8-25-30-41-62-41-52 0-71 34-72 86" id="aH"/><path fill="#3a414a" d="M24 0v-248h52V0H24" id="aI"/><path fill="#3a414a" d="M4 7l51-268h42L46 7H4" id="aJ"/><path fill="#3a414a" d="M24-248c120-7 223 5 221 122C244-46 201 0 124 0H24v-248zM76-40c74 7 117-18 117-86 0-67-45-88-117-82v168" id="aK"/><g id="o"><use transform="matrix(0.06172839506172839,0,0,0.06172839506172839,0,0)" xlink:href="#aH"/><use transform="matrix(0.06172839506172839,0,0,0.06172839506172839,15.987654320987653,0)" xlink:href="#aI"/><use transform="matrix(0.06172839506172839,0,0,0.06172839506172839,22.160493827160494,0)" xlink:href="#aJ"/><use transform="matrix(0.06172839506172839,0,0,0.06172839506172839,28.333333333333332,0)" xlink:href="#aH"/><use transform="matrix(0.06172839506172839,0,0,0.06172839506172839,44.32098765432099,0)" xlink:href="#aK"/></g><path d="M160-131c35 5 61 23 61 61C221 17 115-2 30 0v-248c76 3 177-17 177 60 0 33-19 50-47 57zm-97-11c50-1 110 9 110-42 0-47-63-36-110-37v79zm0 115c55-2 124 14 124-45 0-56-70-42-124-44v89" id="aL"/><g id="p"><use transform="matrix(0.06234567901234567,0,0,0.06234567901234567,0,0)" xlink:href="#ad"/><use transform="matrix(0.06234567901234567,0,0,0.06234567901234567,16.147530864197527,0)" xlink:href="#ae"/><use transform="matrix(0.06234567901234567,0,0,0.06234567901234567,28.61666666666666,0)" xlink:href="#af"/><use transform="matrix(0.06234567901234567,0,0,0.06234567901234567,41.08580246913579,0)" xlink:href="#ag"/><use transform="matrix(0.06234567901234567,0,0,0.06234567901234567,53.554938271604925,0)" xlink:href="#aL"/><use transform="matrix(0.06234567901234567,0,0,0.06234567901234567,68.51790123456789,0)" xlink:href="#B"/><use transform="matrix(0.06234567901234567,0,0,0.06234567901234567,80.98703703703703,0)" xlink:href="#y"/><use transform="matrix(0.06234567901234567,0,0,0.06234567901234567,85.91234567901233,0)" xlink:href="#aj"/><use transform="matrix(0.06234567901234567,0,0,0.06234567901234567,90.83765432098764,0)" xlink:href="#af"/><use transform="matrix(0.06234567901234567,0,0,0.06234567901234567,103.30679012345678,0)" xlink:href="#al"/><use transform="matrix(0.06234567901234567,0,0,0.06234567901234567,119.45432098765431,0)" xlink:href="#ae"/><use transform="matrix(0.06234567901234567,0,0,0.06234567901234567,131.92345679012345,0)" xlink:href="#aj"/><use transform="matrix(0.06234567901234567,0,0,0.06234567901234567,136.84876543209876,0)" xlink:href="#ag"/></g><path fill="#333" d="M24-248c93 1 206-16 204 79-1 75-69 88-152 82V0H24v-248zm52 121c47 0 100 7 100-41 0-47-54-39-100-39v80" id="aM"/><path fill="#333" d="M85 4C-2 5 27-109 22-190h50c7 57-23 150 33 157 60-5 35-97 40-157h50l1 190h-47c-2-12 1-28-3-38-12 25-28 42-61 42" id="aN"/><path fill="#333" d="M137-138c1-29-70-34-71-4 15 46 118 7 119 86 1 83-164 76-172 9l43-7c4 19 20 25 44 25 33 8 57-30 24-41C81-84 22-81 20-136c-2-80 154-74 161-7" id="aO"/><path fill="#333" d="M114-157C55-157 80-60 75 0H25v-261h50l-1 109c12-26 28-41 61-42 86-1 58 113 63 194h-50c-7-57 23-157-34-157" id="aP"/><g id="q"><use transform="matrix(0.04938271604938272,0,0,0.04938271604938272,0,0)" xlink:href="#aM"/><use transform="matrix(0.04938271604938272,0,0,0.04938271604938272,11.851851851851853,0)" xlink:href="#aN"/><use transform="matrix(0.04938271604938272,0,0,0.04938271604938272,22.666666666666668,0)" xlink:href="#aO"/><use transform="matrix(0.04938271604938272,0,0,0.04938271604938272,32.543209876543216,0)" xlink:href="#aP"/></g><path fill="#333" d="M220-157c-53 9-28 100-34 157h-49v-107c1-27-5-49-29-50C55-147 81-57 75 0H25l-1-190h47c2 12-1 28 3 38 10-53 101-56 108 0 13-22 24-43 59-42 82 1 51 116 57 194h-49v-107c-1-25-5-48-29-50" id="aQ"/><path fill="#333" d="M133-34C117-15 103 5 69 4 32 3 11-16 11-54c-1-60 55-63 116-61 1-26-3-47-28-47-18 1-26 9-28 27l-52-2c7-38 36-58 82-57s74 22 75 68l1 82c-1 14 12 18 25 15v27c-30 8-71 5-69-32zm-48 3c29 0 43-24 42-57-32 0-66-3-65 30 0 17 8 27 23 27" id="aR"/><path fill="#333" d="M195-6C206 82 75 100 31 46c-4-6-6-13-8-21l49-6c3 16 16 24 34 25 40 0 42-37 40-79-11 22-30 35-61 35-53 0-70-43-70-97 0-56 18-96 73-97 30 0 46 14 59 34l2-30h47zm-90-29c32 0 41-27 41-63 0-35-9-62-40-62-32 0-39 29-40 63 0 36 9 62 39 62" id="aS"/><path fill="#333" d="M185-48c-13 30-37 53-82 52C43 2 14-33 14-96s30-98 90-98c62 0 83 45 84 108H66c0 31 8 55 39 56 18 0 30-7 34-22zm-45-69c5-46-57-63-70-21-2 6-4 13-4 21h74" id="aT"/><path fill="#333" d="M35-132v-50h50v50H35zM35 0v-49h50V0H35" id="aU"/><g id="r"><use transform="matrix(0.04938271604938272,0,0,0.04938271604938272,0,0)" xlink:href="#aQ"/><use transform="matrix(0.04938271604938272,0,0,0.04938271604938272,15.80246913580247,0)" xlink:href="#aR"/><use transform="matrix(0.04938271604938272,0,0,0.04938271604938272,25.679012345679016,0)" xlink:href="#aS"/><use transform="matrix(0.04938271604938272,0,0,0.04938271604938272,36.49382716049383,0)" xlink:href="#aT"/><use transform="matrix(0.04938271604938272,0,0,0.04938271604938272,46.370370370370374,0)" xlink:href="#aU"/></g><path fill="#333" d="M24 0v-248h52v208h133V0H24" id="aV"/><path fill="#333" d="M115-3C79 11 28 4 28-45v-112H4v-33h27l15-45h31v45h36v33H77v99c-1 23 16 31 38 25v30" id="aW"/><g id="s"><use transform="matrix(0.04938271604938272,0,0,0.04938271604938272,0,0)" xlink:href="#aV"/><use transform="matrix(0.04938271604938272,0,0,0.04938271604938272,10.814814814814815,0)" xlink:href="#aR"/><use transform="matrix(0.04938271604938272,0,0,0.04938271604938272,20.69135802469136,0)" xlink:href="#aW"/><use transform="matrix(0.04938271604938272,0,0,0.04938271604938272,26.567901234567902,0)" xlink:href="#aT"/><use transform="matrix(0.04938271604938272,0,0,0.04938271604938272,36.44444444444445,0)" xlink:href="#aO"/><use transform="matrix(0.04938271604938272,0,0,0.04938271604938272,46.320987654320994,0)" xlink:href="#aW"/></g><path fill="#3a414a" d="M141-36C126-15 110 5 73 4 37 3 15-17 15-53c-1-64 63-63 125-63 3-35-9-54-41-54-24 1-41 7-42 31l-33-3c5-37 33-52 76-52 45 0 72 20 72 64v82c-1 20 7 32 28 27v20c-31 9-61-2-59-35zM48-53c0 20 12 33 32 33 41-3 63-29 60-74-43 2-92-5-92 41" id="aX"/><path fill="#3a414a" d="M143 0L79-87 56-68V0H24v-261h32v163l83-92h37l-77 82L181 0h-38" id="aY"/><g id="t"><use transform="matrix(0.06172839506172839,0,0,0.06172839506172839,0,0)" xlink:href="#R"/><use transform="matrix(0.06172839506172839,0,0,0.06172839506172839,14.814814814814813,0)" xlink:href="#aX"/><use transform="matrix(0.06172839506172839,0,0,0.06172839506172839,27.160493827160494,0)" xlink:href="#aY"/><use transform="matrix(0.06172839506172839,0,0,0.06172839506172839,38.27160493827161,0)" xlink:href="#G"/></g><path fill="#3a414a" d="M33 0v-248h34V0H33" id="aZ"/><path fill="#3a414a" d="M210-169c-67 3-38 105-44 169h-31v-121c0-29-5-50-35-48C34-165 62-65 56 0H25l-1-190h30c1 10-1 24 2 32 10-44 99-50 107 0 11-21 27-35 58-36 85-2 47 119 55 194h-31v-121c0-29-5-49-35-48" id="ba"/><path fill="#3a414a" d="M177-190C167-65 218 103 67 71c-23-6-38-20-44-43l32-5c15 47 100 32 89-28v-30C133-14 115 1 83 1 29 1 15-40 15-95c0-56 16-97 71-98 29-1 48 16 59 35 1-10 0-23 2-32h30zM94-22c36 0 50-32 50-73 0-42-14-75-50-75-39 0-46 34-46 75s6 73 46 73" id="bb"/><g id="u"><use transform="matrix(0.06172839506172839,0,0,0.06172839506172839,0,0)" xlink:href="#aZ"/><use transform="matrix(0.06172839506172839,0,0,0.06172839506172839,6.172839506172839,0)" xlink:href="#ba"/><use transform="matrix(0.06172839506172839,0,0,0.06172839506172839,24.629629629629626,0)" xlink:href="#bb"/></g><path fill="#333" d="M136-208V0H84v-208H4v-40h212v40h-80" id="bc"/><path fill="#333" d="M135-150c-39-12-60 13-60 57V0H25l-1-190h47c2 13-1 29 3 40 6-28 27-53 61-41v41" id="bd"/><path fill="#333" d="M25-224v-37h50v37H25zM25 0v-190h50V0H25" id="be"/><g id="v"><use transform="matrix(0.04938271604938272,0,0,0.04938271604938272,0,0)" xlink:href="#bc"/><use transform="matrix(0.04938271604938272,0,0,0.04938271604938272,9.82716049382716,0)" xlink:href="#bd"/><use transform="matrix(0.04938271604938272,0,0,0.04938271604938272,16.74074074074074,0)" xlink:href="#be"/><use transform="matrix(0.04938271604938272,0,0,0.04938271604938272,21.679012345679013,0)" xlink:href="#aS"/><use transform="matrix(0.04938271604938272,0,0,0.04938271604938272,32.49382716049383,0)" xlink:href="#aS"/><use transform="matrix(0.04938271604938272,0,0,0.04938271604938272,43.308641975308646,0)" xlink:href="#aT"/><use transform="matrix(0.04938271604938272,0,0,0.04938271604938272,53.18518518518519,0)" xlink:href="#bd"/></g><path fill="#333" d="M24-248c120-7 223 5 221 122C244-46 201 0 124 0H24v-248zM76-40c74 7 117-18 117-86 0-67-45-88-117-82v168" id="bf"/><path fill="#333" d="M135-194c53 0 70 44 70 98 0 56-19 98-73 100-31 1-45-17-59-34 3 33 2 69 2 105H25l-1-265h48c2 10 0 23 3 31 11-24 29-35 60-35zM114-30c33 0 39-31 40-66 0-38-9-64-40-64-56 0-55 130 0 130" id="bg"/><path fill="#333" d="M25 0v-261h50V0H25" id="bh"/><path fill="#333" d="M110-194c64 0 96 36 96 99 0 64-35 99-97 99-61 0-95-36-95-99 0-62 34-99 96-99zm-1 164c35 0 45-28 45-65 0-40-10-65-43-65-34 0-45 26-45 65 0 36 10 65 43 65" id="bi"/><path fill="#333" d="M123 10C108 53 80 86 19 72V37c35 8 53-11 59-39L3-190h52l48 148c12-52 28-100 44-148h51" id="bj"/><g id="w"><use transform="matrix(0.04938271604938272,0,0,0.04938271604938272,0,0)" xlink:href="#bf"/><use transform="matrix(0.04938271604938272,0,0,0.04938271604938272,12.790123456790125,0)" xlink:href="#aT"/><use transform="matrix(0.04938271604938272,0,0,0.04938271604938272,22.66666666666667,0)" xlink:href="#bg"/><use transform="matrix(0.04938271604938272,0,0,0.04938271604938272,33.48148148148149,0)" xlink:href="#bh"/><use transform="matrix(0.04938271604938272,0,0,0.04938271604938272,38.41975308641976,0)" xlink:href="#bi"/><use transform="matrix(0.04938271604938272,0,0,0.04938271604938272,49.23456790123458,0)" xlink:href="#bj"/></g></defs></g></svg>